#N canvas 1397 343 1455 680 10;
#X obj 168 612 dac~;
#N canvas 0 22 737 591 snare 0;
#X obj 554 267 noise~;
#X obj 283 327 *~;
#X obj 284 353 *~ 0.5;
#X obj 311 86 inlet;
#X obj 356 428 *~ 0.5;
#X obj 372 195 i 40;
#X obj 482 65 inlet;
#X obj 481 120 + 20;
#X obj 353 531 outlet~;
#X obj 553 320 hip~ 440;
#X obj 309 306 line~;
#X msg 325 264 1;
#X obj 369 226 t f b;
#X msg 392 272 0 \$1;
#X obj 481 99 * 1000;
#X obj 311 141 t b;
#X obj 406 57 inlet;
#X obj 405 91 * 64;
#X obj 405 112 + 64;
#X obj 407 151 mtof;
#X connect 0 0 9 0;
#X connect 1 0 2 0;
#X connect 2 0 4 0;
#X connect 3 0 15 0;
#X connect 4 0 8 0;
#X connect 5 0 12 0;
#X connect 6 0 14 0;
#X connect 7 0 5 1;
#X connect 9 0 1 0;
#X connect 10 0 1 1;
#X connect 11 0 10 0;
#X connect 12 0 13 0;
#X connect 12 1 11 0;
#X connect 13 0 10 0;
#X connect 14 0 7 0;
#X connect 15 0 5 0;
#X connect 16 0 17 0;
#X connect 17 0 18 0;
#X connect 18 0 19 0;
#X connect 19 0 9 1;
#X restore 262 243 pd snare;
#X obj 256 72 r Channel-B;
#X obj 270 92 hsl 128 15 0 1 0 0 empty empty empty -2 -8 0 10 -262144
-1 -1 300 1;
#N canvas 2168 250 450 300 delta 0;
#X obj 67 68 inlet;
#X obj 66 92 t f b;
#X obj 96 145 f;
#X obj 72 145 f;
#X obj 94 118 f;
#X obj 72 167 -;
#X obj 72 192 spigot 1;
#X msg 168 121 0;
#X obj 217 27 loadbang;
#X obj 217 53 f \$1;
#X obj 215 78 sel 2;
#X obj 227 204 t f b;
#X obj 257 257 f;
#X obj 233 257 f;
#X obj 255 230 f;
#X msg 223 116 1;
#X obj 186 163 spigot 0;
#X obj 232 282 -;
#X obj 74 338 outlet;
#X connect 0 0 1 0;
#X connect 1 0 4 1;
#X connect 1 0 3 0;
#X connect 1 1 4 0;
#X connect 2 0 5 1;
#X connect 3 0 5 0;
#X connect 4 0 2 0;
#X connect 5 0 6 0;
#X connect 5 0 16 0;
#X connect 6 0 18 0;
#X connect 7 0 6 1;
#X connect 8 0 9 0;
#X connect 9 0 10 0;
#X connect 10 0 7 0;
#X connect 10 0 15 0;
#X connect 11 0 14 1;
#X connect 11 0 13 0;
#X connect 11 1 14 0;
#X connect 12 0 17 1;
#X connect 13 0 17 0;
#X connect 14 0 12 0;
#X connect 15 0 16 1;
#X connect 16 0 11 0;
#X connect 17 0 18 0;
#X restore 259 113 pd delta;
#X floatatom 261 136 5 0 0 0 - - -, f 5;
#X obj 261 185 change;
#X obj 261 211 sel 1;
#X obj 261 161 >= 0;
#X obj 502 91 hsl 128 15 0 1 0 0 empty empty empty -2 -8 0 10 -262144
-1 -1 0 1;
#N canvas 2168 250 450 300 delta 0;
#X obj 67 68 inlet;
#X obj 66 92 t f b;
#X obj 96 145 f;
#X obj 72 145 f;
#X obj 94 118 f;
#X obj 72 167 -;
#X obj 72 192 spigot 1;
#X msg 168 121 0;
#X obj 217 27 loadbang;
#X obj 217 53 f \$1;
#X obj 215 78 sel 2;
#X obj 227 204 t f b;
#X obj 257 257 f;
#X obj 233 257 f;
#X obj 255 230 f;
#X msg 223 116 1;
#X obj 186 163 spigot 0;
#X obj 232 282 -;
#X obj 74 338 outlet;
#X connect 0 0 1 0;
#X connect 1 0 4 1;
#X connect 1 0 3 0;
#X connect 1 1 4 0;
#X connect 2 0 5 1;
#X connect 3 0 5 0;
#X connect 4 0 2 0;
#X connect 5 0 6 0;
#X connect 5 0 16 0;
#X connect 6 0 18 0;
#X connect 7 0 6 1;
#X connect 8 0 9 0;
#X connect 9 0 10 0;
#X connect 10 0 7 0;
#X connect 10 0 15 0;
#X connect 11 0 14 1;
#X connect 11 0 13 0;
#X connect 11 1 14 0;
#X connect 12 0 17 1;
#X connect 13 0 17 0;
#X connect 14 0 12 0;
#X connect 15 0 16 1;
#X connect 16 0 11 0;
#X connect 17 0 18 0;
#X restore 491 112 pd delta;
#X floatatom 493 135 5 0 0 0 - - -, f 5;
#X obj 493 184 change;
#X obj 493 210 sel 1;
#X obj 493 160 >= 0;
#X obj 489 72 r Channel-C;
#X obj 61 93 hsl 128 15 0 1 0 0 empty empty empty -2 -8 0 10 -262144
-1 -1 0 1;
#X floatatom 52 141 5 0 0 0 - - -, f 5;
#X obj 52 186 change;
#X obj 52 212 sel 1;
#X obj 52 162 >= 0;
#X obj 48 73 r Channel-A;
#X obj 790 76 hsl 128 15 0 1 0 0 empty empty empty -2 -8 0 10 -262144
-1 -1 0 1;
#N canvas 2168 250 450 300 delta 0;
#X obj 67 68 inlet;
#X obj 66 92 t f b;
#X obj 96 145 f;
#X obj 72 145 f;
#X obj 94 118 f;
#X obj 72 167 -;
#X obj 72 192 spigot 1;
#X msg 168 121 0;
#X obj 217 27 loadbang;
#X obj 217 53 f \$1;
#X obj 215 78 sel 2;
#X obj 227 204 t f b;
#X obj 257 257 f;
#X obj 233 257 f;
#X obj 255 230 f;
#X msg 223 116 1;
#X obj 186 163 spigot 0;
#X obj 232 282 -;
#X obj 74 338 outlet;
#X connect 0 0 1 0;
#X connect 1 0 4 1;
#X connect 1 0 3 0;
#X connect 1 1 4 0;
#X connect 2 0 5 1;
#X connect 3 0 5 0;
#X connect 4 0 2 0;
#X connect 5 0 6 0;
#X connect 5 0 16 0;
#X connect 6 0 18 0;
#X connect 7 0 6 1;
#X connect 8 0 9 0;
#X connect 9 0 10 0;
#X connect 10 0 7 0;
#X connect 10 0 15 0;
#X connect 11 0 14 1;
#X connect 11 0 13 0;
#X connect 11 1 14 0;
#X connect 12 0 17 1;
#X connect 13 0 17 0;
#X connect 14 0 12 0;
#X connect 15 0 16 1;
#X connect 16 0 11 0;
#X connect 17 0 18 0;
#X restore 713 116 pd delta;
#X floatatom 715 139 5 0 0 0 - - -, f 5;
#X obj 715 188 change;
#X obj 715 214 sel 1;
#X obj 715 164 >= 0;
#X obj 710 75 r Channel-D;
#X obj 1229 79 r Channel-Push;
#X msg 1229 135 1;
#X obj 1229 108 sel 1;
#X floatatom 203 159 5 0 1000 0 - - -, f 5;
#X obj 204 185 / 1000;
#X floatatom 161 159 5 0 1000 0 - - -, f 5;
#X obj 162 185 / 1000;
#X floatatom 344 185 5 0 1000 0 - - -, f 5;
#X obj 345 211 / 1000;
#X floatatom 302 185 5 0 1000 0 - - -, f 5;
#X obj 303 211 / 1000;
#X floatatom 576 141 5 0 1000 0 - - -, f 5;
#X obj 577 167 / 1000;
#X floatatom 534 141 5 0 1000 0 - - -, f 5;
#X obj 535 167 / 1000;
#X floatatom 817 193 5 0 1000 0 - - -, f 5;
#X obj 818 219 / 1000;
#X floatatom 781 194 5 0 1000 0 - - -, f 5;
#X obj 776 219 / 1000;
#X obj 166 133 f 1000;
#X obj 79 2 loadbang;
#X obj 309 161 f 181;
#X obj 334 143 f 161;
#X obj 544 117 f 225;
#X obj 592 116 f 280;
#X obj 774 172 f 365;
#X obj 824 165 f 246;
#X obj 1042 81 hsl 128 15 0 1 0 0 empty empty empty -2 -8 0 10 -262144
-1 -1 0 1;
#N canvas 2168 250 450 300 delta 0;
#X obj 67 68 inlet;
#X obj 66 92 t f b;
#X obj 96 145 f;
#X obj 72 145 f;
#X obj 94 118 f;
#X obj 72 167 -;
#X obj 72 192 spigot 1;
#X msg 168 121 0;
#X obj 217 27 loadbang;
#X obj 217 53 f \$1;
#X obj 215 78 sel 2;
#X obj 227 204 t f b;
#X obj 257 257 f;
#X obj 233 257 f;
#X obj 255 230 f;
#X msg 223 116 1;
#X obj 186 163 spigot 0;
#X obj 232 282 -;
#X obj 74 338 outlet;
#X connect 0 0 1 0;
#X connect 1 0 4 1;
#X connect 1 0 3 0;
#X connect 1 1 4 0;
#X connect 2 0 5 1;
#X connect 3 0 5 0;
#X connect 4 0 2 0;
#X connect 5 0 6 0;
#X connect 5 0 16 0;
#X connect 6 0 18 0;
#X connect 7 0 6 1;
#X connect 8 0 9 0;
#X connect 9 0 10 0;
#X connect 10 0 7 0;
#X connect 10 0 15 0;
#X connect 11 0 14 1;
#X connect 11 0 13 0;
#X connect 11 1 14 0;
#X connect 12 0 17 1;
#X connect 13 0 17 0;
#X connect 14 0 12 0;
#X connect 15 0 16 1;
#X connect 16 0 11 0;
#X connect 17 0 18 0;
#X restore 952 117 pd delta;
#X floatatom 954 140 5 0 0 0 - - -, f 5;
#X obj 954 189 change;
#X obj 954 215 sel 1;
#X obj 954 165 >= 0;
#X floatatom 1084 195 5 0 1000 0 - - -, f 5;
#X obj 1076 225 / 1000;
#X floatatom 1020 195 5 0 1000 0 - - -, f 5;
#X obj 1015 220 / 1000;
#X obj 1013 173 f 365;
#X obj 1075 167 f 246;
#X obj 949 76 r Channel-E;
#X obj 493 570 ctlin 61 12;
#X obj 494 596 * 8;
#X obj 159 225 ctlout 61;
#X obj 239 431 ctlout 62;
#X obj 389 376 ctlout 63;
#X obj 529 373 ctlout 64;
#X obj 641 372 ctlout 65;
#X obj 781 369 ctlout 66;
#N canvas 2445 43 785 755 akick2 1;
#X obj 378 305 line~;
#X msg 339 272 0 \$1;
#X obj 141 565 *~;
#X obj 351 345 *~;
#X obj 117 430 *~;
#X obj 132 529 osc~;
#X obj 102 487 +~;
#X msg 176 493 1;
#X obj 106 157 hsl 128 8 0 127 0 1 empty empty pam 134 5 0 8 -262144
-1 -1 4900 1;
#X obj 38 216 mtof;
#X obj 106 137 hsl 128 8 0 127 0 1 empty empty p 134 4 0 8 -262144
-1 -1 3900 1;
#X obj -1 216 mtof;
#X obj 106 111 hsl 128 8 10 800 0 1 empty empty dec 134 5 0 8 -262144
-1 -1 8800 1;
#X obj 305 202 +;
#X msg 292 138 0;
#X text 378 32 <-trigger/level in;
#X obj 339 239 float;
#X msg 388 243 \$1;
#X obj 376 130 t b f;
#X obj 106 170 hsl 128 8 1 5 0 1 empty empty dz 133 4 0 8 -262144 -1
-1 11700 1;
#X obj 106 180 hsl 128 8 0.1 0.8 0 1 empty empty chr 133 4 0 8 -262144
-1 -1 1900 1;
#X obj -64 781 /~;
#X obj -24 707 abs~;
#X obj 33 731 +~;
#X obj -57 675 *~;
#X text -139 719 distortion;
#X obj 341 381 *~;
#X obj 329 406 lop~ 400;
#X obj 106 147 hsl 128 8 10 800 0 1 empty empty pdc 134 5 0 8 -262144
-1 -1 3700 1;
#X obj 192 324 line~;
#X msg 180 296 0 \$1;
#X obj 177 232 +;
#X obj 180 263 float;
#X obj 186 349 *~;
#X obj 178 375 *~;
#X text 388 273 amp env;
#X msg 234 296 1;
#X text 225 273 pitch env;
#X obj 106 124 hsl 128 8 1 5 0 1 empty empty shp 133 4 0 8 -262144
-1 -1 4200 1;
#X obj 322 527 /~;
#X obj 313 465 *~;
#X text 364 518 env shape;
#X obj 367 490 +~ 1;
#X obj -64 806 dac~;
#X obj 288 51 r Channel-A;
#X obj 499 142 s Channel-A;
#X obj 480 86 hsl 128 15 0 1 0 0 empty empty empty -2 -8 0 10 -262144
-1 -1 7200 1;
#X floatatom 477 106 5 0 0 0 - - -, f 5;
#X connect 0 0 3 1;
#X connect 0 0 3 0;
#X connect 1 0 0 0;
#X connect 2 0 24 0;
#X connect 3 0 26 0;
#X connect 3 0 26 1;
#X connect 4 0 6 1;
#X connect 5 0 2 0;
#X connect 6 0 5 0;
#X connect 7 0 5 1;
#X connect 8 0 9 0;
#X connect 9 0 4 0;
#X connect 10 0 11 0;
#X connect 11 0 6 0;
#X connect 12 0 13 1;
#X connect 13 0 16 0;
#X connect 14 0 13 0;
#X connect 14 0 31 0;
#X connect 16 0 1 0;
#X connect 17 0 0 0;
#X connect 18 0 16 0;
#X connect 18 0 7 0;
#X connect 18 0 32 0;
#X connect 18 1 17 0;
#X connect 18 1 36 0;
#X connect 19 0 24 1;
#X connect 20 0 23 1;
#X connect 21 0 43 0;
#X connect 22 0 23 0;
#X connect 23 0 21 1;
#X connect 24 0 21 0;
#X connect 24 0 22 0;
#X connect 26 0 27 0;
#X connect 27 0 40 0;
#X connect 28 0 31 1;
#X connect 29 0 33 0;
#X connect 29 0 33 1;
#X connect 30 0 29 0;
#X connect 31 0 32 0;
#X connect 32 0 30 0;
#X connect 33 0 34 0;
#X connect 33 0 34 1;
#X connect 34 0 4 1;
#X connect 36 0 29 0;
#X connect 38 0 40 1;
#X connect 39 0 2 1;
#X connect 40 0 39 0;
#X connect 40 0 42 0;
#X connect 42 0 39 1;
#X connect 44 0 14 0;
#X connect 44 0 18 0;
#X connect 46 0 47 0;
#X connect 47 0 45 0;
#X coords 0 755 1 754 160 90 0;
#X restore 36 356 pd akick2;
#X msg 41 292 0.5;
#X msg 1230 279 0.8, f 4;
#N canvas 2528 663 663 509 kick 1;
#X obj 146 333 osc~;
#X msg 147 260 \$1 \, \$2 \$3;
#X obj 147 228 pack f f f;
#X obj 110 116 nbx 3 14 10 999 0 1 empty empty t -8 8 0 10 -262144
-1 -1 223 256;
#X obj 158 116 nbx 3 14 10 999 0 1 empty empty b -8 8 0 10 -262144
-1 -1 60 256;
#X obj 206 116 nbx 3 14 1 500 0 1 empty empty d -8 8 0 10 -262144 -1
-1 90 256;
#X obj 113 184 float;
#X obj 109 389 *~;
#X obj 83 349 *~;
#X obj 55 263 pack f f;
#X obj 113 137 hsl 128 8 0 1 0 1 empty empty d -10 5 0 10 -262144 -1
-1 8200 1;
#X obj 40 166 t f f;
#X obj 44 192 *;
#X obj 43 220 * 2000;
#X obj 37 22 inlet;
#X obj 108 431 outlet~;
#X obj 11 52 moses 0.0001;
#X obj 251 239 spigot 1;
#X obj 38 82 t f b b;
#X msg 276 209 0;
#X obj 287 179 delay;
#X msg 310 209 1;
#X msg 52 289 \$1 0.5 \, 0 \$2 1;
#X msg 244 270 0.25;
#X obj 147 300 hv.vline;
#X obj 64 319 hv.vline;
#X connect 0 0 7 1;
#X connect 1 0 24 0;
#X connect 2 0 1 0;
#X connect 3 0 6 1;
#X connect 4 0 2 1;
#X connect 5 0 2 2;
#X connect 6 0 2 0;
#X connect 7 0 15 0;
#X connect 8 0 7 0;
#X connect 9 0 22 0;
#X connect 10 0 11 0;
#X connect 11 0 12 0;
#X connect 11 1 12 1;
#X connect 12 0 13 0;
#X connect 13 0 9 1;
#X connect 13 0 20 1;
#X connect 14 0 16 0;
#X connect 16 1 18 0;
#X connect 17 0 23 0;
#X connect 18 0 9 0;
#X connect 18 1 6 0;
#X connect 18 1 19 0;
#X connect 18 1 20 0;
#X connect 18 2 17 0;
#X connect 19 0 17 1;
#X connect 20 0 21 0;
#X connect 21 0 17 1;
#X connect 22 0 25 0;
#X connect 23 0 0 1;
#X connect 24 0 0 0;
#X connect 25 0 8 1;
#X connect 25 0 8 0;
#X restore 378 475 pd kick;
#X msg 451 281 0.02;
#X obj 119 298 bng 15 250 50 0 empty empty empty 17 7 0 10 -262144
-1 -1;
#N canvas 2168 250 566 450 delta 0;
#X obj 67 68 inlet;
#X obj 66 92 t f b;
#X obj 96 145 f;
#X obj 72 145 f;
#X obj 94 118 f;
#X obj 72 167 -;
#X obj 72 192 spigot 1;
#X msg 168 121 0;
#X obj 217 27 loadbang;
#X obj 217 53 f \$1;
#X obj 215 78 sel 2;
#X obj 227 204 t f b;
#X obj 257 257 f;
#X obj 233 257 f;
#X obj 255 230 f;
#X msg 223 116 1;
#X obj 186 163 spigot 0;
#X obj 232 282 -;
#X obj 74 338 outlet;
#X connect 0 0 1 0;
#X connect 1 0 4 1;
#X connect 1 0 3 0;
#X connect 1 1 4 0;
#X connect 2 0 5 1;
#X connect 3 0 5 0;
#X connect 4 0 2 0;
#X connect 5 0 6 0;
#X connect 5 0 16 0;
#X connect 6 0 18 0;
#X connect 7 0 6 1;
#X connect 8 0 9 0;
#X connect 9 0 10 0;
#X connect 10 0 7 0;
#X connect 10 0 15 0;
#X connect 11 0 14 1;
#X connect 11 0 13 0;
#X connect 11 1 14 0;
#X connect 12 0 17 1;
#X connect 13 0 17 0;
#X connect 14 0 12 0;
#X connect 15 0 16 1;
#X connect 16 0 11 0;
#X connect 17 0 18 0;
#X restore 50 114 pd delta;
#X connect 1 0 0 0;
#X connect 2 0 4 0;
#X connect 2 0 72 0;
#X connect 3 0 4 0;
#X connect 4 0 5 0;
#X connect 5 0 8 0;
#X connect 6 0 7 0;
#X connect 7 0 1 0;
#X connect 8 0 6 0;
#X connect 9 0 10 0;
#X connect 10 0 11 0;
#X connect 11 0 14 0;
#X connect 12 0 13 0;
#X connect 13 0 81 0;
#X connect 14 0 12 0;
#X connect 15 0 10 0;
#X connect 15 0 73 0;
#X connect 16 0 83 0;
#X connect 17 0 20 0;
#X connect 18 0 19 0;
#X connect 19 0 78 0;
#X connect 19 0 82 0;
#X connect 20 0 18 0;
#X connect 21 0 83 0;
#X connect 21 0 71 0;
#X connect 22 0 23 0;
#X connect 23 0 24 0;
#X connect 24 0 27 0;
#X connect 25 0 26 0;
#X connect 27 0 25 0;
#X connect 28 0 23 0;
#X connect 28 0 74 0;
#X connect 29 0 31 0;
#X connect 29 0 76 0;
#X connect 30 0 79 0;
#X connect 31 0 30 0;
#X connect 32 0 33 0;
#X connect 34 0 35 0;
#X connect 36 0 37 0;
#X connect 37 0 1 2;
#X connect 38 0 39 0;
#X connect 39 0 1 1;
#X connect 40 0 41 0;
#X connect 42 0 43 0;
#X connect 44 0 45 0;
#X connect 46 0 47 0;
#X connect 48 0 35 0;
#X connect 48 0 33 0;
#X connect 49 0 48 0;
#X connect 49 0 51 0;
#X connect 49 0 50 0;
#X connect 49 0 53 0;
#X connect 49 0 52 0;
#X connect 49 0 54 0;
#X connect 49 0 55 0;
#X connect 50 0 39 0;
#X connect 51 0 39 0;
#X connect 52 0 43 0;
#X connect 53 0 41 0;
#X connect 54 0 47 0;
#X connect 55 0 45 0;
#X connect 56 0 57 0;
#X connect 57 0 58 0;
#X connect 58 0 61 0;
#X connect 59 0 60 0;
#X connect 61 0 59 0;
#X connect 62 0 63 0;
#X connect 64 0 65 0;
#X connect 66 0 65 0;
#X connect 67 0 63 0;
#X connect 68 0 57 0;
#X connect 68 0 75 0;
#X connect 69 0 70 0;
#X connect 80 0 0 0;
#X connect 81 0 80 0;
#X connect 83 0 17 0;
