#N canvas 2122 318 971 704 10;
#X obj 378 565 line~;
#X msg 339 532 0 \$1;
#X obj 141 825 *~;
#X obj 351 605 *~;
#X obj 117 690 *~;
#X obj 132 789 osc~;
#X obj 102 747 +~;
#X msg 176 753 1;
#X obj 106 417 hsl 128 8 0 127 0 1 empty empty pam 134 5 0 8 -262144
-1 -1 4900 1;
#X obj 38 476 mtof;
#X obj 106 397 hsl 128 8 0 127 0 1 empty empty p 134 4 0 8 -262144
-1 -1 3900 1;
#X obj -1 476 mtof;
#X obj 106 371 hsl 128 8 10 800 0 1 empty empty dec 134 5 0 8 -262144
-1 -1 8800 1;
#X obj 305 462 +;
#X msg 292 398 0;
#X text 378 292 <-trigger/level in;
#X obj 339 499 float;
#X msg 388 503 \$1;
#X obj 376 390 t b f;
#X obj 106 430 hsl 128 8 1 5 0 1 empty empty dz 133 4 0 8 -262144 -1
-1 11700 1;
#X obj 106 440 hsl 128 8 0.1 0.8 0 1 empty empty chr 133 4 0 8 -262144
-1 -1 1900 1;
#X obj -64 1041 /~;
#X obj -24 967 abs~;
#X obj 33 991 +~;
#X obj -57 935 *~;
#X text -139 979 distortion;
#X obj 341 641 *~;
#X obj 329 666 lop~ 400;
#X obj 106 407 hsl 128 8 10 800 0 1 empty empty pdc 134 5 0 8 -262144
-1 -1 3700 1;
#X obj 192 584 line~;
#X msg 180 556 0 \$1;
#X obj 177 492 +;
#X obj 180 523 float;
#X obj 186 609 *~;
#X obj 178 635 *~;
#X text 388 533 amp env;
#X msg 234 556 1;
#X text 225 533 pitch env;
#X obj 106 384 hsl 128 8 1 5 0 1 empty empty shp 133 4 0 8 -262144
-1 -1 4200 1;
#X obj 322 787 /~;
#X obj 313 725 *~;
#X text 364 778 env shape;
#X obj 367 750 +~ 1;
#X obj -64 1066 dac~;
#X obj 288 311 r Channel-A;
#X obj 499 402 s Channel-A;
#X obj 480 346 hsl 128 15 0 1 0 0 empty empty empty -2 -8 0 10 -262144
-1 -1 0 1;
#X floatatom 477 366 5 0 0 0 - - -, f 5;
#X connect 0 0 3 1;
#X connect 0 0 3 0;
#X connect 1 0 0 0;
#X connect 2 0 24 0;
#X connect 3 0 26 0;
#X connect 3 0 26 1;
#X connect 4 0 6 1;
#X connect 5 0 2 0;
#X connect 6 0 5 0;
#X connect 7 0 5 1;
#X connect 8 0 9 0;
#X connect 9 0 4 0;
#X connect 10 0 11 0;
#X connect 11 0 6 0;
#X connect 12 0 13 1;
#X connect 13 0 16 0;
#X connect 14 0 13 0;
#X connect 14 0 31 0;
#X connect 16 0 1 0;
#X connect 17 0 0 0;
#X connect 18 0 16 0;
#X connect 18 0 7 0;
#X connect 18 0 32 0;
#X connect 18 1 17 0;
#X connect 18 1 36 0;
#X connect 19 0 24 1;
#X connect 20 0 23 1;
#X connect 21 0 43 0;
#X connect 22 0 23 0;
#X connect 23 0 21 1;
#X connect 24 0 21 0;
#X connect 24 0 22 0;
#X connect 26 0 27 0;
#X connect 27 0 40 0;
#X connect 28 0 31 1;
#X connect 29 0 33 0;
#X connect 29 0 33 1;
#X connect 30 0 29 0;
#X connect 31 0 32 0;
#X connect 32 0 30 0;
#X connect 33 0 34 0;
#X connect 33 0 34 1;
#X connect 34 0 4 1;
#X connect 36 0 29 0;
#X connect 38 0 40 1;
#X connect 39 0 2 1;
#X connect 40 0 39 0;
#X connect 40 0 42 0;
#X connect 42 0 39 1;
#X connect 44 0 14 0;
#X connect 44 0 18 0;
#X connect 46 0 47 0;
#X connect 47 0 45 0;
