#N canvas 171 23 1098 794 10;
#X obj 51 -314 midicontrollerrouter;
#X obj 684 76 numbercruncher;
#X obj 724 52 f 0;
#X obj 765 52 f 127;
#X obj 65 161 + 300;
#X obj 65 131 * 5;
#X obj 347 246 * 1;
#X obj 563 243 * 1;
#X obj 777 245 * 1;
#X obj 135 239 * 1;
#X obj 135 198 hradio 15 1 0 4 empty empty empty 0 -6 0 10 -262144
-1 -1 0;
#X obj 136 217 + 1;
#X obj 346 205 hradio 15 1 0 4 empty empty empty 0 -6 0 10 -262144
-1 -1 0;
#X obj 347 224 + 1;
#X obj 562 202 hradio 15 1 0 4 empty empty empty 0 -6 0 10 -262144
-1 -1 0;
#X obj 563 221 + 1;
#X obj 779 205 hradio 15 1 0 4 empty empty empty 0 -6 0 10 -262144
-1 -1 0;
#X obj 778 224 + 1;
#X obj 353 462 NoteUpDown 12;
#X obj 47 269 CA_controller looper;
#X obj 259 270 CA_controller looper2;
#X obj 471 271 CA_controller looper3;
#X obj 681 272 CA_controller looper4;
#X obj 103 535 NoteShift;
#X obj 64 194 s rate;
#X floatatom 50 513 5 0 0 0 - - -, f 5;
#X obj 219 546 tritary 14;
#X obj 46 683 basicrawMIDIout 16;
#X obj 77 440 basicrawMIDIout 12;
#X obj 351 -208 vsl 15 128 0 127 0 0 empty empty empty 0 -9 0 10 -262144
-1 -1 0 1;
#X obj 348 -55 ctlout 1;
#X obj 277 444 basicrawMIDIout 11;
#X connect 0 0 19 0;
#X connect 0 0 11 1;
#X connect 0 1 5 0;
#X connect 0 2 19 2;
#X connect 0 3 18 3;
#X connect 0 4 18 0;
#X connect 0 5 20 2;
#X connect 0 6 21 0;
#X connect 0 8 21 2;
#X connect 0 9 22 0;
#X connect 0 11 22 2;
#X connect 2 0 1 1;
#X connect 3 0 1 2;
#X connect 4 0 9 0;
#X connect 4 0 6 0;
#X connect 4 0 7 0;
#X connect 4 0 8 0;
#X connect 4 0 24 0;
#X connect 5 0 4 0;
#X connect 6 0 20 1;
#X connect 7 0 21 1;
#X connect 8 0 22 1;
#X connect 9 0 19 1;
#X connect 10 0 11 0;
#X connect 11 0 9 1;
#X connect 12 0 13 0;
#X connect 13 0 6 1;
#X connect 14 0 15 0;
#X connect 15 0 7 1;
#X connect 16 0 17 0;
#X connect 17 0 8 1;
#X connect 19 0 25 0;
#X connect 19 0 28 0;
#X connect 20 0 31 0;
#X connect 20 1 18 4;
#X connect 29 0 30 0;
