#N canvas 2242 401 581 415 12;
#X obj 623 472 midiout;
#X obj 623 472 midiout;
#X obj 115 75 select 1;
#X obj 150 254 makenote 64 50;
#X obj 201 57 inlet;
#X floatatom 150 133 0 0 0 0 - - -;
#X obj 309 259 makenote 64 50;
#X obj 312 284 noteout \$1;
#X obj 158 288 noteout \$1;
#X floatatom 103 135 5 0 0 0 - - -, f 5;
#X obj 164 116 bng 15 250 50 0 empty empty empty 17 7 0 10 -262144
-1 -1;
#X obj 102 119 bng 15 250 50 0 empty empty empty 17 7 0 10 -262144
-1 -1;
#X connect 2 0 11 0;
#X connect 2 1 10 0;
#X connect 3 0 8 0;
#X connect 3 1 8 1;
#X connect 4 0 2 0;
#X connect 5 0 6 0;
#X connect 6 0 7 0;
#X connect 6 1 7 1;
#X connect 9 0 3 0;
#X connect 10 0 5 0;
#X connect 11 0 9 0;
#X coords 0 -1 1 1 80 60 1 100 100;
