#N canvas 721 244 978 575 10;
#X obj 70 276 hv.vline;
#X obj 76 327 dac~;
#X obj 31 23 r Channel-Push;
#X obj 292 39 hsl 128 15 0 1 0 0 empty empty divider_L -2 -8 0 10 -262144
-1 -1 0 1;
#X obj 303 64 r Channel-A;
#X text 303 304 unaltered clock;
#X obj 67 123 f 0;
#X floatatom 13 254 5 0 0 0 - - -, f 5;
#X obj 293 115 int;
#X obj 308 140 select 0 1 2 3 4 5 6 7;
#X obj 293 90 * 7;
#X obj 288 172 f 1;
#X obj 319 173 f 2;
#X obj 345 171 f 3;
#X obj 375 171 f 4;
#X obj 405 171 f 8;
#X obj 433 172 f 16;
#X obj 468 172 f 32;
#X obj 506 172 f 64;
#X obj 304 286 s Channel-Push;
#X obj 157 275 hv.vline;
#X msg 157 239 1 0 \, 0 0 10;
#X msg 70 239 1 0 \, 0 0 15;
#X obj 32 70 bng 15 250 50 0 empty empty empty 17 7 0 10 -262144 -1
-1;
#X obj 150 123 mod 0;
#X floatatom 208 172 5 0 0 0 - - -, f 5;
#X msg 79 76 0;
#X obj 117 122 + 1;
#X obj 155 193 sel 0;
#X obj 304 263 bng 15 250 50 0 empty empty empty 17 7 0 10 -262144
-1 -1;
#X connect 0 0 1 0;
#X connect 2 0 23 0;
#X connect 3 0 10 0;
#X connect 4 0 10 0;
#X connect 6 0 24 0;
#X connect 6 0 27 0;
#X connect 6 0 7 0;
#X connect 8 0 9 0;
#X connect 9 0 11 0;
#X connect 9 1 12 0;
#X connect 9 2 13 0;
#X connect 9 3 14 0;
#X connect 9 4 15 0;
#X connect 9 5 16 0;
#X connect 9 6 17 0;
#X connect 9 7 18 0;
#X connect 10 0 8 0;
#X connect 11 0 24 1;
#X connect 12 0 24 1;
#X connect 13 0 24 1;
#X connect 14 0 24 1;
#X connect 15 0 24 1;
#X connect 16 0 24 1;
#X connect 17 0 24 1;
#X connect 18 0 24 1;
#X connect 20 0 1 1;
#X connect 21 0 20 0;
#X connect 22 0 0 0;
#X connect 23 0 6 0;
#X connect 24 0 25 0;
#X connect 24 0 28 0;
#X connect 26 0 6 1;
#X connect 27 0 6 1;
#X connect 28 0 22 0;
#X connect 28 0 21 0;
#X connect 29 0 19 0;
