#N canvas 1693 23 1495 885 10;
#X obj 524 403 r Channel-Push;
#X obj 524 433 sel 1;
#N canvas 627 302 729 489 audiotrig 0;
#X obj 390 128 env~;
#X obj 389 200 sel 1;
#X obj 456 339 spigot;
#X obj 392 238 t b b;
#X msg 427 299 0;
#X obj 469 263 t b;
#X msg 494 296 1;
#X obj 358 74 inlet~;
#X obj 452 367 outlet;
#X obj 388 167 > 90;
#X connect 0 0 9 0;
#X connect 1 0 3 0;
#X connect 1 1 5 0;
#X connect 2 0 8 0;
#X connect 3 0 4 0;
#X connect 3 1 2 0;
#X connect 4 0 2 1;
#X connect 5 0 6 0;
#X connect 6 0 2 1;
#X connect 7 0 0 0;
#X connect 9 0 1 0;
#X restore 57 251 pd audiotrig;
#N canvas 2081 143 803 625 audiotrig 0;
#X obj 390 128 env~;
#X obj 389 200 sel 1;
#X obj 392 238 t b b;
#X msg 398 295 0;
#X obj 431 238 t b;
#X msg 430 294 1;
#X obj 358 74 inlet~;
#X obj 319 389 outlet;
#X obj 426 383 outlet;
#X obj 388 167 > 90;
#X connect 0 0 9 0;
#X connect 1 0 2 0;
#X connect 1 1 4 0;
#X connect 2 0 3 0;
#X connect 2 1 7 0;
#X connect 3 0 8 0;
#X connect 4 0 5 0;
#X connect 6 0 0 0;
#X connect 9 0 1 0;
#X restore 59 447 pd audiotrig;
#X obj 808 226 r Channel-D;
#X msg 65 293 0.1;
#X msg 66 526 0.2;
#X obj 329 610 s CV_F @hv_param;
#X text 375 132 CV/gate input to midi CC as noteout is not supported
atm 1 CC msg for trig on \, one for trig off;
#X obj 57 407 adc~ 2;
#X obj 423 230 r Channel-B;
#X obj 107 293 delay 10;
#X msg 108 314 0.12;
#X msg 108 526 0.22;
#X msg 423 301 0.4;
#X msg 473 301 0.42;
#X msg 694 304 0.5;
#X msg 732 304 0.52;
#X msg 805 297 0.6;
#X msg 855 297 0.62;
#X msg 402 466 0.7;
#X msg 452 466 0.72;
#X msg 524 462 0.8;
#X msg 554 463 0.82;
#X obj 253 219 r Channel-A;
#X obj 255 246 change;
#X obj 255 269 sel 0;
#X msg 253 299 0.3;
#X msg 306 298 0.32;
#X obj 58 226 adc~ 1, f 7;
#X obj 423 275 sel 0;
#X obj 423 253 change;
#X obj 403 402 r Channel-E;
#X obj 402 444 sel 0;
#X obj 403 424 change;
#X obj 693 279 sel 0;
#X obj 694 255 change;
#X obj 693 229 r Channel-C;
#X obj 807 274 sel 0;
#X obj 806 251 change;
#X msg 703 620 10 200;
#X msg 763 642 del 200;
#X msg 763 617 stop;
#X obj 724 575 bng 15 250 50 0 empty empty empty 17 7 0 10 -262144
-1 -1;
#X obj 772 576 bng 15 250 50 0 empty empty empty 17 7 0 10 -262144
-1 -1;
#X msg 820 641 0 500;
#X obj 715 696 line~;
#X obj 683 726 *~;
#X obj 684 774 dac~;
#X obj 635 660 osc~ 440;
#X obj 821 618 delay 100;
#X obj 961 487 bng 15 250 50 0 empty empty empty 17 7 0 10 -262144
-1 -1;
#X obj 965 662 *~;
#X obj 965 631 osc~;
#X msg 1026 574 0.5;
#X msg 962 534 180 10 \, 50 20 50 \, 0 50 30;
#X msg 1074 574 0.7 5 \, 0 20 50;
#X obj 1080 606 hv.vline;
#X obj 960 573 hv.vline;
#X obj 1206 403 bng 15 250 50 0 empty empty empty 17 7 0 10 -262144
-1 -1;
#X obj 1212 636 *~;
#X obj 1210 547 osc~;
#X msg 1271 490 0.5;
#X msg 1207 450 180 10 \, 50 20 50 \, 0 50 30;
#X msg 1319 490 0.7 5 \, 0 20 50;
#X obj 1325 522 hv.vline;
#X obj 1205 489 hv.vline;
#X obj 1253 548 phasor~;
#X obj 1221 584 *~;
#X obj 1271 242 noise~;
#X obj 1407 369 *~;
#X obj 1433 332 *~;
#X obj 1337 244 bp~ \$1 1;
#X obj 1357 216 line;
#X msg 1358 187 5000 \, 100 60;
#X obj 1350 289 lop~;
#X obj 1399 262 line;
#X msg 1439 260 1 0.5 \, 0.5 10 0.5 \, 0 50 50;
#X msg 1400 233 5000 \, 500 30;
#X obj 1268 215 line;
#X msg 1269 186 1000 \, 1 10;
#X obj 1289 137 bng 15 250 50 0 empty empty empty 17 7 0 10 -262144
-1 -1;
#X obj 1438 295 hv.vline;
#X obj 967 738 bng 15 250 50 0 empty empty empty 17 7 0 10 -262144
-1 -1;
#X obj 971 913 *~;
#X obj 971 882 osc~;
#X msg 1032 825 0.5;
#X msg 1080 825 0.7 5 \, 0 20 50;
#X obj 1086 857 hv.vline;
#X obj 966 824 hv.vline;
#X msg 968 785 230 10 \, 50 20 50 \, 0 50 30;
#X obj 1243 670 bng 15 250 50 0 empty empty empty 17 7 0 10 -262144
-1 -1;
#X obj 1249 903 *~;
#X obj 1247 814 osc~;
#X msg 1308 757 0.5;
#X msg 1356 757 0.7 5 \, 0 20 50;
#X obj 1362 789 hv.vline;
#X obj 1242 756 hv.vline;
#X obj 1290 815 phasor~;
#X obj 1258 851 *~;
#X msg 1244 717 280 10 \, 50 20 50 \, 0 50 30;
#X connect 0 0 1 0;
#X connect 1 0 22 0;
#X connect 1 1 23 0;
#X connect 2 0 5 0;
#X connect 3 0 6 0;
#X connect 3 1 13 0;
#X connect 4 0 39 0;
#X connect 5 0 7 0;
#X connect 5 0 11 0;
#X connect 5 0 83 0;
#X connect 6 0 7 0;
#X connect 9 0 3 0;
#X connect 10 0 31 0;
#X connect 11 0 12 0;
#X connect 12 0 7 0;
#X connect 13 0 7 0;
#X connect 14 0 7 0;
#X connect 14 0 51 0;
#X connect 15 0 7 0;
#X connect 16 0 7 0;
#X connect 16 0 59 0;
#X connect 17 0 7 0;
#X connect 18 0 7 0;
#X connect 18 0 81 0;
#X connect 19 0 7 0;
#X connect 20 0 91 0;
#X connect 22 0 7 0;
#X connect 23 0 7 0;
#X connect 24 0 25 0;
#X connect 25 0 26 0;
#X connect 26 0 27 0;
#X connect 26 1 28 0;
#X connect 27 0 7 0;
#X connect 27 0 43 0;
#X connect 28 0 7 0;
#X connect 28 0 44 0;
#X connect 29 0 2 0;
#X connect 30 0 14 0;
#X connect 30 1 15 0;
#X connect 31 0 30 0;
#X connect 32 0 34 0;
#X connect 33 0 20 0;
#X connect 33 1 21 0;
#X connect 34 0 33 0;
#X connect 35 0 16 0;
#X connect 35 1 17 0;
#X connect 36 0 35 0;
#X connect 37 0 36 0;
#X connect 38 0 18 0;
#X connect 38 1 19 0;
#X connect 39 0 38 0;
#X connect 40 0 46 0;
#X connect 40 0 50 0;
#X connect 41 0 46 0;
#X connect 42 0 41 0;
#X connect 43 0 40 0;
#X connect 43 0 41 0;
#X connect 44 0 42 0;
#X connect 44 0 45 0;
#X connect 45 0 46 0;
#X connect 46 0 47 1;
#X connect 47 0 48 0;
#X connect 47 0 48 1;
#X connect 49 0 47 0;
#X connect 50 0 44 0;
#X connect 51 0 55 0;
#X connect 51 0 54 0;
#X connect 51 0 56 0;
#X connect 52 0 48 0;
#X connect 52 0 48 1;
#X connect 53 0 52 0;
#X connect 54 0 53 1;
#X connect 55 0 58 0;
#X connect 56 0 57 0;
#X connect 57 0 52 1;
#X connect 58 0 53 0;
#X connect 59 0 63 0;
#X connect 59 0 62 0;
#X connect 59 0 64 0;
#X connect 60 0 48 1;
#X connect 60 0 48 0;
#X connect 61 0 68 0;
#X connect 62 0 61 1;
#X connect 63 0 66 0;
#X connect 64 0 65 0;
#X connect 65 0 60 1;
#X connect 66 0 61 0;
#X connect 66 0 67 0;
#X connect 67 0 68 1;
#X connect 68 0 60 0;
#X connect 69 0 72 0;
#X connect 70 0 48 0;
#X connect 70 0 48 1;
#X connect 71 0 70 1;
#X connect 72 0 75 0;
#X connect 73 0 72 1;
#X connect 74 0 73 0;
#X connect 75 0 70 0;
#X connect 76 0 75 1;
#X connect 77 0 82 0;
#X connect 78 0 76 0;
#X connect 79 0 69 0;
#X connect 80 0 79 0;
#X connect 81 0 80 0;
#X connect 81 0 74 0;
#X connect 81 0 78 0;
#X connect 81 0 77 0;
#X connect 82 0 71 0;
#X connect 82 0 71 1;
#X connect 83 0 90 0;
#X connect 83 0 86 0;
#X connect 83 0 87 0;
#X connect 84 0 48 0;
#X connect 84 0 48 1;
#X connect 85 0 84 0;
#X connect 86 0 85 1;
#X connect 87 0 88 0;
#X connect 88 0 84 1;
#X connect 89 0 85 0;
#X connect 90 0 89 0;
#X connect 91 0 100 0;
#X connect 91 0 94 0;
#X connect 91 0 95 0;
#X connect 92 0 48 0;
#X connect 92 0 48 1;
#X connect 93 0 99 0;
#X connect 94 0 93 1;
#X connect 95 0 96 0;
#X connect 96 0 92 1;
#X connect 97 0 93 0;
#X connect 97 0 98 0;
#X connect 98 0 99 1;
#X connect 99 0 92 0;
#X connect 100 0 97 0;
