#N canvas 1926 135 1286 688 10;
#X obj 56 315 adc~;
#X obj 812 314 r Channel-Push;
#X obj 299 252 r Channel-A;
#X obj 944 595 dac~;
#X obj 1009 144 r Channel-B;
#X obj 814 352 sel 1;
#N canvas 627 302 450 300 audiotrig 0;
#X obj 390 128 env~;
#X obj 389 200 sel 1;
#X obj 456 339 spigot;
#X obj 392 238 t b b;
#X msg 427 299 0;
#X obj 469 263 t b;
#X msg 494 296 1;
#X obj 388 167 > 98;
#X obj 358 74 inlet~;
#X obj 452 367 outlet;
#X connect 0 0 7 0;
#X connect 1 0 3 0;
#X connect 1 1 5 0;
#X connect 2 0 9 0;
#X connect 3 0 4 0;
#X connect 3 1 2 0;
#X connect 4 0 2 1;
#X connect 5 0 6 0;
#X connect 6 0 2 1;
#X connect 7 0 1 0;
#X connect 8 0 0 0;
#X restore 49 355 pd audiotrig;
#N canvas 627 302 450 300 audiotrig 0;
#X obj 390 128 env~;
#X obj 389 200 sel 1;
#X obj 456 339 spigot;
#X obj 392 238 t b b;
#X msg 427 299 0;
#X obj 469 263 t b;
#X msg 494 296 1;
#X obj 388 167 > 98;
#X obj 358 74 inlet~;
#X obj 452 367 outlet;
#X connect 0 0 7 0;
#X connect 1 0 3 0;
#X connect 1 1 5 0;
#X connect 2 0 9 0;
#X connect 3 0 4 0;
#X connect 3 1 2 0;
#X connect 4 0 2 1;
#X connect 5 0 6 0;
#X connect 6 0 2 1;
#X connect 7 0 1 0;
#X connect 8 0 0 0;
#X restore 157 346 pd audiotrig;
#X obj 505 307 r Channel-C;
#X obj 609 307 r Channel-D;
#X obj 709 313 r Channel-E;
#X text 592 270 CV/gate tester based on patch by twitter.com/manwithfeathers
;
#X msg 50 428 0.1;
#X msg 163 426 0.2;
#X msg 275 431 0.3;
#X msg 608 365 0.6, f 4;
#X msg 710 432 0.7;
#X msg 817 464 0.8;
#X obj 815 420 change;
#X msg 843 382 0;
#X msg 814 381 1;
#X obj 385 162 hsl 128 15 0 1 0 0 empty empty empty -2 -8 0 10 -262144
-1 -1 0 1;
#X msg 835 239 1;
#X msg 885 243 0;
#X msg 152 179 127;
#X msg 256 180 127;
#X obj 223 235 ctlout 23;
#X msg 97 177 0;
#X obj 119 234 ctlout 67;
#X msg 154 92 127;
#X msg 99 90 0;
#X obj 125 147 ctlout 26;
#X obj 498 354 change;
#X obj 239 373 change;
#X obj 171 387 change;
#X obj 707 397 change;
#N canvas 736 229 450 300 cvtrig 0;
#X obj 123 105 sel 1;
#X obj 119 201 spigot;
#X obj 125 132 t b b;
#X msg 164 160 0;
#X obj 171 131 t b;
#X msg 203 163 1;
#X obj 126 71 > 0.9;
#X obj 129 45 inlet;
#X obj 116 235 outlet;
#X connect 0 0 2 0;
#X connect 0 1 4 0;
#X connect 1 0 8 0;
#X connect 2 0 3 0;
#X connect 2 1 1 0;
#X connect 3 0 1 1;
#X connect 4 0 5 0;
#X connect 5 0 1 1;
#X connect 6 0 0 0;
#X connect 7 0 6 0;
#X restore 252 291 pd cvtrig;
#X obj 300 327 tgl 15 0 empty empty empty 17 7 0 10 -262144 -1 -1 0
1;
#X floatatom 348 451 5 0 0 0 - - -, f 5;
#X obj 298 354 sel 1;
#X obj 317 388 bng 15 250 50 0 empty empty empty 17 7 0 10 -262144
-1 -1;
#X obj 286 387 bng 15 250 50 0 empty empty empty 17 7 0 10 -262144
-1 -1;
#X obj 320 493 f 0.3;
#X obj 506 409 f 0.5;
#X obj 645 365 pipe 10;
#X obj 329 610 s CV_F @hv_param;
#N canvas 736 229 450 300 cvtrig 0;
#X obj 123 105 sel 1;
#X obj 119 201 spigot;
#X obj 125 132 t b b;
#X msg 164 160 0;
#X obj 171 131 t b;
#X msg 203 163 1;
#X obj 126 71 > 0.9;
#X obj 129 45 inlet;
#X obj 116 235 outlet;
#X connect 0 0 2 0;
#X connect 0 1 4 0;
#X connect 1 0 8 0;
#X connect 2 0 3 0;
#X connect 2 1 1 0;
#X connect 3 0 1 1;
#X connect 4 0 5 0;
#X connect 5 0 1 1;
#X connect 6 0 0 0;
#X connect 7 0 6 0;
#X restore 593 342 pd cvtrig;
#X msg 645 389 set 1;
#X obj 607 415 change 1;
#N canvas 736 229 450 300 cvtrig 0;
#X obj 123 105 sel 1;
#X obj 119 201 spigot;
#X obj 125 132 t b b;
#X msg 164 160 0;
#X obj 171 131 t b;
#X msg 203 163 1;
#X obj 126 71 > 0.9;
#X obj 129 45 inlet;
#X obj 116 235 outlet;
#X connect 0 0 2 0;
#X connect 0 1 4 0;
#X connect 1 0 8 0;
#X connect 2 0 3 0;
#X connect 2 1 1 0;
#X connect 3 0 1 1;
#X connect 4 0 5 0;
#X connect 5 0 1 1;
#X connect 6 0 0 0;
#X connect 7 0 6 0;
#X restore 406 356 pd cvtrig;
#X obj 398 404 f 0.4;
#X obj 425 294 change;
#X msg 306 426 0.35;
#X floatatom 1015 287 5 0 0 0 - - -, f 5;
#X obj 1015 332 change;
#X obj 1015 358 sel 1;
#X obj 1015 308 >= 0;
#N canvas 2168 250 566 450 delta 0;
#X obj 67 68 inlet;
#X obj 66 92 t f b;
#X obj 96 145 f;
#X obj 72 145 f;
#X obj 94 118 f;
#X obj 72 167 -;
#X obj 72 192 spigot 1;
#X msg 168 121 0;
#X obj 217 27 loadbang;
#X obj 217 53 f \$1;
#X obj 215 78 sel 2;
#X obj 227 204 t f b;
#X obj 257 257 f;
#X obj 233 257 f;
#X obj 255 230 f;
#X msg 223 116 1;
#X obj 186 163 spigot 0;
#X obj 232 282 -;
#X obj 74 338 outlet;
#X connect 0 0 1 0;
#X connect 1 0 4 1;
#X connect 1 0 3 0;
#X connect 1 1 4 0;
#X connect 2 0 5 1;
#X connect 3 0 5 0;
#X connect 4 0 2 0;
#X connect 5 0 6 0;
#X connect 5 0 16 0;
#X connect 6 0 18 0;
#X connect 7 0 6 1;
#X connect 8 0 9 0;
#X connect 9 0 10 0;
#X connect 10 0 7 0;
#X connect 10 0 15 0;
#X connect 11 0 14 1;
#X connect 11 0 13 0;
#X connect 11 1 14 0;
#X connect 12 0 17 1;
#X connect 13 0 17 0;
#X connect 14 0 12 0;
#X connect 15 0 16 1;
#X connect 16 0 11 0;
#X connect 17 0 18 0;
#X restore 1013 260 pd delta;
#X obj 1010 402 bng 15 250 50 0 empty empty empty 17 7 0 10 -262144
-1 -1;
#X obj 1038 402 bng 15 250 50 0 empty empty empty 17 7 0 10 -262144
-1 -1;
#X msg 1003 435 0.56;
#X msg 1053 435 0.57;
#X obj 747 628 s __hv_noteout @hv_param;
#X obj 793 588 pack f f f;
#X msg 839 542 127;
#X msg 873 541 0;
#X msg 794 561 15;
#X connect 0 0 6 0;
#X connect 0 1 7 0;
#X connect 1 0 5 0;
#X connect 2 0 36 0;
#X connect 4 0 57 0;
#X connect 5 0 20 0;
#X connect 5 1 19 0;
#X connect 6 0 12 0;
#X connect 7 0 34 0;
#X connect 7 0 13 0;
#X connect 8 0 32 0;
#X connect 9 0 46 0;
#X connect 12 0 45 0;
#X connect 13 0 45 0;
#X connect 14 0 45 0;
#X connect 15 0 48 0;
#X connect 16 0 45 0;
#X connect 17 0 45 0;
#X connect 18 0 17 0;
#X connect 19 0 18 0;
#X connect 20 0 18 0;
#X connect 21 0 36 0;
#X connect 21 0 49 0;
#X connect 21 0 57 0;
#X connect 22 0 5 0;
#X connect 23 0 5 0;
#X connect 24 0 28 0;
#X connect 25 0 26 0;
#X connect 27 0 28 0;
#X connect 29 0 31 0;
#X connect 30 0 31 0;
#X connect 32 0 43 0;
#X connect 35 0 16 0;
#X connect 36 0 37 0;
#X connect 37 0 39 0;
#X connect 39 0 41 0;
#X connect 39 1 40 0;
#X connect 39 1 38 0;
#X connect 40 0 52 0;
#X connect 41 0 14 0;
#X connect 43 0 45 0;
#X connect 44 0 47 0;
#X connect 46 0 15 0;
#X connect 46 0 44 0;
#X connect 47 0 48 0;
#X connect 48 0 45 0;
#X connect 49 0 50 0;
#X connect 50 0 45 0;
#X connect 51 0 49 0;
#X connect 52 0 45 0;
#X connect 53 0 56 0;
#X connect 54 0 55 0;
#X connect 55 0 58 0;
#X connect 55 1 59 0;
#X connect 56 0 54 0;
#X connect 57 0 53 0;
#X connect 58 0 60 0;
#X connect 59 0 61 0;
#X connect 60 0 45 0;
#X connect 60 0 64 0;
#X connect 60 0 66 0;
#X connect 61 0 45 0;
#X connect 61 0 65 0;
#X connect 61 0 66 0;
#X connect 63 0 62 0;
#X connect 64 0 63 1;
#X connect 65 0 63 1;
#X connect 66 0 63 0;
