#N canvas 1921 216 1286 688 10;
#X obj 56 315 adc~;
#X obj 812 314 r Channel-Push;
#X obj 299 252 r Channel-A;
#X obj 944 595 dac~;
#X obj 427 245 r Channel-B;
#X obj 814 352 sel 1;
#N canvas 627 302 450 300 audiotrig 0;
#X obj 390 128 env~;
#X obj 389 200 sel 1;
#X obj 456 339 spigot;
#X obj 392 238 t b b;
#X msg 427 299 0;
#X obj 469 263 t b;
#X msg 494 296 1;
#X obj 388 167 > 98;
#X obj 358 74 inlet~;
#X obj 452 367 outlet;
#X connect 0 0 7 0;
#X connect 1 0 3 0;
#X connect 1 1 5 0;
#X connect 2 0 9 0;
#X connect 3 0 4 0;
#X connect 3 1 2 0;
#X connect 4 0 2 1;
#X connect 5 0 6 0;
#X connect 6 0 2 1;
#X connect 7 0 1 0;
#X connect 8 0 0 0;
#X restore 49 355 pd audiotrig;
#N canvas 627 302 450 300 audiotrig 0;
#X obj 390 128 env~;
#X obj 389 200 sel 1;
#X obj 456 339 spigot;
#X obj 392 238 t b b;
#X msg 427 299 0;
#X obj 469 263 t b;
#X msg 494 296 1;
#X obj 388 167 > 98;
#X obj 358 74 inlet~;
#X obj 452 367 outlet;
#X connect 0 0 7 0;
#X connect 1 0 3 0;
#X connect 1 1 5 0;
#X connect 2 0 9 0;
#X connect 3 0 4 0;
#X connect 3 1 2 0;
#X connect 4 0 2 1;
#X connect 5 0 6 0;
#X connect 6 0 2 1;
#X connect 7 0 1 0;
#X connect 8 0 0 0;
#X restore 157 346 pd audiotrig;
#X obj 505 307 r Channel-C;
#X obj 609 307 r Channel-D;
#X obj 709 313 r Channel-E;
#X text 592 270 CV/gate tester based on patch by twitter.com/manwithfeathers
;
#X msg 50 428 0.1;
#X msg 163 426 0.2;
#X msg 283 502 0.3;
#X msg 385 404 0.4;
#X msg 608 365 0.6, f 4;
#X msg 710 432 0.7;
#X msg 817 464 0.8;
#X obj 815 420 change;
#X msg 843 382 0;
#X msg 814 381 1;
#X obj 385 162 hsl 128 15 0 1 0 0 empty empty empty -2 -8 0 10 -262144
-1 -1 12700 1;
#X msg 835 239 1;
#X msg 885 243 0;
#X msg 152 179 127;
#X msg 256 180 127;
#X obj 223 235 ctlout 23;
#X msg 97 177 0;
#X obj 119 234 ctlout 67;
#X msg 154 92 127;
#X msg 99 90 0;
#X obj 125 147 ctlout 26;
#X obj 498 354 change;
#X obj 386 349 change;
#X obj 239 373 change;
#X obj 171 387 change;
#X obj 707 397 change;
#X obj 557 637 print change;
#N canvas 736 229 450 300 cvtrig 0;
#X obj 123 105 sel 1;
#X obj 119 201 spigot;
#X obj 125 132 t b b;
#X msg 164 160 0;
#X obj 171 131 t b;
#X msg 203 163 1;
#X obj 126 71 > 0.9;
#X obj 129 45 inlet;
#X obj 116 235 outlet;
#X connect 0 0 2 0;
#X connect 0 1 4 0;
#X connect 1 0 8 0;
#X connect 2 0 3 0;
#X connect 2 1 1 0;
#X connect 3 0 1 1;
#X connect 4 0 5 0;
#X connect 5 0 1 1;
#X connect 6 0 0 0;
#X connect 7 0 6 0;
#X restore 252 291 pd cvtrig;
#X obj 300 327 tgl 15 0 empty empty empty 17 7 0 10 -262144 -1 -1 0
1;
#X floatatom 348 451 5 0 0 0 - - -, f 5;
#X obj 298 354 sel 1;
#X obj 317 388 bng 15 250 50 0 empty empty empty 17 7 0 10 -262144
-1 -1;
#X obj 286 387 bng 15 250 50 0 empty empty empty 17 7 0 10 -262144
-1 -1;
#X obj 320 493 f 0.3;
#X obj 506 409 f 0.5;
#X obj 329 679 s CV_F @hv_param;
#X obj 645 365 pipe 10;
#X obj 329 610 s CV_F @hv_param;
#N canvas 736 229 450 300 cvtrig 0;
#X obj 123 105 sel 1;
#X obj 119 201 spigot;
#X obj 125 132 t b b;
#X msg 164 160 0;
#X obj 171 131 t b;
#X msg 203 163 1;
#X obj 126 71 > 0.9;
#X obj 129 45 inlet;
#X obj 116 235 outlet;
#X connect 0 0 2 0;
#X connect 0 1 4 0;
#X connect 1 0 8 0;
#X connect 2 0 3 0;
#X connect 2 1 1 0;
#X connect 3 0 1 1;
#X connect 4 0 5 0;
#X connect 5 0 1 1;
#X connect 6 0 0 0;
#X connect 7 0 6 0;
#X restore 608 336 pd cvtrig;
#X msg 645 389 set 1;
#X obj 607 415 change 1;
#X connect 0 0 6 0;
#X connect 0 1 7 0;
#X connect 1 0 5 0;
#X connect 2 0 39 0;
#X connect 4 0 34 0;
#X connect 5 0 21 0;
#X connect 5 1 20 0;
#X connect 6 0 12 0;
#X connect 7 0 36 0;
#X connect 7 0 13 0;
#X connect 8 0 33 0;
#X connect 9 0 50 0;
#X connect 12 0 49 0;
#X connect 13 0 49 0;
#X connect 14 0 49 0;
#X connect 15 0 49 0;
#X connect 16 0 52 0;
#X connect 17 0 49 0;
#X connect 18 0 49 0;
#X connect 19 0 18 0;
#X connect 20 0 19 0;
#X connect 21 0 19 0;
#X connect 22 0 34 0;
#X connect 22 0 39 0;
#X connect 22 0 50 0;
#X connect 23 0 5 0;
#X connect 24 0 5 0;
#X connect 25 0 29 0;
#X connect 26 0 27 0;
#X connect 28 0 29 0;
#X connect 30 0 32 0;
#X connect 31 0 32 0;
#X connect 33 0 46 0;
#X connect 34 0 15 0;
#X connect 37 0 17 0;
#X connect 39 0 40 0;
#X connect 40 0 42 0;
#X connect 42 0 44 0;
#X connect 42 1 43 0;
#X connect 42 1 41 0;
#X connect 43 0 14 0;
#X connect 44 0 14 0;
#X connect 46 0 49 0;
#X connect 48 0 51 0;
#X connect 50 0 16 0;
#X connect 50 0 48 0;
#X connect 51 0 52 0;
#X connect 52 0 49 0;
#X connect 52 0 38 0;
