#N canvas 1865 98 1286 688 10;
#X obj 56 315 adc~;
#X obj 812 314 r Channel-Push;
#X obj 273 308 r Channel-A;
#X obj 944 595 dac~;
#X obj 387 309 r Channel-B;
#X obj 814 352 sel 1;
#N canvas 627 302 450 300 audiotrig 0;
#X obj 390 128 env~;
#X obj 389 200 sel 1;
#X obj 456 339 spigot;
#X obj 392 238 t b b;
#X msg 427 299 0;
#X obj 469 263 t b;
#X msg 494 296 1;
#X obj 388 167 > 98;
#X obj 358 74 inlet~;
#X obj 452 367 outlet;
#X connect 0 0 7 0;
#X connect 1 0 3 0;
#X connect 1 1 5 0;
#X connect 2 0 9 0;
#X connect 3 0 4 0;
#X connect 3 1 2 0;
#X connect 4 0 2 1;
#X connect 5 0 6 0;
#X connect 6 0 2 1;
#X connect 7 0 1 0;
#X connect 8 0 0 0;
#X restore 49 355 pd audiotrig;
#N canvas 627 302 450 300 audiotrig 0;
#X obj 390 128 env~;
#X obj 389 200 sel 1;
#X obj 456 339 spigot;
#X obj 392 238 t b b;
#X msg 427 299 0;
#X obj 469 263 t b;
#X msg 494 296 1;
#X obj 388 167 > 98;
#X obj 358 74 inlet~;
#X obj 452 367 outlet;
#X connect 0 0 7 0;
#X connect 1 0 3 0;
#X connect 1 1 5 0;
#X connect 2 0 9 0;
#X connect 3 0 4 0;
#X connect 3 1 2 0;
#X connect 4 0 2 1;
#X connect 5 0 6 0;
#X connect 6 0 2 1;
#X connect 7 0 1 0;
#X connect 8 0 0 0;
#X restore 157 346 pd audiotrig;
#N canvas 736 229 450 300 cvtrig 0;
#X obj 123 105 sel 1;
#X obj 119 201 spigot;
#X obj 125 132 t b b;
#X msg 164 160 0;
#X obj 171 131 t b;
#X msg 203 163 1;
#X obj 126 71 > 0.9;
#X obj 129 45 inlet;
#X obj 116 235 outlet;
#X connect 0 0 2 0;
#X connect 0 1 4 0;
#X connect 1 0 8 0;
#X connect 2 0 3 0;
#X connect 2 1 1 0;
#X connect 3 0 1 1;
#X connect 4 0 5 0;
#X connect 5 0 1 1;
#X connect 6 0 0 0;
#X connect 7 0 6 0;
#X restore 274 347 pd cvtrig;
#N canvas 736 229 450 300 cvtrig 0;
#X obj 123 105 sel 1;
#X obj 119 201 spigot;
#X obj 125 132 t b b;
#X msg 164 160 0;
#X obj 171 131 t b;
#X msg 203 163 1;
#X obj 126 71 > 0.9;
#X obj 129 45 inlet;
#X obj 116 235 outlet;
#X connect 0 0 2 0;
#X connect 0 1 4 0;
#X connect 1 0 8 0;
#X connect 2 0 3 0;
#X connect 2 1 1 0;
#X connect 3 0 1 1;
#X connect 4 0 5 0;
#X connect 5 0 1 1;
#X connect 6 0 0 0;
#X connect 7 0 6 0;
#X restore 386 349 pd cvtrig;
#N canvas 736 229 450 300 cvtrig 0;
#X obj 123 105 sel 1;
#X obj 119 201 spigot;
#X obj 125 132 t b b;
#X msg 164 160 0;
#X obj 171 131 t b;
#X msg 203 163 1;
#X obj 126 71 > 0.9;
#X obj 129 45 inlet;
#X obj 116 235 outlet;
#X connect 0 0 2 0;
#X connect 0 1 4 0;
#X connect 1 0 8 0;
#X connect 2 0 3 0;
#X connect 2 1 1 0;
#X connect 3 0 1 1;
#X connect 4 0 5 0;
#X connect 5 0 1 1;
#X connect 6 0 0 0;
#X connect 7 0 6 0;
#X restore 496 345 pd cvtrig;
#N canvas 736 229 450 300 cvtrig 0;
#X obj 123 105 sel 1;
#X obj 119 201 spigot;
#X obj 125 132 t b b;
#X msg 164 160 0;
#X obj 171 131 t b;
#X msg 203 163 1;
#X obj 126 71 > 0.9;
#X obj 129 45 inlet;
#X obj 116 235 outlet;
#X connect 0 0 2 0;
#X connect 0 1 4 0;
#X connect 1 0 8 0;
#X connect 2 0 3 0;
#X connect 2 1 1 0;
#X connect 3 0 1 1;
#X connect 4 0 5 0;
#X connect 5 0 1 1;
#X connect 6 0 0 0;
#X connect 7 0 6 0;
#X restore 608 347 pd cvtrig;
#X obj 495 306 r Channel-C;
#X obj 609 307 r Channel-D;
#N canvas 736 229 450 300 cvtrig 0;
#X obj 123 105 sel 1;
#X obj 119 201 spigot;
#X obj 125 132 t b b;
#X msg 164 160 0;
#X obj 171 131 t b;
#X msg 203 163 1;
#X obj 126 71 > 0.9;
#X obj 129 45 inlet;
#X obj 116 235 outlet;
#X connect 0 0 2 0;
#X connect 0 1 4 0;
#X connect 1 0 8 0;
#X connect 2 0 3 0;
#X connect 2 1 1 0;
#X connect 3 0 1 1;
#X connect 4 0 5 0;
#X connect 5 0 1 1;
#X connect 6 0 0 0;
#X connect 7 0 6 0;
#X restore 704 348 pd cvtrig;
#X obj 709 313 r Channel-E;
#X text 592 270 CV/gate tester based on patch by twitter.com/manwithfeathers
;
#X obj 45 494 s CV_A @hv_param;
#X obj 154 495 s CV_B @hv_param;
#X obj 268 497 s CV_C @hv_param;
#X obj 376 498 s CV_D @hv_param;
#X obj 485 499 s CV_E @hv_param;
#X obj 594 501 s CV_F @hv_param;
#X obj 705 499 s CV_G @hv_param;
#X obj 813 507 s CV_H @hv_param;
#X msg 45 465 0.1;
#X msg 154 465 0.2;
#X msg 269 464 0.3;
#X msg 376 466 0.4;
#X msg 486 467 0.5;
#X msg 596 469 0.6;
#X msg 707 465 0.7;
#X msg 817 464 0.8;
#X obj 601 435 change;
#X obj 711 427 change;
#X obj 815 420 change;
#X msg 843 382 0;
#X msg 814 381 1;
#X obj 924 507 s TR_F @hv_param;
#X obj 264 398 change;
#X obj 374 432 change;
#X obj 477 428 change;
#X obj 344 603 print changed;
#X obj 410 158 hsl 128 15 0 1 0 0 empty empty empty -2 -8 0 10 -262144
-1 -1 12700 1;
#X msg 835 239 1;
#X msg 885 243 0;
#X obj 78 439 change, f 7;
#X obj 162 438 change;
#X connect 0 0 6 0;
#X connect 0 1 7 0;
#X connect 1 0 5 0;
#X connect 2 0 8 0;
#X connect 4 0 9 0;
#X connect 5 0 37 0;
#X connect 5 1 36 0;
#X connect 6 0 46 0;
#X connect 7 0 47 0;
#X connect 8 0 39 0;
#X connect 9 0 40 0;
#X connect 10 0 41 0;
#X connect 11 0 33 0;
#X connect 12 0 10 0;
#X connect 13 0 11 0;
#X connect 14 0 34 0;
#X connect 15 0 14 0;
#X connect 25 0 17 0;
#X connect 26 0 18 0;
#X connect 27 0 19 0;
#X connect 28 0 20 0;
#X connect 28 0 42 0;
#X connect 29 0 21 0;
#X connect 30 0 22 0;
#X connect 31 0 23 0;
#X connect 32 0 24 0;
#X connect 32 0 42 0;
#X connect 33 0 30 0;
#X connect 34 0 31 0;
#X connect 35 0 32 0;
#X connect 35 0 38 0;
#X connect 35 0 42 0;
#X connect 36 0 35 0;
#X connect 37 0 35 0;
#X connect 39 0 27 0;
#X connect 40 0 28 0;
#X connect 41 0 29 0;
#X connect 43 0 9 0;
#X connect 44 0 5 0;
#X connect 45 0 5 0;
#X connect 46 0 25 0;
#X connect 47 0 26 0;
