#N canvas 1675 113 1434 768 10;
#X obj 558 408 r Channel-Push;
#X obj 301 279 r Channel-A;
#X obj 1095 604 dac~;
#X obj 1009 144 r Channel-B;
#X obj 559 438 sel 1;
#N canvas 627 302 729 489 audiotrig 1;
#X obj 390 128 env~;
#X obj 389 200 sel 1;
#X obj 456 339 spigot;
#X obj 392 238 t b b;
#X msg 427 299 0;
#X obj 469 263 t b;
#X msg 494 296 1;
#X obj 388 167 > 98;
#X obj 358 74 inlet~;
#X obj 452 367 outlet;
#X connect 0 0 7 0;
#X connect 1 0 3 0;
#X connect 1 1 5 0;
#X connect 2 0 9 0;
#X connect 3 0 4 0;
#X connect 3 1 2 0;
#X connect 4 0 2 1;
#X connect 5 0 6 0;
#X connect 6 0 2 1;
#X connect 7 0 1 0;
#X connect 8 0 0 0;
#X restore 57 251 pd audiotrig;
#N canvas 2081 143 803 625 audiotrig 0;
#X obj 390 128 env~;
#X obj 389 200 sel 1;
#X obj 392 238 t b b;
#X msg 398 295 0;
#X obj 431 238 t b;
#X msg 430 294 1;
#X obj 388 167 > 98;
#X obj 358 74 inlet~;
#X obj 319 389 outlet;
#X obj 426 383 outlet;
#X connect 0 0 6 0;
#X connect 1 0 2 0;
#X connect 1 1 4 0;
#X connect 2 0 3 0;
#X connect 2 1 8 0;
#X connect 3 0 9 0;
#X connect 4 0 5 0;
#X connect 6 0 1 0;
#X connect 7 0 0 0;
#X restore 59 447 pd audiotrig;
#X obj 695 276 r Channel-C;
#X obj 803 277 r Channel-D;
#X obj 426 407 r Channel-E;
#X msg 56 293 0.1;
#X msg 66 526 0.2;
#X obj 985 101 hsl 128 15 0 1 0 0 empty empty empty -2 -8 0 10 -262144
-1 -1 0 1;
#X obj 329 610 s CV_F @hv_param;
#X floatatom 1015 287 5 0 0 0 - - -, f 5;
#X obj 1015 332 change;
#X obj 1015 358 sel 1;
#X obj 1015 308 >= 0;
#N canvas 2168 250 566 450 delta 0;
#X obj 67 68 inlet;
#X obj 66 92 t f b;
#X obj 96 145 f;
#X obj 72 145 f;
#X obj 94 118 f;
#X obj 72 167 -;
#X obj 72 192 spigot 1;
#X msg 168 121 0;
#X obj 217 27 loadbang;
#X obj 217 53 f \$1;
#X obj 215 78 sel 2;
#X obj 227 204 t f b;
#X obj 257 257 f;
#X obj 233 257 f;
#X obj 255 230 f;
#X msg 223 116 1;
#X obj 186 163 spigot 0;
#X obj 232 282 -;
#X obj 74 338 outlet;
#X connect 0 0 1 0;
#X connect 1 0 4 1;
#X connect 1 0 3 0;
#X connect 1 1 4 0;
#X connect 2 0 5 1;
#X connect 3 0 5 0;
#X connect 4 0 2 0;
#X connect 5 0 6 0;
#X connect 5 0 16 0;
#X connect 6 0 18 0;
#X connect 7 0 6 1;
#X connect 8 0 9 0;
#X connect 9 0 10 0;
#X connect 10 0 7 0;
#X connect 10 0 15 0;
#X connect 11 0 14 1;
#X connect 11 0 13 0;
#X connect 11 1 14 0;
#X connect 12 0 17 1;
#X connect 13 0 17 0;
#X connect 14 0 12 0;
#X connect 15 0 16 1;
#X connect 16 0 11 0;
#X connect 17 0 18 0;
#X restore 1013 260 pd delta;
#X obj 1010 402 bng 15 250 50 0 empty empty empty 17 7 0 10 -262144
-1 -1;
#X obj 1038 402 bng 15 250 50 0 empty empty empty 17 7 0 10 -262144
-1 -1;
#X msg 1003 435 0.56;
#X msg 1053 435 0.57;
#X obj 925 598 s __hv_noteout @hv_param;
#X obj 971 558 pack f f f;
#X msg 1017 512 127;
#X msg 1051 511 0;
#X msg 972 531 15;
#X obj 1054 540 f 1;
#X text 630 36 CV/gate input to midi CC as noteout is not supported
atm 1 CC msg for trig on \, one for trig off;
#X obj 58 216 adc~ 1, f 7;
#X obj 57 407 adc~ 2;
#N canvas 2168 250 566 450 CVgateOnOff 0;
#X obj 67 68 inlet;
#X obj 66 92 t f b;
#X obj 96 145 f;
#X obj 72 145 f;
#X obj 94 118 f;
#X obj 72 167 -;
#X obj 98 321 outlet;
#X floatatom 71 194 5 0 0 0 - - -, f 5;
#X obj 71 239 change;
#X obj 71 265 sel 1;
#X obj 71 215 >= 0;
#X obj 69 288 bng 15 250 50 0 empty empty empty 17 7 0 10 -262144 -1
-1;
#X obj 97 288 bng 15 250 50 0 empty empty empty 17 7 0 10 -262144 -1
-1;
#X obj 42 321 outlet;
#X connect 0 0 1 0;
#X connect 1 0 4 1;
#X connect 1 0 3 0;
#X connect 1 1 4 0;
#X connect 2 0 5 1;
#X connect 3 0 5 0;
#X connect 4 0 2 0;
#X connect 5 0 7 0;
#X connect 7 0 10 0;
#X connect 8 0 9 0;
#X connect 9 0 11 0;
#X connect 9 1 12 0;
#X connect 10 0 8 0;
#X connect 11 0 13 0;
#X connect 12 0 6 0;
#X restore 426 435 pd CVgateOnOff;
#N canvas 2168 250 566 450 CVgateOnOff 0;
#X obj 67 68 inlet;
#X obj 66 92 t f b;
#X obj 96 145 f;
#X obj 72 145 f;
#X obj 94 118 f;
#X obj 72 167 -;
#X obj 98 321 outlet;
#X floatatom 71 194 5 0 0 0 - - -, f 5;
#X obj 71 239 change;
#X obj 71 265 sel 1;
#X obj 71 215 >= 0;
#X obj 69 288 bng 15 250 50 0 empty empty empty 17 7 0 10 -262144 -1
-1;
#X obj 97 288 bng 15 250 50 0 empty empty empty 17 7 0 10 -262144 -1
-1;
#X obj 42 321 outlet;
#X connect 0 0 1 0;
#X connect 1 0 4 1;
#X connect 1 0 3 0;
#X connect 1 1 4 0;
#X connect 2 0 5 1;
#X connect 3 0 5 0;
#X connect 4 0 2 0;
#X connect 5 0 7 0;
#X connect 7 0 10 0;
#X connect 8 0 9 0;
#X connect 9 0 11 0;
#X connect 9 1 12 0;
#X connect 10 0 8 0;
#X connect 11 0 13 0;
#X connect 12 0 6 0;
#X restore 802 305 pd CVgateOnOff;
#N canvas 2168 250 566 450 CVgateOnOff 1;
#X obj 67 68 inlet;
#X obj 66 92 t f b;
#X obj 96 145 f;
#X obj 72 145 f;
#X obj 94 118 f;
#X obj 72 167 -;
#X obj 98 321 outlet;
#X floatatom 71 194 5 0 0 0 - - -, f 5;
#X obj 71 239 change;
#X obj 71 265 sel 1;
#X obj 71 215 >= 0;
#X obj 69 288 bng 15 250 50 0 empty empty empty 17 7 0 10 -262144 -1
-1;
#X obj 97 288 bng 15 250 50 0 empty empty empty 17 7 0 10 -262144 -1
-1;
#X obj 42 321 outlet;
#X connect 0 0 1 0;
#X connect 1 0 4 1;
#X connect 1 0 3 0;
#X connect 1 1 4 0;
#X connect 2 0 5 1;
#X connect 3 0 5 0;
#X connect 4 0 2 0;
#X connect 5 0 7 0;
#X connect 7 0 10 0;
#X connect 8 0 9 0;
#X connect 9 0 11 0;
#X connect 9 1 12 0;
#X connect 10 0 8 0;
#X connect 11 0 13 0;
#X connect 12 0 6 0;
#X restore 693 302 pd CVgateOnOff;
#N canvas 2168 250 566 450 CVgateOnOff 0;
#X obj 67 68 inlet;
#X obj 66 92 t f b;
#X obj 96 145 f;
#X obj 72 145 f;
#X obj 94 118 f;
#X obj 72 167 -;
#X obj 98 321 outlet;
#X floatatom 71 194 5 0 0 0 - - -, f 5;
#X obj 71 239 change;
#X obj 71 265 sel 1;
#X obj 71 215 >= 0;
#X obj 69 288 bng 15 250 50 0 empty empty empty 17 7 0 10 -262144 -1
-1;
#X obj 97 288 bng 15 250 50 0 empty empty empty 17 7 0 10 -262144 -1
-1;
#X obj 42 321 outlet;
#X connect 0 0 1 0;
#X connect 1 0 4 1;
#X connect 1 0 3 0;
#X connect 1 1 4 0;
#X connect 2 0 5 1;
#X connect 3 0 5 0;
#X connect 4 0 2 0;
#X connect 5 0 7 0;
#X connect 7 0 10 0;
#X connect 8 0 9 0;
#X connect 9 0 11 0;
#X connect 9 1 12 0;
#X connect 10 0 8 0;
#X connect 11 0 13 0;
#X connect 12 0 6 0;
#X restore 299 303 pd CVgateOnOff;
#N canvas 2168 250 566 450 CVgateOnOff 0;
#X obj 67 68 inlet;
#X obj 66 92 t f b;
#X obj 96 145 f;
#X obj 72 145 f;
#X obj 94 118 f;
#X obj 72 167 -;
#X obj 98 321 outlet;
#X floatatom 71 194 5 0 0 0 - - -, f 5;
#X obj 71 239 change;
#X obj 71 265 sel 1;
#X obj 71 215 >= 0;
#X obj 69 288 bng 15 250 50 0 empty empty empty 17 7 0 10 -262144 -1
-1;
#X obj 97 288 bng 15 250 50 0 empty empty empty 17 7 0 10 -262144 -1
-1;
#X obj 42 321 outlet;
#X connect 0 0 1 0;
#X connect 1 0 4 1;
#X connect 1 0 3 0;
#X connect 1 1 4 0;
#X connect 2 0 5 1;
#X connect 3 0 5 0;
#X connect 4 0 2 0;
#X connect 5 0 7 0;
#X connect 7 0 10 0;
#X connect 8 0 9 0;
#X connect 9 0 11 0;
#X connect 9 1 12 0;
#X connect 10 0 8 0;
#X connect 11 0 13 0;
#X connect 12 0 6 0;
#X restore 418 302 pd CVgateOnOff;
#X obj 420 278 r Channel-B;
#X obj 107 293 delay 10;
#X msg 108 314 0.12;
#X msg 108 526 0.22;
#X msg 304 335 0.3;
#X msg 357 334 0.32;
#X msg 423 334 0.4;
#X msg 473 334 0.42;
#X msg 698 334 0.5;
#X msg 748 334 0.52;
#X msg 807 337 0.6;
#X msg 857 337 0.62;
#X msg 431 467 0.7;
#X msg 481 467 0.72;
#X msg 559 467 0.8;
#X msg 589 468 0.82;
#X connect 0 0 4 0;
#X connect 1 0 35 0;
#X connect 3 0 18 0;
#X connect 4 0 51 0;
#X connect 4 1 52 0;
#X connect 5 0 10 0;
#X connect 6 0 11 0;
#X connect 6 1 40 0;
#X connect 7 0 34 0;
#X connect 8 0 33 0;
#X connect 9 0 32 0;
#X connect 10 0 13 0;
#X connect 10 0 38 0;
#X connect 11 0 13 0;
#X connect 12 0 18 0;
#X connect 14 0 17 0;
#X connect 15 0 16 0;
#X connect 16 0 19 0;
#X connect 16 1 20 0;
#X connect 17 0 15 0;
#X connect 18 0 14 0;
#X connect 19 0 21 0;
#X connect 19 0 28 0;
#X connect 20 0 22 0;
#X connect 21 0 13 0;
#X connect 21 0 25 0;
#X connect 21 0 27 0;
#X connect 22 0 13 0;
#X connect 22 0 26 0;
#X connect 22 0 27 0;
#X connect 24 0 23 0;
#X connect 25 0 24 1;
#X connect 26 0 24 1;
#X connect 27 0 24 0;
#X connect 28 0 24 2;
#X connect 30 0 5 0;
#X connect 31 0 6 0;
#X connect 32 0 49 0;
#X connect 32 1 50 0;
#X connect 33 0 47 0;
#X connect 33 1 48 0;
#X connect 34 0 45 0;
#X connect 34 1 46 0;
#X connect 35 0 41 0;
#X connect 35 1 42 0;
#X connect 36 0 43 0;
#X connect 36 1 44 0;
#X connect 37 0 36 0;
#X connect 38 0 39 0;
#X connect 39 0 13 0;
#X connect 40 0 13 0;
#X connect 41 0 13 0;
#X connect 42 0 13 0;
#X connect 43 0 13 0;
#X connect 44 0 13 0;
#X connect 45 0 13 0;
#X connect 46 0 13 0;
#X connect 47 0 13 0;
#X connect 48 0 13 0;
#X connect 49 0 13 0;
#X connect 50 0 13 0;
#X connect 51 0 13 0;
#X connect 52 0 13 0;
