#N canvas 1601 97 1286 688 10;
#X obj 56 315 adc~;
#X obj 812 314 r Channel-Push;
#X obj 273 308 r Channel-A;
#X obj 944 595 dac~;
#X obj 387 309 r Channel-B;
#X obj 814 351 sel 1;
#N canvas 627 302 450 300 audiotrig 0;
#X obj 390 128 env~;
#X obj 389 200 sel 1;
#X obj 456 339 spigot;
#X obj 392 238 t b b;
#X msg 427 299 0;
#X obj 469 263 t b;
#X msg 494 296 1;
#X obj 388 167 > 98;
#X obj 358 74 inlet~;
#X obj 452 367 outlet;
#X connect 0 0 7 0;
#X connect 1 0 3 0;
#X connect 1 1 5 0;
#X connect 2 0 9 0;
#X connect 3 0 4 0;
#X connect 3 1 2 0;
#X connect 4 0 2 1;
#X connect 5 0 6 0;
#X connect 6 0 2 1;
#X connect 7 0 1 0;
#X connect 8 0 0 0;
#X restore 49 355 pd audiotrig;
#N canvas 627 302 450 300 audiotrig 0;
#X obj 390 128 env~;
#X obj 389 200 sel 1;
#X obj 456 339 spigot;
#X obj 392 238 t b b;
#X msg 427 299 0;
#X obj 469 263 t b;
#X msg 494 296 1;
#X obj 388 167 > 98;
#X obj 358 74 inlet~;
#X obj 452 367 outlet;
#X connect 0 0 7 0;
#X connect 1 0 3 0;
#X connect 1 1 5 0;
#X connect 2 0 9 0;
#X connect 3 0 4 0;
#X connect 3 1 2 0;
#X connect 4 0 2 1;
#X connect 5 0 6 0;
#X connect 6 0 2 1;
#X connect 7 0 1 0;
#X connect 8 0 0 0;
#X restore 157 346 pd audiotrig;
#N canvas 736 229 450 300 cvtrig 0;
#X obj 123 105 sel 1;
#X obj 119 201 spigot;
#X obj 125 132 t b b;
#X msg 164 160 0;
#X obj 171 131 t b;
#X msg 203 163 1;
#X obj 126 71 > 0.9;
#X obj 129 45 inlet;
#X obj 116 235 outlet;
#X connect 0 0 2 0;
#X connect 0 1 4 0;
#X connect 1 0 8 0;
#X connect 2 0 3 0;
#X connect 2 1 1 0;
#X connect 3 0 1 1;
#X connect 4 0 5 0;
#X connect 5 0 1 1;
#X connect 6 0 0 0;
#X connect 7 0 6 0;
#X restore 274 347 pd cvtrig;
#N canvas 736 229 450 300 cvtrig 0;
#X obj 123 105 sel 1;
#X obj 119 201 spigot;
#X obj 125 132 t b b;
#X msg 164 160 0;
#X obj 171 131 t b;
#X msg 203 163 1;
#X obj 126 71 > 0.9;
#X obj 129 45 inlet;
#X obj 116 235 outlet;
#X connect 0 0 2 0;
#X connect 0 1 4 0;
#X connect 1 0 8 0;
#X connect 2 0 3 0;
#X connect 2 1 1 0;
#X connect 3 0 1 1;
#X connect 4 0 5 0;
#X connect 5 0 1 1;
#X connect 6 0 0 0;
#X connect 7 0 6 0;
#X restore 386 349 pd cvtrig;
#N canvas 736 229 450 300 cvtrig 0;
#X obj 123 105 sel 1;
#X obj 119 201 spigot;
#X obj 125 132 t b b;
#X msg 164 160 0;
#X obj 171 131 t b;
#X msg 203 163 1;
#X obj 126 71 > 0.9;
#X obj 129 45 inlet;
#X obj 116 235 outlet;
#X connect 0 0 2 0;
#X connect 0 1 4 0;
#X connect 1 0 8 0;
#X connect 2 0 3 0;
#X connect 2 1 1 0;
#X connect 3 0 1 1;
#X connect 4 0 5 0;
#X connect 5 0 1 1;
#X connect 6 0 0 0;
#X connect 7 0 6 0;
#X restore 496 345 pd cvtrig;
#N canvas 736 229 450 300 cvtrig 0;
#X obj 123 105 sel 1;
#X obj 119 201 spigot;
#X obj 125 132 t b b;
#X msg 164 160 0;
#X obj 171 131 t b;
#X msg 203 163 1;
#X obj 126 71 > 0.9;
#X obj 129 45 inlet;
#X obj 116 235 outlet;
#X connect 0 0 2 0;
#X connect 0 1 4 0;
#X connect 1 0 8 0;
#X connect 2 0 3 0;
#X connect 2 1 1 0;
#X connect 3 0 1 1;
#X connect 4 0 5 0;
#X connect 5 0 1 1;
#X connect 6 0 0 0;
#X connect 7 0 6 0;
#X restore 608 347 pd cvtrig;
#X obj 495 306 r Channel-C;
#X obj 609 307 r Channel-D;
#N canvas 736 229 450 300 cvtrig 0;
#X obj 123 105 sel 1;
#X obj 119 201 spigot;
#X obj 125 132 t b b;
#X msg 164 160 0;
#X obj 171 131 t b;
#X msg 203 163 1;
#X obj 126 71 > 0.9;
#X obj 129 45 inlet;
#X obj 116 235 outlet;
#X connect 0 0 2 0;
#X connect 0 1 4 0;
#X connect 1 0 8 0;
#X connect 2 0 3 0;
#X connect 2 1 1 0;
#X connect 3 0 1 1;
#X connect 4 0 5 0;
#X connect 5 0 1 1;
#X connect 6 0 0 0;
#X connect 7 0 6 0;
#X restore 704 348 pd cvtrig;
#X obj 709 313 r Channel-E;
#X text 592 270 CV/gate tester based on patch by twitter.com/manwithfeathers
;
#X obj 45 494 s CV_A @hv_param;
#X obj 154 495 s CV_B @hv_param;
#X obj 268 497 s CV_C @hv_param;
#X obj 376 498 s CV_D @hv_param;
#X obj 485 499 s CV_E @hv_param;
#X obj 594 501 s CV_F @hv_param;
#X obj 705 499 s CV_G @hv_param;
#X obj 813 500 s CV_H @hv_param;
#X msg 161 400 101;
#X msg 279 403 102;
#X msg 385 400 103;
#X msg 500 401 104;
#X msg 608 403 105;
#X msg 707 402 106;
#X msg 44 405 100;
#X msg 817 398 107;
#X connect 0 0 6 0;
#X connect 0 1 7 0;
#X connect 1 0 5 0;
#X connect 2 0 8 0;
#X connect 4 0 9 0;
#X connect 5 0 32 0;
#X connect 6 0 31 0;
#X connect 7 0 25 0;
#X connect 8 0 26 0;
#X connect 9 0 27 0;
#X connect 10 0 28 0;
#X connect 11 0 29 0;
#X connect 12 0 10 0;
#X connect 13 0 11 0;
#X connect 14 0 30 0;
#X connect 15 0 14 0;
#X connect 25 0 18 0;
#X connect 26 0 19 0;
#X connect 27 0 20 0;
#X connect 28 0 21 0;
#X connect 29 0 22 0;
#X connect 30 0 23 0;
#X connect 31 0 17 0;
#X connect 32 0 24 0;
