#N canvas 1814 217 1286 688 10;
#N canvas 0 22 984 516 kick 0;
#X obj 612 334 osc~;
#X obj 746 113 + 20;
#X obj 610 141 f;
#X obj 614 259 line~;
#X obj 611 62 inlet;
#X obj 747 39 inlet;
#X obj 601 516 outlet~;
#X msg 670 206 0.5;
#X obj 608 432 *~;
#X obj 716 386 line~;
#X msg 790 353 1;
#X msg 614 221 \$1 0;
#X obj 611 93 t b b b b;
#X obj 746 69 * 100;
#X obj 612 189 + 40;
#X msg 720 350 0 200;
#X obj 605 484 *~ 0.4;
#X connect 0 0 8 0;
#X connect 1 0 2 1;
#X connect 2 0 14 0;
#X connect 3 0 0 0;
#X connect 4 0 12 0;
#X connect 5 0 13 0;
#X connect 7 0 0 1;
#X connect 8 0 16 0;
#X connect 9 0 8 1;
#X connect 10 0 9 0;
#X connect 11 0 3 0;
#X connect 12 0 2 0;
#X connect 12 1 7 0;
#X connect 12 2 15 0;
#X connect 12 3 10 0;
#X connect 13 0 1 0;
#X connect 14 0 11 0;
#X connect 15 0 9 0;
#X connect 16 0 6 0;
#X restore 281 431 pd kick;
#X obj 701 349 adc~;
#X obj 280 345 r Channel-Push;
#N canvas 172 23 737 591 hh 0;
#X obj 516 274 noise~;
#X obj 283 327 *~;
#X obj 311 86 inlet;
#X obj 353 531 outlet~;
#X obj 309 306 line~;
#X msg 325 264 1;
#X msg 1050 309 1;
#X msg 1117 317 0 40;
#X msg 392 272 0 20;
#X obj 356 146 t b b;
#X obj 391 212 sel 1;
#X obj 507 324 hip~ 8000;
#X msg 390 243 0 80;
#X obj 510 300 hip~ 8000;
#X obj 387 178 random 8;
#X obj 284 353 *~ 0.4;
#X connect 0 0 13 0;
#X connect 1 0 15 0;
#X connect 2 0 9 0;
#X connect 4 0 1 1;
#X connect 5 0 4 0;
#X connect 8 0 4 0;
#X connect 9 0 14 0;
#X connect 9 1 5 0;
#X connect 10 0 12 0;
#X connect 10 1 8 0;
#X connect 11 0 1 0;
#X connect 12 0 4 0;
#X connect 13 0 11 0;
#X connect 14 0 10 0;
#X connect 15 0 3 0;
#X restore 692 427 pd hh;
#X obj 589 351 r Channel-C;
#N canvas 0 23 984 516 tom 0;
#X obj 613 304 osc~;
#X obj 613 146 f;
#X obj 614 259 line~;
#X obj 746 69 * 200;
#X obj 607 382 *~ 0.5;
#X obj 609 59 inlet;
#X obj 744 35 inlet;
#X obj 611 432 outlet~;
#X obj 618 348 *~;
#X obj 744 421 line~;
#X msg 755 387 1;
#X msg 614 238 \$1 0;
#X obj 611 93 t b b b b;
#X obj 640 194 * 0.98;
#X msg 684 253 \$1 \$2;
#X msg 686 198 0.5;
#X obj 746 113 + 100;
#X obj 681 226 pack 1 2;
#X obj 776 306 t b b;
#X msg 827 387 0 200;
#X connect 0 0 8 0;
#X connect 1 0 11 0;
#X connect 1 0 13 0;
#X connect 2 0 0 0;
#X connect 3 0 16 0;
#X connect 4 0 7 0;
#X connect 5 0 12 0;
#X connect 6 0 3 0;
#X connect 8 0 4 0;
#X connect 9 0 8 1;
#X connect 10 0 9 0;
#X connect 11 0 2 0;
#X connect 12 0 1 0;
#X connect 12 2 15 0;
#X connect 12 3 18 0;
#X connect 13 0 17 0;
#X connect 14 0 2 0;
#X connect 15 0 0 1;
#X connect 16 0 1 1;
#X connect 17 0 14 0;
#X connect 18 0 19 0;
#X connect 18 1 10 0;
#X connect 19 0 9 0;
#X restore 799 428 pd tom;
#X obj 393 349 r Channel-A;
#X obj 908 341 r Channel-D;
#X obj 284 560 dac~;
#X obj 493 353 r Channel-B;
#X obj 279 389 sel 1;
#N canvas 178 298 450 300 blocks 0;
#X obj -9 140 cos~;
#X obj 14 195 *~;
#X obj 66 180 line~;
#X obj 57 110 t b b;
#X msg 86 139 0 40;
#X obj -5 26 phasor~ 700;
#X obj 150 16 inlet;
#X obj 32 242 outlet~;
#X msg 36 140 0.1;
#X connect 0 0 1 0;
#X connect 1 0 7 0;
#X connect 2 0 1 1;
#X connect 3 0 4 0;
#X connect 3 1 8 0;
#X connect 4 0 2 0;
#X connect 5 0 0 0;
#X connect 6 0 3 0;
#X connect 8 0 2 0;
#X restore 493 424 pd blocks;
#N canvas 627 302 450 300 audiotrig 0;
#X obj 390 128 env~;
#X obj 389 200 sel 1;
#X obj 456 339 spigot;
#X obj 392 238 t b b;
#X msg 427 299 0;
#X obj 469 263 t b;
#X msg 494 296 1;
#X obj 388 167 > 98;
#X obj 358 74 inlet~;
#X obj 452 367 outlet;
#X connect 0 0 7 0;
#X connect 1 0 3 0;
#X connect 1 1 5 0;
#X connect 2 0 9 0;
#X connect 3 0 4 0;
#X connect 3 1 2 0;
#X connect 4 0 2 1;
#X connect 5 0 6 0;
#X connect 6 0 2 1;
#X connect 7 0 1 0;
#X connect 8 0 0 0;
#X restore 703 395 pd audiotrig;
#N canvas 2242 237 683 484 audiotrig 0;
#X obj 390 128 env~;
#X obj 389 200 sel 1;
#X obj 456 339 spigot;
#X obj 392 238 t b b;
#X msg 427 299 0;
#X obj 469 263 t b;
#X msg 494 296 1;
#X obj 388 167 > 98;
#X obj 358 74 inlet~;
#X obj 452 367 outlet;
#X connect 0 0 7 0;
#X connect 1 0 3 0;
#X connect 1 1 5 0;
#X connect 2 0 9 0;
#X connect 3 0 4 0;
#X connect 3 1 2 0;
#X connect 4 0 2 1;
#X connect 5 0 6 0;
#X connect 6 0 2 1;
#X connect 7 0 1 0;
#X connect 8 0 0 0;
#X restore 794 391 pd audiotrig;
#N canvas 571 272 450 300 snare 0;
#X obj 5 -1424 osc~ 230;
#X obj -65 -1332 line~;
#X obj -63 -1280 *~;
#X obj 67 -1426 noise~;
#X obj 69 -1346 hip~ 700;
#X obj -74 -1402 t b b;
#X msg -95 -1372 1;
#X msg -45 -1373 0 40;
#X obj 7 -1378 *~ 0.1;
#X obj 69 -1380 *~ 0.1;
#X obj -69 -1223 outlet~;
#X obj -84 -1457 inlet;
#X connect 0 0 8 0;
#X connect 1 0 2 0;
#X connect 2 0 10 0;
#X connect 3 0 9 0;
#X connect 4 0 2 1;
#X connect 5 0 7 0;
#X connect 5 1 6 0;
#X connect 6 0 1 0;
#X connect 7 0 1 0;
#X connect 8 0 2 1;
#X connect 9 0 4 0;
#X connect 11 0 5 0;
#X restore 390 421 pd snare;
#N canvas 736 409 450 300 cvtrig 1;
#X obj 123 105 sel 1;
#X obj 119 201 spigot;
#X obj 125 132 t b b;
#X msg 164 160 0;
#X obj 171 131 t b;
#X msg 203 163 1;
#X obj 126 71 > 0.9;
#X obj 129 45 inlet;
#X obj 116 235 outlet;
#X connect 0 0 2 0;
#X connect 0 1 4 0;
#X connect 1 0 8 0;
#X connect 2 0 3 0;
#X connect 2 1 1 0;
#X connect 3 0 1 1;
#X connect 4 0 5 0;
#X connect 5 0 1 1;
#X connect 6 0 0 0;
#X connect 7 0 6 0;
#X restore 394 388 pd cvtrig;
#N canvas 736 229 450 300 cvtrig 0;
#X obj 123 105 sel 1;
#X obj 119 201 spigot;
#X obj 125 132 t b b;
#X msg 164 160 0;
#X obj 171 131 t b;
#X msg 203 163 1;
#X obj 126 71 > 0.9;
#X obj 129 45 inlet;
#X obj 116 235 outlet;
#X connect 0 0 2 0;
#X connect 0 1 4 0;
#X connect 1 0 8 0;
#X connect 2 0 3 0;
#X connect 2 1 1 0;
#X connect 3 0 1 1;
#X connect 4 0 5 0;
#X connect 5 0 1 1;
#X connect 6 0 0 0;
#X connect 7 0 6 0;
#X restore 494 390 pd cvtrig;
#X text 545 151 A drum machine for the OWL using audio in and cv in
as triggers rebeltech.org twitter.com/manwithfeathers;
#N canvas 0 22 984 516 kick 0;
#X obj 612 334 osc~;
#X obj 746 113 + 20;
#X obj 610 141 f;
#X obj 614 259 line~;
#X obj 611 62 inlet;
#X obj 747 39 inlet;
#X obj 601 516 outlet~;
#X msg 670 206 0.5;
#X obj 608 432 *~;
#X obj 716 386 line~;
#X msg 790 353 1;
#X msg 614 221 \$1 0;
#X obj 611 93 t b b b b;
#X obj 746 69 * 100;
#X obj 612 189 + 40;
#X msg 720 350 0 200;
#X obj 605 484 *~ 0.4;
#X connect 0 0 8 0;
#X connect 1 0 2 1;
#X connect 2 0 14 0;
#X connect 3 0 0 0;
#X connect 4 0 12 0;
#X connect 5 0 13 0;
#X connect 7 0 0 1;
#X connect 8 0 16 0;
#X connect 9 0 8 1;
#X connect 10 0 9 0;
#X connect 11 0 3 0;
#X connect 12 0 2 0;
#X connect 12 1 7 0;
#X connect 12 2 15 0;
#X connect 12 3 10 0;
#X connect 13 0 1 0;
#X connect 14 0 11 0;
#X connect 15 0 9 0;
#X connect 16 0 6 0;
#X restore 588 424 pd kick;
#N canvas 736 229 450 300 cvtrig 0;
#X obj 123 105 sel 1;
#X obj 119 201 spigot;
#X obj 125 132 t b b;
#X msg 164 160 0;
#X obj 171 131 t b;
#X msg 203 163 1;
#X obj 126 71 > 0.9;
#X obj 129 45 inlet;
#X obj 116 235 outlet;
#X connect 0 0 2 0;
#X connect 0 1 4 0;
#X connect 1 0 8 0;
#X connect 2 0 3 0;
#X connect 2 1 1 0;
#X connect 3 0 1 1;
#X connect 4 0 5 0;
#X connect 5 0 1 1;
#X connect 6 0 0 0;
#X connect 7 0 6 0;
#X restore 587 388 pd cvtrig;
#X connect 0 0 8 0;
#X connect 0 0 8 1;
#X connect 1 0 12 0;
#X connect 1 1 13 0;
#X connect 2 0 10 0;
#X connect 3 0 8 0;
#X connect 3 0 8 1;
#X connect 4 0 19 0;
#X connect 5 0 8 0;
#X connect 5 0 8 1;
#X connect 6 0 15 0;
#X connect 7 0 5 1;
#X connect 9 0 16 0;
#X connect 10 0 0 0;
#X connect 11 0 8 0;
#X connect 11 0 8 1;
#X connect 12 0 3 0;
#X connect 13 0 5 0;
#X connect 14 0 8 0;
#X connect 14 0 8 1;
#X connect 15 0 14 0;
#X connect 16 0 11 0;
#X connect 18 0 8 1;
#X connect 18 0 8 0;
#X connect 19 0 18 0;
