#N canvas 193 347 1550 686 10;
#X obj 102 103 cnv 15 182 110 empty empty pushdelay~ 4 8 0 14 -233017
-66577 0;
#N canvas 0 54 1366 686 curve_abs 0;
#X obj 127 51 inlet;
#X obj 322 51 inlet;
#X obj 408 51 inlet;
#X obj 127 132 == 0;
#X obj 254 132 == 1;
#X obj 440 131 == 2;
#X obj 127 168 tgl 15 0 empty empty empty 17 7 0 10 -262144 -1 -1 1
1;
#X obj 254 167 tgl 15 0 empty empty empty 17 7 0 10 -262144 -1 -1 0
1;
#X obj 440 168 tgl 15 0 empty empty empty 17 7 0 10 -262144 -1 -1 0
1;
#X obj 94 233 spigot;
#X obj 221 233 spigot;
#X obj 407 233 spigot;
#X obj 94 349 *;
#X obj 407 305 abs;
#X obj 221 349 *;
#X obj 407 341 *;
#X obj 221 472 outlet;
#X obj 221 269 expr sqrt(1-(pow($f1-1 \, 2)));
#X obj 407 269 expr sqrt(1-(pow($f1 \, 2)))-1;
#X obj 322 87 s \$0-limit;
#X obj 408 87 s \$0-variable;
#X obj 28 205 r \$0-variable;
#X obj 166 205 r \$0-variable;
#X obj 347 205 r \$0-variable;
#X obj 114 319 r \$0-limit;
#X obj 241 319 r \$0-limit;
#X obj 449 319 r \$0-limit;
#X text 137 111 linear;
#X text 259 112 convex;
#X text 438 110 concave;
#X connect 0 0 3 0;
#X connect 0 0 4 0;
#X connect 0 0 5 0;
#X connect 1 0 19 0;
#X connect 2 0 20 0;
#X connect 3 0 6 0;
#X connect 4 0 7 0;
#X connect 5 0 8 0;
#X connect 6 0 9 1;
#X connect 7 0 10 1;
#X connect 8 0 11 1;
#X connect 9 0 12 0;
#X connect 10 0 17 0;
#X connect 11 0 18 0;
#X connect 12 0 16 0;
#X connect 13 0 15 0;
#X connect 14 0 16 0;
#X connect 15 0 16 0;
#X connect 17 0 14 0;
#X connect 18 0 13 0;
#X connect 21 0 9 0;
#X connect 22 0 10 0;
#X connect 23 0 11 0;
#X connect 24 0 12 1;
#X connect 25 0 14 1;
#X connect 26 0 15 1;
#X restore 250 71 pd curve_abs;
#X obj 105 159 hradio 15 1 0 3 \$0-curve empty curve(ln|cnvex|cncave)
0 -8 0 10 -262144 -1 -1 0;
#X obj 250 24 r \$0-curve;
#X obj 654 128 *~;
#X obj 693 79 tgl 15 0 empty empty empty 17 7 0 10 -262144 -1 -1 0
1;
#X obj 574 72 tgl 15 0 empty empty empty 17 7 0 10 -262144 -1 -1 1
1;
#X obj 622 61 == 0;
#X obj 693 54 == 1;
#X obj 572 124 line~;
#X obj 572 98 pack 1 50;
#X obj 704 125 line~;
#X obj 703 103 pack 1 50;
#X obj 693 27 tgl 15 0 empty empty empty 17 7 0 10 -262144 -1 -1 0
1;
#X obj 108 16 loadbang;
#X msg 156 50 0;
#X obj 265 119 vsl 15 90 0 1 0 0 \$0-c \$0-rc gain 0 -9 0 10 -262144
-1 -1 4450 1;
#X obj 243 120 vsl 15 90 0 0.95 0 0 \$0-b \$0-rb feedback 0 -9 0 10
-191407 -262144 -1 4684 1;
#X obj 109 129 tgl 15 0 \$0-by empty by 19 8 0 10 -262144 -1 -1 0 1
;
#X obj 109 233 hsl 60 10 0 1 0 0 \$0-a \$0-ra delay -2 -7 0 10 -262144
-262144 -1 0 1;
#X obj 705 434 r \$0-gain;
#N canvas 0 50 462 312 rh_scalelog 0;
#X obj 20 155 exp;
#X obj 20 107 *;
#X obj 20 130 +;
#X obj 98 87 log;
#X obj 194 84 log;
#X obj 123 123 t b f;
#X obj 123 145 -;
#X obj 20 183 outlet;
#X obj 20 19 inlet;
#X obj 98 23 inlet;
#X obj 194 24 inlet;
#X connect 0 0 7 0;
#X connect 1 0 2 0;
#X connect 2 0 0 0;
#X connect 3 0 2 1;
#X connect 3 0 5 0;
#X connect 4 0 6 0;
#X connect 5 0 6 0;
#X connect 5 1 6 1;
#X connect 6 0 1 1;
#X connect 8 0 1 0;
#X connect 9 0 3 0;
#X connect 10 0 4 0;
#X restore 706 487 pd rh_scalelog;
#X msg 768 466 0.1;
#X msg 814 466 10;
#X obj 562 508 delwrite~ \$0-fbbb 1000;
#X obj 568 486 *~;
#X obj 597 455 r \$0-feedback;
#X obj 598 476 * 0.95;
#X obj 524 536 *~ 1;
#X obj 566 430 vd~ \$0-fbbb 100;
#X msg 623 380 \$1 20;
#X obj 623 402 line~;
#X obj 768 438 r \$0-loadbang;
#X obj 525 217 *~;
#X obj 310 234 env~;
#X obj 310 274 dbtorms;
#X obj 310 300 spigot;
#X obj 385 285 tgl 15 0 empty empty empty 17 7 0 10 -262144 -1 -1 1
1;
#X obj 310 391 max;
#X obj 325 325 t b;
#X msg 386 364 0;
#X obj 385 313 sel 0 1;
#X obj 415 366 s \$0-UpdateDel;
#X obj 311 96 r \$0-UpdateDel;
#X obj 692 3 r \$0-by;
#X obj 384 57 tgl 15 0 empty empty off|on 17 7 0 10 -262144 -1 -1 1
1;
#X obj 106 193 hsl 128 15 0 1 0 0 empty \$0-updateddel delay -2 -8
0 10 -191407 -262144 -1 0 1;
#X obj 385 227 metro;
#X obj 385 128 tgl 15 0 empty empty off|on 17 7 0 10 -262144 -1 -1
1 1;
#X obj 440 116 r \$0-curdelms;
#X msg 108 52 0.5;
#X msg 383 32 1;
#X obj 386 338 t b b;
#X obj 415 204 line;
#X msg 418 179 \$1 20;
#X msg 691 206 1;
#X obj 623 278 * 990;
#X obj 623 300 + 10;
#X obj 622 205 r \$0-curve;
#X obj 691 185 loadbang;
#N canvas 0 54 1366 686 curve_abs 0;
#X obj 127 51 inlet;
#X obj 322 51 inlet;
#X obj 408 51 inlet;
#X obj 127 132 == 0;
#X obj 254 132 == 1;
#X obj 440 131 == 2;
#X obj 127 168 tgl 15 0 empty empty empty 17 7 0 10 -262144 -1 -1 1
1;
#X obj 254 167 tgl 15 0 empty empty empty 17 7 0 10 -262144 -1 -1 0
1;
#X obj 440 168 tgl 15 0 empty empty empty 17 7 0 10 -262144 -1 -1 0
1;
#X obj 94 233 spigot;
#X obj 221 233 spigot;
#X obj 407 233 spigot;
#X obj 94 349 *;
#X obj 407 305 abs;
#X obj 221 349 *;
#X obj 407 341 *;
#X obj 221 472 outlet;
#X obj 221 269 expr sqrt(1-(pow($f1-1 \, 2)));
#X obj 407 269 expr sqrt(1-(pow($f1 \, 2)))-1;
#X obj 322 87 s \$0-limit;
#X obj 408 87 s \$0-variable;
#X obj 28 205 r \$0-variable;
#X obj 166 205 r \$0-variable;
#X obj 347 205 r \$0-variable;
#X obj 114 319 r \$0-limit;
#X obj 241 319 r \$0-limit;
#X obj 449 319 r \$0-limit;
#X text 137 111 linear;
#X text 259 112 convex;
#X text 438 110 concave;
#X connect 0 0 3 0;
#X connect 0 0 4 0;
#X connect 0 0 5 0;
#X connect 1 0 19 0;
#X connect 2 0 20 0;
#X connect 3 0 6 0;
#X connect 4 0 7 0;
#X connect 5 0 8 0;
#X connect 6 0 9 1;
#X connect 7 0 10 1;
#X connect 8 0 11 1;
#X connect 9 0 12 0;
#X connect 10 0 17 0;
#X connect 11 0 18 0;
#X connect 12 0 16 0;
#X connect 13 0 15 0;
#X connect 14 0 16 0;
#X connect 15 0 16 0;
#X connect 17 0 14 0;
#X connect 18 0 13 0;
#X connect 21 0 9 0;
#X connect 22 0 10 0;
#X connect 23 0 11 0;
#X connect 24 0 12 1;
#X connect 25 0 14 1;
#X connect 26 0 15 1;
#X restore 623 256 pd curve_abs;
#X obj 748 183 r \$0-delay;
#X obj 679 362 s \$0-curdelms;
#X obj 321 24 r \$0-delay;
#X obj 157 160 tgl 15 0 \$0-cont empty inter/cont 17 7 0 10 -262144
-1 -1 0 1;
#X obj 679 336 spigot;
#X obj 713 268 r \$0-cont;
#X obj 712 292 - 1;
#X obj 712 314 abs;
#X floatatom 308 423 5 0 0 0 - - -, f 5;
#X obj 313 127 bng 15 250 50 0 empty empty empty 17 7 0 10 -262144
-1 -1;
#X floatatom 440 146 5 0 0 0 - - -, f 5;
#X floatatom 748 211 5 0 0 0 - - -, f 5;
#X obj 653 154 s~ \$0-bypassedSignalworkings;
#X obj 560 536 s~ \$0-bypassedSignalworkings;
#X obj 792 14 inlet;
#X text 246 2 it turns on when the switch~ is triggered;
#X msg 285 47 0.5;
#X obj 792 38 route 0 1 2;
#X obj 918 61 tgl 15 0 empty empty empty 17 7 0 10 -262144 -1 -1 1
1;
#X obj 17 62 * 2;
#X obj 17 84 + 0.5;
#X obj 17 106 int;
#X obj 56 64 + 0.5;
#X obj 56 86 int;
#X obj 311 146 f;
#X obj 325 353 f;
#X obj 925 4 loadbang;
#X msg 935 31 1;
#X obj 526 7 adc~;
#X obj 523 563 dac~;
#X obj 807 281 f;
#X text 840 285 \$0-curdel;
#X connect 1 0 17 0;
#X connect 3 0 1 0;
#X connect 4 0 73 0;
#X connect 5 0 12 0;
#X connect 6 0 10 0;
#X connect 7 0 6 0;
#X connect 8 0 5 0;
#X connect 9 0 33 1;
#X connect 10 0 9 0;
#X connect 11 0 4 1;
#X connect 12 0 11 0;
#X connect 13 0 7 0;
#X connect 13 0 8 0;
#X connect 14 0 15 0;
#X connect 14 0 77 0;
#X connect 14 0 50 0;
#X connect 14 0 51 0;
#X connect 15 0 2 0;
#X connect 15 0 18 0;
#X connect 15 0 64 0;
#X connect 20 0 21 0;
#X connect 21 0 28 1;
#X connect 22 0 21 1;
#X connect 23 0 21 2;
#X connect 25 0 24 0;
#X connect 26 0 27 0;
#X connect 27 0 25 1;
#X connect 28 0 90 0;
#X connect 29 0 25 0;
#X connect 29 0 28 0;
#X connect 30 0 31 0;
#X connect 31 0 29 0;
#X connect 32 0 22 0;
#X connect 32 0 23 0;
#X connect 33 0 24 0;
#X connect 33 0 28 0;
#X connect 33 0 34 0;
#X connect 34 0 35 0;
#X connect 35 0 36 0;
#X connect 36 0 38 0;
#X connect 37 0 36 1;
#X connect 37 0 41 0;
#X connect 38 0 69 0;
#X connect 39 0 86 0;
#X connect 40 0 69 0;
#X connect 41 0 52 0;
#X connect 43 0 70 0;
#X connect 44 0 13 0;
#X connect 45 0 48 0;
#X connect 46 0 19 0;
#X connect 47 0 37 0;
#X connect 48 0 47 0;
#X connect 49 0 71 0;
#X connect 50 0 16 0;
#X connect 50 0 17 0;
#X connect 50 0 46 0;
#X connect 52 0 40 0;
#X connect 52 1 42 0;
#X connect 53 0 47 1;
#X connect 54 0 53 0;
#X connect 55 0 60 1;
#X connect 56 0 57 0;
#X connect 57 0 65 0;
#X connect 57 0 30 0;
#X connect 58 0 60 0;
#X connect 59 0 55 0;
#X connect 60 0 56 0;
#X connect 61 0 72 0;
#X connect 63 0 1 2;
#X connect 65 0 62 0;
#X connect 66 0 67 0;
#X connect 67 0 68 0;
#X connect 68 0 65 1;
#X connect 69 0 39 0;
#X connect 69 0 85 1;
#X connect 69 0 86 1;
#X connect 70 0 85 0;
#X connect 71 0 54 0;
#X connect 72 0 60 2;
#X connect 72 0 91 1;
#X connect 75 0 78 0;
#X connect 77 0 1 1;
#X connect 78 0 80 0;
#X connect 78 1 83 0;
#X connect 78 2 17 0;
#X connect 79 0 45 0;
#X connect 80 0 81 0;
#X connect 81 0 82 0;
#X connect 82 0 2 0;
#X connect 83 0 84 0;
#X connect 84 0 64 0;
#X connect 85 0 46 0;
#X connect 86 0 38 1;
#X connect 87 0 88 0;
#X connect 88 0 79 0;
#X connect 89 0 33 0;
#X connect 89 0 4 0;
#X coords 0 -1 1 1 186 116 1 100 100;
