#N canvas 452 187 989 735 10;
#X obj 162 177 cnv 15 184 114 empty empty wavey_lays 2 12 0 14 -204786
-66577 0;
#X obj 157 323 hsl 60 10 0 1 0 0 \$0-a \$0-ra delay -2 -7 0 10 -49
-262144 -355 5900 1;
#X obj 269 274 hsl 60 10 0 1 0 0 \$0-c \$0-rc gain -2 -7 0 10 -49 -262144
-355 5900 1;
#X obj 173 274 hsl 60 10 0 1 0 0 \$0-b \$0-rb feedback -2 -7 0 10 -49
-262144 -355 1180 1;
#X obj 482 190 phasor~;
#X obj 481 167 sig~ 890;
#N canvas 0 50 458 308 rh_scalelog 0;
#X obj 20 155 exp;
#X obj 20 107 *;
#X obj 20 130 +;
#X obj 98 87 log;
#X obj 194 84 log;
#X obj 123 123 t b f;
#X obj 123 145 -;
#X obj 20 183 outlet;
#X obj 20 19 inlet;
#X obj 98 23 inlet;
#X obj 194 24 inlet;
#X connect 0 0 7 0;
#X connect 1 0 2 0;
#X connect 2 0 0 0;
#X connect 3 0 2 1;
#X connect 3 0 5 0;
#X connect 4 0 6 0;
#X connect 5 0 6 0;
#X connect 5 1 6 1;
#X connect 6 0 1 1;
#X connect 8 0 1 0;
#X connect 9 0 3 0;
#X connect 10 0 4 0;
#X restore 165 404 pd rh_scalelog;
#N canvas 0 50 462 312 rh_scalelog 0;
#X obj 20 155 exp;
#X obj 20 107 *;
#X obj 20 130 +;
#X obj 98 87 log;
#X obj 194 84 log;
#X obj 123 123 t b f;
#X obj 123 145 -;
#X obj 20 183 outlet;
#X obj 20 19 inlet;
#X obj 98 23 inlet;
#X obj 194 24 inlet;
#X connect 0 0 7 0;
#X connect 1 0 2 0;
#X connect 2 0 0 0;
#X connect 3 0 2 1;
#X connect 3 0 5 0;
#X connect 4 0 6 0;
#X connect 5 0 6 0;
#X connect 5 1 6 1;
#X connect 6 0 1 1;
#X connect 8 0 1 0;
#X connect 9 0 3 0;
#X connect 10 0 4 0;
#X restore 290 592 pd rh_scalelog;
#X msg 337 568 0.1;
#X msg 383 568 10;
#X msg 258 380 1000;
#X msg 211 379 1;
#X obj 147 569 delwrite~ \$0-fbbb 1000;
#X obj 153 547 *~;
#X obj 183 534 * 0.95;
#X obj 95 618 *~ 1;
#X obj 151 491 vd~ \$0-fbbb 100;
#X msg 166 427 \$1 20;
#X obj 167 451 line~;
#X obj 392 190 osc~ 1000;
#X obj 292 183 tgl 15 0 empty empty off|on 17 7 0 10 -262144 -1 -1
1 1;
#X obj 391 288 snapshot~;
#X floatatom 391 311 0 0 0 0 - - -;
#X obj 390 334 + 1;
#X obj 390 357 / 2;
#X obj 393 428 line;
#X obj 215 243 hsl 67 15 0 1000 0 0 empty empty metro_time(0-1000)
-2 -8 0 10 -262144 -1 -1 1320 1;
#X obj 390 379 pack f f;
#X msg 391 403 \$1 \$2;
#X obj 257 211 hsl 67 15 0 1000 0 0 empty empty phasor -2 -8 0 10 -262144
-1 -1 1320 1;
#X obj 391 218 +~;
#X obj 168 210 hsl 67 15 0 1000 0 0 empty empty osc -2 -8 0 10 -262144
-1 -1 1320 1;
#X obj 412 258 metro 100;
#X obj 297 103 inlet;
#X obj 296 136 tgl 15 0 empty empty empty 17 7 0 10 -262144 -1 -1 0
1;
#X obj 217 337 loadbang;
#X obj 337 540 loadbang;
#X msg 629 217 0.2;
#X msg 692 228 1;
#X obj 652 203 loadbang;
#X text 475 65 based on MMP plugins https://forum.pdpatchrepo.info/topic/11290/mobmuplat-ready-effects-collection-i-e-30-vanilla-compliant-mmp-effects-w-gui
;
#X obj 34 21 adc~;
#X obj 280 -68 hsl 128 15 0 1 0 0 empty empty pahsor -2 -8 0 10 -262144
-1 -1 0 1;
#X obj 424 -68 hsl 128 15 0 1 0 0 empty empty metro -2 -8 0 10 -262144
-1 -1 0 1;
#X obj 568 -68 hsl 128 15 0 1 0 0 empty empty Parameter_D -2 -8 0 10
-262144 -1 -1 0 1;
#X obj 574 -47 r Channel-D;
#X obj 431 -47 r Channel-C;
#X obj 290 -47 r Channel-B;
#X obj 135 -68 hsl 128 15 0 1 0 0 empty empty OSC -2 -8 0 10 -262144
-1 -1 0 1;
#X obj 142 -47 r Channel-A;
#X obj 714 -68 hsl 128 15 0 1 0 0 empty empty Parameter_E -2 -8 0 10
-262144 -1 -1 0 1;
#X obj 720 -47 r Channel-E;
#X obj 132 -21 * 128;
#X obj 283 -14 * 128;
#X obj 427 -24 * 128;
#X obj 132 2 * 8;
#X obj 283 12 * 8;
#X obj 426 -3 * 8;
#X obj 557 1 * 1;
#X obj 714 -18 * 1;
#X obj 96 685 dac~;
#X connect 1 0 6 0;
#X connect 2 0 7 0;
#X connect 3 0 14 0;
#X connect 4 0 30 0;
#X connect 5 0 4 0;
#X connect 6 0 17 0;
#X connect 7 0 15 1;
#X connect 8 0 7 1;
#X connect 9 0 7 2;
#X connect 10 0 6 2;
#X connect 11 0 6 1;
#X connect 13 0 12 0;
#X connect 14 0 13 1;
#X connect 15 0 60 0;
#X connect 16 0 13 0;
#X connect 16 0 15 0;
#X connect 17 0 18 0;
#X connect 18 0 16 0;
#X connect 19 0 30 0;
#X connect 20 0 32 0;
#X connect 21 0 22 0;
#X connect 21 0 22 0;
#X connect 22 0 23 0;
#X connect 23 0 24 0;
#X connect 24 0 27 0;
#X connect 25 0 1 0;
#X connect 26 0 27 1;
#X connect 26 0 32 1;
#X connect 27 0 28 0;
#X connect 28 0 25 0;
#X connect 29 0 5 0;
#X connect 30 0 21 0;
#X connect 31 0 19 0;
#X connect 32 0 21 0;
#X connect 33 0 34 0;
#X connect 34 0 20 0;
#X connect 35 0 11 0;
#X connect 35 0 10 0;
#X connect 36 0 8 0;
#X connect 36 0 9 0;
#X connect 37 0 3 0;
#X connect 37 0 1 0;
#X connect 38 0 20 0;
#X connect 38 0 2 0;
#X connect 39 0 37 0;
#X connect 39 0 38 0;
#X connect 41 0 12 0;
#X connect 41 0 15 0;
#X connect 41 0 60 1;
#X connect 42 0 53 0;
#X connect 43 0 54 0;
#X connect 44 0 58 0;
#X connect 45 0 58 0;
#X connect 46 0 54 0;
#X connect 47 0 53 0;
#X connect 48 0 52 0;
#X connect 49 0 52 0;
#X connect 50 0 59 0;
#X connect 51 0 59 0;
#X connect 52 0 55 0;
#X connect 53 0 56 0;
#X connect 54 0 57 0;
#X connect 55 0 31 0;
#X connect 56 0 29 0;
#X connect 57 0 26 0;
#X connect 58 0 3 0;
#X connect 59 0 1 0;
