#N canvas 1952 421 1286 688 10;
#X obj 56 315 adc~;
#X obj 812 314 r Channel-Push;
#X obj 273 308 r Channel-A;
#X obj 442 586 dac~;
#X obj 387 309 r Channel-B;
#X obj 811 357 sel 1;
#N canvas 627 302 450 300 audiotrig 0;
#X obj 390 128 env~;
#X obj 389 200 sel 1;
#X obj 456 339 spigot;
#X obj 392 238 t b b;
#X msg 427 299 0;
#X obj 469 263 t b;
#X msg 494 296 1;
#X obj 388 167 > 98;
#X obj 358 74 inlet~;
#X obj 452 367 outlet;
#X connect 0 0 7 0;
#X connect 1 0 3 0;
#X connect 1 1 5 0;
#X connect 2 0 9 0;
#X connect 3 0 4 0;
#X connect 3 1 2 0;
#X connect 4 0 2 1;
#X connect 5 0 6 0;
#X connect 6 0 2 1;
#X connect 7 0 1 0;
#X connect 8 0 0 0;
#X restore 49 355 pd audiotrig;
#N canvas 627 302 450 300 audiotrig 0;
#X obj 390 128 env~;
#X obj 389 200 sel 1;
#X obj 456 339 spigot;
#X obj 392 238 t b b;
#X msg 427 299 0;
#X obj 469 263 t b;
#X msg 494 296 1;
#X obj 388 167 > 98;
#X obj 358 74 inlet~;
#X obj 452 367 outlet;
#X connect 0 0 7 0;
#X connect 1 0 3 0;
#X connect 1 1 5 0;
#X connect 2 0 9 0;
#X connect 3 0 4 0;
#X connect 3 1 2 0;
#X connect 4 0 2 1;
#X connect 5 0 6 0;
#X connect 6 0 2 1;
#X connect 7 0 1 0;
#X connect 8 0 0 0;
#X restore 157 346 pd audiotrig;
#N canvas 736 229 450 300 cvtrig 0;
#X obj 123 105 sel 1;
#X obj 119 201 spigot;
#X obj 125 132 t b b;
#X msg 164 160 0;
#X obj 171 131 t b;
#X msg 203 163 1;
#X obj 126 71 > 0.9;
#X obj 129 45 inlet;
#X obj 116 235 outlet;
#X connect 0 0 2 0;
#X connect 0 1 4 0;
#X connect 1 0 8 0;
#X connect 2 0 3 0;
#X connect 2 1 1 0;
#X connect 3 0 1 1;
#X connect 4 0 5 0;
#X connect 5 0 1 1;
#X connect 6 0 0 0;
#X connect 7 0 6 0;
#X restore 274 347 pd cvtrig;
#N canvas 736 229 450 300 cvtrig 0;
#X obj 123 105 sel 1;
#X obj 119 201 spigot;
#X obj 125 132 t b b;
#X msg 164 160 0;
#X obj 171 131 t b;
#X msg 203 163 1;
#X obj 126 71 > 0.9;
#X obj 129 45 inlet;
#X obj 116 235 outlet;
#X connect 0 0 2 0;
#X connect 0 1 4 0;
#X connect 1 0 8 0;
#X connect 2 0 3 0;
#X connect 2 1 1 0;
#X connect 3 0 1 1;
#X connect 4 0 5 0;
#X connect 5 0 1 1;
#X connect 6 0 0 0;
#X connect 7 0 6 0;
#X restore 386 349 pd cvtrig;
#N canvas 178 298 450 300 blocks 0;
#X obj -9 140 cos~;
#X obj 14 195 *~;
#X obj 66 180 line~;
#X obj 57 110 t b b;
#X msg 86 139 0 40;
#X obj -5 26 phasor~ 700;
#X obj 150 16 inlet;
#X obj 32 242 outlet~;
#X msg 36 140 0.1;
#X connect 0 0 1 0;
#X connect 1 0 7 0;
#X connect 2 0 1 1;
#X connect 3 0 4 0;
#X connect 3 1 8 0;
#X connect 4 0 2 0;
#X connect 5 0 0 0;
#X connect 6 0 3 0;
#X connect 8 0 2 0;
#X restore 598 407 pd blocks;
#N canvas 736 229 450 300 cvtrig 0;
#X obj 123 105 sel 1;
#X obj 119 201 spigot;
#X obj 125 132 t b b;
#X msg 164 160 0;
#X obj 171 131 t b;
#X msg 203 163 1;
#X obj 126 71 > 0.9;
#X obj 129 45 inlet;
#X obj 116 235 outlet;
#X connect 0 0 2 0;
#X connect 0 1 4 0;
#X connect 1 0 8 0;
#X connect 2 0 3 0;
#X connect 2 1 1 0;
#X connect 3 0 1 1;
#X connect 4 0 5 0;
#X connect 5 0 1 1;
#X connect 6 0 0 0;
#X connect 7 0 6 0;
#X restore 496 345 pd cvtrig;
#N canvas 736 229 450 300 cvtrig 0;
#X obj 123 105 sel 1;
#X obj 119 201 spigot;
#X obj 125 132 t b b;
#X msg 164 160 0;
#X obj 171 131 t b;
#X msg 203 163 1;
#X obj 126 71 > 0.9;
#X obj 129 45 inlet;
#X obj 116 235 outlet;
#X connect 0 0 2 0;
#X connect 0 1 4 0;
#X connect 1 0 8 0;
#X connect 2 0 3 0;
#X connect 2 1 1 0;
#X connect 3 0 1 1;
#X connect 4 0 5 0;
#X connect 5 0 1 1;
#X connect 6 0 0 0;
#X connect 7 0 6 0;
#X restore 608 347 pd cvtrig;
#X obj 495 306 r Channel-C;
#X obj 609 307 r Channel-D;
#N canvas 178 298 450 300 blocks 0;
#X obj -9 140 cos~;
#X obj 14 195 *~;
#X obj 66 180 line~;
#X obj 57 110 t b b;
#X msg 86 139 0 40;
#X obj -5 26 phasor~ 700;
#X obj 150 16 inlet;
#X obj 32 242 outlet~;
#X msg 36 140 0.1;
#X connect 0 0 1 0;
#X connect 1 0 7 0;
#X connect 2 0 1 1;
#X connect 3 0 4 0;
#X connect 3 1 8 0;
#X connect 4 0 2 0;
#X connect 5 0 0 0;
#X connect 6 0 3 0;
#X connect 8 0 2 0;
#X restore 694 407 pd blocks;
#N canvas 736 229 450 300 cvtrig 0;
#X obj 123 105 sel 1;
#X obj 119 201 spigot;
#X obj 125 132 t b b;
#X msg 164 160 0;
#X obj 171 131 t b;
#X msg 203 163 1;
#X obj 126 71 > 0.9;
#X obj 129 45 inlet;
#X obj 116 235 outlet;
#X connect 0 0 2 0;
#X connect 0 1 4 0;
#X connect 1 0 8 0;
#X connect 2 0 3 0;
#X connect 2 1 1 0;
#X connect 3 0 1 1;
#X connect 4 0 5 0;
#X connect 5 0 1 1;
#X connect 6 0 0 0;
#X connect 7 0 6 0;
#X restore 708 353 pd cvtrig;
#X obj 709 313 r Channel-E;
#N canvas 178 298 450 300 blocks 0;
#X obj -9 140 cos~;
#X obj 14 195 *~;
#X obj 66 180 line~;
#X obj 57 110 t b b;
#X msg 86 139 0 40;
#X obj -5 26 phasor~ 700;
#X obj 150 16 inlet;
#X obj 32 242 outlet~;
#X msg 36 140 0.1;
#X connect 0 0 1 0;
#X connect 1 0 7 0;
#X connect 2 0 1 1;
#X connect 3 0 4 0;
#X connect 3 1 8 0;
#X connect 4 0 2 0;
#X connect 5 0 0 0;
#X connect 6 0 3 0;
#X connect 8 0 2 0;
#X restore 59 403 pd blocks;
#N canvas 178 298 450 300 blocks 0;
#X obj -9 140 cos~;
#X obj 14 195 *~;
#X obj 66 180 line~;
#X obj 57 110 t b b;
#X msg 86 139 0 40;
#X obj -5 26 phasor~ 700;
#X obj 150 16 inlet;
#X obj 32 242 outlet~;
#X msg 36 140 0.1;
#X connect 0 0 1 0;
#X connect 1 0 7 0;
#X connect 2 0 1 1;
#X connect 3 0 4 0;
#X connect 3 1 8 0;
#X connect 4 0 2 0;
#X connect 5 0 0 0;
#X connect 6 0 3 0;
#X connect 8 0 2 0;
#X restore 796 406 pd blocks;
#X text 592 270 CV/gate tester based on patch by twitter.com/manwithfeathers
;
#X obj 151 514 noteout 1;
#X msg 159 481 120;
#N canvas 329 103 924 455 snare 0;
#X obj 554 267 noise~;
#X obj 283 327 *~;
#X obj 284 353 *~ 0.5;
#X obj 311 86 inlet;
#X obj 356 428 *~ 0.5;
#X obj 372 195 i 40;
#X obj 482 65 inlet;
#X obj 481 120 + 20;
#X obj 353 531 outlet~;
#X obj 553 320 hip~ 440;
#X obj 309 306 line~;
#X msg 325 264 1;
#X obj 369 226 t f b;
#X msg 392 272 0 \$1;
#X obj 481 99 * 1000;
#X obj 311 141 t b;
#X obj 406 57 inlet;
#X obj 405 91 * 64;
#X obj 405 112 + 64;
#X obj 407 151 mtof;
#X connect 0 0 9 0;
#X connect 1 0 2 0;
#X connect 2 0 4 0;
#X connect 3 0 15 0;
#X connect 4 0 8 0;
#X connect 5 0 12 0;
#X connect 6 0 14 0;
#X connect 7 0 5 1;
#X connect 9 0 1 0;
#X connect 10 0 1 1;
#X connect 11 0 10 0;
#X connect 12 0 13 0;
#X connect 12 1 11 0;
#X connect 13 0 10 0;
#X connect 14 0 7 0;
#X connect 15 0 5 0;
#X connect 16 0 17 0;
#X connect 17 0 18 0;
#X connect 18 0 19 0;
#X connect 19 0 9 1;
#X restore 173 413 pd snare;
#N canvas 172 23 737 591 hh 0;
#X obj 516 274 noise~;
#X obj 283 327 *~;
#X obj 311 86 inlet;
#X obj 353 531 outlet~;
#X obj 309 306 line~;
#X msg 325 264 1;
#X msg 1050 309 1;
#X msg 1117 317 0 40;
#X msg 392 272 0 20;
#X obj 356 146 t b b;
#X obj 391 212 sel 1;
#X obj 507 324 hip~ 8000;
#X msg 390 243 0 80;
#X obj 510 300 hip~ 8000;
#X obj 387 178 random 8;
#X obj 284 353 *~ 0.4;
#X connect 0 0 13 0;
#X connect 1 0 15 0;
#X connect 2 0 9 0;
#X connect 4 0 1 1;
#X connect 5 0 4 0;
#X connect 8 0 4 0;
#X connect 9 0 14 0;
#X connect 9 1 5 0;
#X connect 10 0 12 0;
#X connect 10 1 8 0;
#X connect 11 0 1 0;
#X connect 12 0 4 0;
#X connect 13 0 11 0;
#X connect 14 0 10 0;
#X connect 15 0 3 0;
#X restore 286 407 pd hh;
#N canvas 0 22 984 516 tom 0;
#X obj 613 304 osc~;
#X obj 613 146 f;
#X obj 614 259 line~;
#X obj 746 69 * 200;
#X obj 607 382 *~ 0.5;
#X obj 609 59 inlet;
#X obj 744 35 inlet;
#X obj 611 432 outlet~;
#X obj 618 348 *~;
#X obj 744 421 line~;
#X msg 755 387 1;
#X msg 614 238 \$1 0;
#X obj 611 93 t b b b b;
#X obj 640 194 * 0.98;
#X msg 684 253 \$1 \$2;
#X msg 686 198 0.5;
#X obj 746 113 + 100;
#X obj 681 226 pack 1 2;
#X obj 776 306 t b b;
#X msg 827 387 0 200;
#X connect 0 0 8 0;
#X connect 1 0 11 0;
#X connect 1 0 13 0;
#X connect 2 0 0 0;
#X connect 3 0 16 0;
#X connect 4 0 7 0;
#X connect 5 0 12 0;
#X connect 6 0 3 0;
#X connect 8 0 4 0;
#X connect 9 0 8 1;
#X connect 10 0 9 0;
#X connect 11 0 2 0;
#X connect 12 0 1 0;
#X connect 12 2 15 0;
#X connect 12 3 18 0;
#X connect 13 0 17 0;
#X connect 14 0 2 0;
#X connect 15 0 0 1;
#X connect 16 0 1 1;
#X connect 17 0 14 0;
#X connect 18 0 19 0;
#X connect 18 1 10 0;
#X connect 19 0 9 0;
#X restore 366 403 pd tom;
#N canvas 0 22 984 516 kick 0;
#X obj 612 334 osc~;
#X obj 746 113 + 20;
#X obj 610 141 f;
#X obj 614 259 line~;
#X obj 611 62 inlet;
#X obj 747 39 inlet;
#X obj 601 516 outlet~;
#X msg 670 206 0.5;
#X obj 608 432 *~;
#X obj 716 386 line~;
#X msg 790 353 1;
#X msg 614 221 \$1 0;
#X obj 611 93 t b b b b;
#X obj 746 69 * 100;
#X obj 612 189 + 40;
#X msg 720 350 0 200;
#X obj 605 484 *~ 0.4;
#X connect 0 0 8 0;
#X connect 1 0 2 1;
#X connect 2 0 14 0;
#X connect 3 0 0 0;
#X connect 4 0 12 0;
#X connect 5 0 13 0;
#X connect 7 0 0 1;
#X connect 8 0 16 0;
#X connect 9 0 8 1;
#X connect 10 0 9 0;
#X connect 11 0 3 0;
#X connect 12 0 2 0;
#X connect 12 1 7 0;
#X connect 12 2 15 0;
#X connect 12 3 10 0;
#X connect 13 0 1 0;
#X connect 14 0 11 0;
#X connect 15 0 9 0;
#X connect 16 0 6 0;
#X restore 474 405 pd kick;
#X connect 0 0 6 0;
#X connect 0 1 7 0;
#X connect 1 0 5 0;
#X connect 2 0 8 0;
#X connect 4 0 9 0;
#X connect 5 0 19 0;
#X connect 6 0 18 0;
#X connect 7 0 22 0;
#X connect 7 0 23 0;
#X connect 8 0 24 0;
#X connect 9 0 25 0;
#X connect 10 0 3 0;
#X connect 10 0 3 1;
#X connect 11 0 26 0;
#X connect 12 0 10 0;
#X connect 13 0 11 0;
#X connect 14 0 12 0;
#X connect 15 0 3 1;
#X connect 15 0 3 0;
#X connect 16 0 15 0;
#X connect 17 0 16 0;
#X connect 18 0 3 0;
#X connect 18 0 3 1;
#X connect 19 0 3 0;
#X connect 19 0 3 1;
#X connect 22 0 21 0;
#X connect 23 0 3 0;
#X connect 23 0 3 1;
#X connect 24 0 3 1;
#X connect 24 0 3 0;
#X connect 25 0 3 0;
#X connect 25 0 3 1;
#X connect 26 0 3 0;
#X connect 26 0 3 1;
