#N canvas 1606 63 1286 688 10;
#X obj 56 315 adc~;
#X obj 812 314 r Channel-Push;
#X obj 273 308 r Channel-A;
#X obj 442 586 dac~;
#X obj 387 309 r Channel-B;
#X obj 811 357 sel 1;
#N canvas 178 298 450 300 blocks 0;
#X obj -9 140 cos~;
#X obj 14 195 *~;
#X obj 66 180 line~;
#X obj 57 110 t b b;
#X msg 86 139 0 40;
#X obj -5 26 phasor~ 700;
#X obj 150 16 inlet;
#X obj 32 242 outlet~;
#X msg 36 140 0.1;
#X connect 0 0 1 0;
#X connect 1 0 7 0;
#X connect 2 0 1 1;
#X connect 3 0 4 0;
#X connect 3 1 8 0;
#X connect 4 0 2 0;
#X connect 5 0 0 0;
#X connect 6 0 3 0;
#X connect 8 0 2 0;
#X restore 376 409 pd blocks;
#N canvas 627 302 450 300 audiotrig 0;
#X obj 390 128 env~;
#X obj 389 200 sel 1;
#X obj 456 339 spigot;
#X obj 392 238 t b b;
#X msg 427 299 0;
#X obj 469 263 t b;
#X msg 494 296 1;
#X obj 388 167 > 98;
#X obj 358 74 inlet~;
#X obj 452 367 outlet;
#X connect 0 0 7 0;
#X connect 1 0 3 0;
#X connect 1 1 5 0;
#X connect 2 0 9 0;
#X connect 3 0 4 0;
#X connect 3 1 2 0;
#X connect 4 0 2 1;
#X connect 5 0 6 0;
#X connect 6 0 2 1;
#X connect 7 0 1 0;
#X connect 8 0 0 0;
#X restore 49 355 pd audiotrig;
#N canvas 627 302 450 300 audiotrig 0;
#X obj 390 128 env~;
#X obj 389 200 sel 1;
#X obj 456 339 spigot;
#X obj 392 238 t b b;
#X msg 427 299 0;
#X obj 469 263 t b;
#X msg 494 296 1;
#X obj 388 167 > 98;
#X obj 358 74 inlet~;
#X obj 452 367 outlet;
#X connect 0 0 7 0;
#X connect 1 0 3 0;
#X connect 1 1 5 0;
#X connect 2 0 9 0;
#X connect 3 0 4 0;
#X connect 3 1 2 0;
#X connect 4 0 2 1;
#X connect 5 0 6 0;
#X connect 6 0 2 1;
#X connect 7 0 1 0;
#X connect 8 0 0 0;
#X restore 157 346 pd audiotrig;
#N canvas 736 229 450 300 cvtrig 0;
#X obj 123 105 sel 1;
#X obj 119 201 spigot;
#X obj 125 132 t b b;
#X msg 164 160 0;
#X obj 171 131 t b;
#X msg 203 163 1;
#X obj 126 71 > 0.9;
#X obj 129 45 inlet;
#X obj 116 235 outlet;
#X connect 0 0 2 0;
#X connect 0 1 4 0;
#X connect 1 0 8 0;
#X connect 2 0 3 0;
#X connect 2 1 1 0;
#X connect 3 0 1 1;
#X connect 4 0 5 0;
#X connect 5 0 1 1;
#X connect 6 0 0 0;
#X connect 7 0 6 0;
#X restore 274 347 pd cvtrig;
#N canvas 736 229 450 300 cvtrig 0;
#X obj 123 105 sel 1;
#X obj 119 201 spigot;
#X obj 125 132 t b b;
#X msg 164 160 0;
#X obj 171 131 t b;
#X msg 203 163 1;
#X obj 126 71 > 0.9;
#X obj 129 45 inlet;
#X obj 116 235 outlet;
#X connect 0 0 2 0;
#X connect 0 1 4 0;
#X connect 1 0 8 0;
#X connect 2 0 3 0;
#X connect 2 1 1 0;
#X connect 3 0 1 1;
#X connect 4 0 5 0;
#X connect 5 0 1 1;
#X connect 6 0 0 0;
#X connect 7 0 6 0;
#X restore 386 349 pd cvtrig;
#N canvas 178 298 450 300 blocks 0;
#X obj -9 140 cos~;
#X obj 14 195 *~;
#X obj 66 180 line~;
#X obj 57 110 t b b;
#X msg 86 139 0 40;
#X obj -5 26 phasor~ 700;
#X obj 150 16 inlet;
#X obj 32 242 outlet~;
#X msg 36 140 0.1;
#X connect 0 0 1 0;
#X connect 1 0 7 0;
#X connect 2 0 1 1;
#X connect 3 0 4 0;
#X connect 3 1 8 0;
#X connect 4 0 2 0;
#X connect 5 0 0 0;
#X connect 6 0 3 0;
#X connect 8 0 2 0;
#X restore 273 410 pd blocks;
#N canvas 178 298 450 300 blocks 0;
#X obj -9 140 cos~;
#X obj 14 195 *~;
#X obj 66 180 line~;
#X obj 57 110 t b b;
#X msg 86 139 0 40;
#X obj -5 26 phasor~ 700;
#X obj 150 16 inlet;
#X obj 32 242 outlet~;
#X msg 36 140 0.1;
#X connect 0 0 1 0;
#X connect 1 0 7 0;
#X connect 2 0 1 1;
#X connect 3 0 4 0;
#X connect 3 1 8 0;
#X connect 4 0 2 0;
#X connect 5 0 0 0;
#X connect 6 0 3 0;
#X connect 8 0 2 0;
#X restore 598 407 pd blocks;
#N canvas 736 229 450 300 cvtrig 0;
#X obj 123 105 sel 1;
#X obj 119 201 spigot;
#X obj 125 132 t b b;
#X msg 164 160 0;
#X obj 171 131 t b;
#X msg 203 163 1;
#X obj 126 71 > 0.9;
#X obj 129 45 inlet;
#X obj 116 235 outlet;
#X connect 0 0 2 0;
#X connect 0 1 4 0;
#X connect 1 0 8 0;
#X connect 2 0 3 0;
#X connect 2 1 1 0;
#X connect 3 0 1 1;
#X connect 4 0 5 0;
#X connect 5 0 1 1;
#X connect 6 0 0 0;
#X connect 7 0 6 0;
#X restore 496 345 pd cvtrig;
#N canvas 736 229 450 300 cvtrig 0;
#X obj 123 105 sel 1;
#X obj 119 201 spigot;
#X obj 125 132 t b b;
#X msg 164 160 0;
#X obj 171 131 t b;
#X msg 203 163 1;
#X obj 126 71 > 0.9;
#X obj 129 45 inlet;
#X obj 116 235 outlet;
#X connect 0 0 2 0;
#X connect 0 1 4 0;
#X connect 1 0 8 0;
#X connect 2 0 3 0;
#X connect 2 1 1 0;
#X connect 3 0 1 1;
#X connect 4 0 5 0;
#X connect 5 0 1 1;
#X connect 6 0 0 0;
#X connect 7 0 6 0;
#X restore 608 347 pd cvtrig;
#N canvas 178 298 450 300 blocks 0;
#X obj -9 140 cos~;
#X obj 14 195 *~;
#X obj 66 180 line~;
#X obj 57 110 t b b;
#X msg 86 139 0 40;
#X obj -5 26 phasor~ 700;
#X obj 150 16 inlet;
#X obj 32 242 outlet~;
#X msg 36 140 0.1;
#X connect 0 0 1 0;
#X connect 1 0 7 0;
#X connect 2 0 1 1;
#X connect 3 0 4 0;
#X connect 3 1 8 0;
#X connect 4 0 2 0;
#X connect 5 0 0 0;
#X connect 6 0 3 0;
#X connect 8 0 2 0;
#X restore 495 408 pd blocks;
#X obj 495 306 r Channel-C;
#X obj 609 307 r Channel-D;
#N canvas 178 298 450 300 blocks 0;
#X obj -9 140 cos~;
#X obj 14 195 *~;
#X obj 66 180 line~;
#X obj 57 110 t b b;
#X msg 86 139 0 40;
#X obj -5 26 phasor~ 700;
#X obj 150 16 inlet;
#X obj 32 242 outlet~;
#X msg 36 140 0.1;
#X connect 0 0 1 0;
#X connect 1 0 7 0;
#X connect 2 0 1 1;
#X connect 3 0 4 0;
#X connect 3 1 8 0;
#X connect 4 0 2 0;
#X connect 5 0 0 0;
#X connect 6 0 3 0;
#X connect 8 0 2 0;
#X restore 694 407 pd blocks;
#N canvas 736 229 450 300 cvtrig 0;
#X obj 123 105 sel 1;
#X obj 119 201 spigot;
#X obj 125 132 t b b;
#X msg 164 160 0;
#X obj 171 131 t b;
#X msg 203 163 1;
#X obj 126 71 > 0.9;
#X obj 129 45 inlet;
#X obj 116 235 outlet;
#X connect 0 0 2 0;
#X connect 0 1 4 0;
#X connect 1 0 8 0;
#X connect 2 0 3 0;
#X connect 2 1 1 0;
#X connect 3 0 1 1;
#X connect 4 0 5 0;
#X connect 5 0 1 1;
#X connect 6 0 0 0;
#X connect 7 0 6 0;
#X restore 708 353 pd cvtrig;
#X obj 709 313 r Channel-E;
#N canvas 178 298 924 455 blocks 1;
#X obj -9 140 cos~;
#X obj 14 195 *~;
#X obj 66 180 line~;
#X obj 57 110 t b b;
#X msg 86 139 0 40;
#X obj -5 26 phasor~ 700;
#X obj 150 16 inlet;
#X obj 32 242 outlet~;
#X msg 36 140 0.1;
#X connect 0 0 1 0;
#X connect 1 0 7 0;
#X connect 2 0 1 1;
#X connect 3 0 4 0;
#X connect 3 1 8 0;
#X connect 4 0 2 0;
#X connect 5 0 0 0;
#X connect 6 0 3 0;
#X connect 8 0 2 0;
#X restore 162 402 pd blocks;
#N canvas 178 298 450 300 blocks 0;
#X obj -9 140 cos~;
#X obj 14 195 *~;
#X obj 66 180 line~;
#X obj 57 110 t b b;
#X msg 86 139 0 40;
#X obj -5 26 phasor~ 700;
#X obj 150 16 inlet;
#X obj 32 242 outlet~;
#X msg 36 140 0.1;
#X connect 0 0 1 0;
#X connect 1 0 7 0;
#X connect 2 0 1 1;
#X connect 3 0 4 0;
#X connect 3 1 8 0;
#X connect 4 0 2 0;
#X connect 5 0 0 0;
#X connect 6 0 3 0;
#X connect 8 0 2 0;
#X restore 59 403 pd blocks;
#N canvas 178 298 450 300 blocks 0;
#X obj -9 140 cos~;
#X obj 14 195 *~;
#X obj 66 180 line~;
#X obj 57 110 t b b;
#X msg 86 139 0 40;
#X obj -5 26 phasor~ 700;
#X obj 150 16 inlet;
#X obj 32 242 outlet~;
#X msg 36 140 0.1;
#X connect 0 0 1 0;
#X connect 1 0 7 0;
#X connect 2 0 1 1;
#X connect 3 0 4 0;
#X connect 3 1 8 0;
#X connect 4 0 2 0;
#X connect 5 0 0 0;
#X connect 6 0 3 0;
#X connect 8 0 2 0;
#X restore 796 406 pd blocks;
#X text 592 270 CV/gate tester based on patch by twitter.com/manwithfeathers
;
#X obj 151 514 noteout 1;
#X msg 159 481 120;
#X connect 0 0 7 0;
#X connect 0 1 8 0;
#X connect 1 0 5 0;
#X connect 2 0 9 0;
#X connect 4 0 10 0;
#X connect 5 0 23 0;
#X connect 6 0 3 0;
#X connect 6 0 3 1;
#X connect 7 0 22 0;
#X connect 8 0 21 0;
#X connect 8 0 26 0;
#X connect 9 0 11 0;
#X connect 10 0 6 0;
#X connect 11 0 3 0;
#X connect 11 0 3 1;
#X connect 12 0 3 0;
#X connect 12 0 3 1;
#X connect 13 0 15 0;
#X connect 14 0 12 0;
#X connect 15 0 3 0;
#X connect 15 0 3 1;
#X connect 16 0 13 0;
#X connect 17 0 14 0;
#X connect 18 0 3 1;
#X connect 18 0 3 0;
#X connect 19 0 18 0;
#X connect 20 0 19 0;
#X connect 21 0 3 0;
#X connect 21 0 3 1;
#X connect 22 0 3 0;
#X connect 22 0 3 1;
#X connect 23 0 3 0;
#X connect 23 0 3 1;
#X connect 26 0 25 0;
