#N canvas 865 63 967 702 10;
#X obj 280 -68 hsl 128 15 0 1 0 0 empty empty delay -2 -8 0 10 -262144
-1 -1 10700 1;
#X obj 424 -68 hsl 128 15 0 1 0 0 empty empty depth -2 -8 0 10 -262144
-1 -1 0 1;
#X obj 568 -68 hsl 128 15 0 1 0 0 empty empty Feedback -2 -8 0 10 -262144
-1 -1 0 1;
#X obj 574 -47 r Channel-D;
#X obj 431 -47 r Channel-C;
#X obj 290 -47 r Channel-B;
#X obj 135 -68 hsl 128 15 0 1 0 0 empty empty freq -2 -8 0 10 -262144
-1 -1 10400 1;
#X obj 142 -47 r Channel-A;
#X obj 714 -68 hsl 128 15 0 1 0 0 empty empty phase -2 -8 0 10 -262144
-1 -1 5600 1;
#X obj 720 -47 r Channel-E;
#X obj 157 366 delwrite~ \$0-delay 5000;
#X obj 318 463 vd~ \$0-delay;
#N canvas 115 454 450 300 wet-dry 0;
#X obj 124 66 inlet~;
#X obj 187 70 inlet~;
#X obj 261 72 inlet;
#X obj 132 221 outlet~;
#X obj 133 146 *~;
#X obj 192 146 *~;
#X floatatom 263 200 5 0 0 0 - - -, f 5;
#X floatatom 261 101 5 0 1 0 - - -, f 5;
#X obj 263 139 * -1;
#X obj 263 168 + 1;
#X connect 0 0 4 0;
#X connect 1 0 5 0;
#X connect 2 0 7 0;
#X connect 4 0 3 0;
#X connect 5 0 3 0;
#X connect 6 0 4 1;
#X connect 7 0 8 0;
#X connect 7 0 5 1;
#X connect 8 0 9 0;
#X connect 9 0 6 0;
#X restore 148 562 pd wet-dry;
#X obj 320 350 osc~;
#X obj 319 408 *~ \$1;
#X obj 317 435 abs~;
#X obj 205 526 * 0.01;
#X obj 222 139 cnv 15 184 114 empty empty Flanger 4 8 0 12 -258112
-13381 0;
#X floatatom 263 157 5 0 100 0 freq - -, f 5;
#X floatatom 265 179 5 0 100 0 delay - -, f 5;
#X floatatom 264 201 5 0 100 0 depth - -, f 5;
#X obj 346 221 hradio 12 1 0 2 empty empty bypass -38 8 0 10 -228856
-1 -1 1;
#X obj 240 51 loadbang;
#X obj 416 466 vd~ \$0-delay;
#X obj 417 411 *~ \$1;
#X obj 415 438 abs~;
#X obj 416 355 osc~;
#X obj 472 583 outlet;
#X obj 197 309 bang;
#X msg 291 72 10 30 40 0;
#X floatatom 334 159 5 0 70 0 f-back - -, f 5;
#X obj 311 553 *~;
#X obj 312 667 s~ \$0-feedback;
#X obj 180 109 r~ \$0-feedback;
#X obj 334 528 * 0.007;
#X msg 439 309 0.5;
#X msg 350 305 0;
#X floatatom 335 178 5 0 100 0 phase - -, f 5;
#X obj 474 236 * 0.01;
#N canvas 413 384 757 439 tone 0;
#X obj 89 48 inlet~;
#X obj 86 252 outlet~;
#X obj 32 178 *~ \$1;
#X obj 143 178 *~ \$1;
#X floatatom 400 53 5 0 100 0 - - -, f 5;
#X msg 332 110 50;
#X obj 332 146 -;
#X floatatom 332 280 5 0 0 0 - - -, f 5;
#X obj 441 105 - 50;
#X obj 332 175 / 50;
#X obj 441 176 / 50;
#X obj 332 204 + 1;
#X obj 332 238 / 2;
#X floatatom 441 280 5 0 0 0 - - -, f 5;
#X obj 441 207 + 1;
#X obj 441 240 / 2;
#X obj 401 26 inlet;
#X obj 143 108 lop~ 800;
#X obj 33 110 hip~ 400;
#X connect 0 0 17 0;
#X connect 0 0 18 0;
#X connect 2 0 1 0;
#X connect 3 0 1 0;
#X connect 4 0 6 1;
#X connect 4 0 5 0;
#X connect 4 0 8 0;
#X connect 5 0 6 0;
#X connect 6 0 9 0;
#X connect 7 0 2 1;
#X connect 8 0 10 0;
#X connect 9 0 11 0;
#X connect 10 0 14 0;
#X connect 11 0 12 0;
#X connect 12 0 7 0;
#X connect 13 0 3 1;
#X connect 14 0 15 0;
#X connect 15 0 13 0;
#X connect 16 0 4 0;
#X connect 17 0 3 0;
#X connect 18 0 2 0;
#X restore 311 590 pd tone;
#X floatatom 344 197 5 0 100 0 f-tone - -, f 5;
#X obj 346 379 * 0.1;
#X obj 444 383 * 0.2;
#X obj 197 339 pack f f f f f f f;
#X obj 292 96 unpack f f f f f f f;
#X obj 413 283 * 0.03;
#X obj 247 286 * 0.03;
#X msg 240 84 1;
#X obj 40 -67 adc~;
#X obj 132 -21 * 100;
#X obj 283 -14 * 100;
#X obj 163 638 dac~;
#X obj 866 -48 r Channel-Push;
#X obj 861 -71 bng 15 250 50 0 empty empty empty 17 7 0 10 -262144
-1 -1;
#X text 475 65 based on MMP plugins https://forum.pdpatchrepo.info/topic/11290/mobmuplat-ready-effects-collection-i-e-30-vanilla-compliant-mmp-effects-w-gui
;
#X obj 427 -24 * 100;
#X obj 557 1 * 70;
#X obj 714 -18 * 100;
#X text 878 -72 tone;
#X obj 860 -19 random 100;
#X text 120 652 dry out on right channel;
#X connect 0 0 50 0;
#X connect 1 0 55 0;
#X connect 2 0 56 0;
#X connect 3 0 56 0;
#X connect 4 0 55 0;
#X connect 5 0 50 0;
#X connect 6 0 49 0;
#X connect 7 0 49 0;
#X connect 8 0 57 0;
#X connect 9 0 57 0;
#X connect 11 0 12 1;
#X connect 11 0 31 0;
#X connect 12 0 51 0;
#X connect 13 0 14 0;
#X connect 14 0 15 0;
#X connect 15 0 11 0;
#X connect 16 0 12 2;
#X connect 18 0 43 0;
#X connect 18 0 45 0;
#X connect 18 0 46 0;
#X connect 19 0 28 0;
#X connect 19 0 41 0;
#X connect 19 0 42 0;
#X connect 19 0 43 1;
#X connect 20 0 16 0;
#X connect 20 0 28 0;
#X connect 20 0 43 2;
#X connect 21 0 28 0;
#X connect 21 0 36 0;
#X connect 21 0 35 0;
#X connect 21 0 43 6;
#X connect 22 0 47 0;
#X connect 23 0 12 1;
#X connect 23 0 31 0;
#X connect 24 0 25 0;
#X connect 25 0 23 0;
#X connect 26 0 24 0;
#X connect 28 0 43 0;
#X connect 29 0 44 0;
#X connect 30 0 34 0;
#X connect 30 0 43 3;
#X connect 31 0 39 0;
#X connect 33 0 10 0;
#X connect 34 0 31 1;
#X connect 35 0 26 1;
#X connect 36 0 13 1;
#X connect 37 0 38 0;
#X connect 37 0 43 4;
#X connect 38 0 26 1;
#X connect 39 0 32 0;
#X connect 40 0 39 1;
#X connect 40 0 43 5;
#X connect 41 0 14 1;
#X connect 42 0 24 1;
#X connect 43 0 27 0;
#X connect 44 0 18 0;
#X connect 44 1 19 0;
#X connect 44 2 20 0;
#X connect 44 3 30 0;
#X connect 44 4 37 0;
#X connect 44 5 40 0;
#X connect 44 6 21 0;
#X connect 45 0 26 0;
#X connect 46 0 13 0;
#X connect 47 0 21 0;
#X connect 47 0 29 0;
#X connect 48 0 10 0;
#X connect 48 0 12 0;
#X connect 48 0 51 1;
#X connect 49 0 18 0;
#X connect 50 0 19 0;
#X connect 52 0 59 0;
#X connect 53 0 59 0;
#X connect 55 0 20 0;
#X connect 56 0 30 0;
#X connect 57 0 37 0;
#X connect 59 0 40 0;
