#N canvas 430 144 1441 766 10;
#X obj 681 589 bng 25 250 50 0 empty empty empty 17 7 0 10 -262144
-1 -1;
#X obj 713 659 s \$0-trigger;
#X obj 681 117 hsl 128 15 0 1 0 0 empty empty Gain -2 -8 0 10 -262144
-1 -1 0 1;
#X obj 683 209 hsl 128 15 0 1 0 0 empty empty Indice -2 -8 0 10 -262144
-1 -1 0 1;
#X obj 681 314 hsl 128 15 0 1 0 0 empty empty Attack -2 -8 0 10 -262144
-1 -1 0 1;
#X obj 684 499 hsl 128 15 0 1 0 0 empty empty exp -2 -8 0 10 -262144
-1 -1 0 1;
#X obj 688 525 r Channel-E;
#X obj 715 589 r Channel-Push;
#X obj 715 617 sel 1;
#X obj 681 270 s \$0-indice;
#X obj 695 234 r Channel-B;
#X obj 691 336 r Channel-C;
#X obj 689 431 r Channel-D;
#X obj 682 408 hsl 128 15 0 1 0 0 empty empty Mrelease -2 -8 0 10 -262144
-1 -1 0 1;
#X obj 692 142 r Channel-A;
#X obj 682 171 s \$0-gain;
#X obj 682 553 s \$0-exp;
#X obj 682 370 s \$0-Attack;
#X obj 682 459 s \$0-Release;
#X obj -119 312 cnv 15 700 400 empty empty empty 20 12 0 14 -191407
-66577 0;
#X obj 474 337 bng 80 250 50 0 snare_bang empty SNARE 7 37 0 22 -258113
-1 -1;
#X obj 155 333 vsl 15 128 2 200 0 1 snare_fall_time empty empty 0 -9
0 10 -262144 -1 -1 6286 1;
#X obj 233 333 vsl 15 128 35 150 0 1 snare_end_pitch empty empty 0
-9 0 10 -262144 -1 -1 1657 1;
#X obj 75 536 vsl 15 128 5 200 0 1 snare_noise_decay empty empty 0
-9 0 10 -262144 -1 -1 7490 1;
#X obj 77 333 vsl 15 128 40 400 0 1 snare_max_pitch empty empty 0 -9
0 10 -262144 -1 -1 9172 1;
#X obj 315 333 vsl 15 128 5 200 0 1 snare_amp_decay empty empty 0 -9
0 10 -262144 -1 -1 4885 1;
#X obj -78 330 vsl 15 128 1 800 0 1 snare_fm_pitch empty empty 0 -9
0 10 -262144 -1 -1 4753 1;
#N canvas 0 135 733 689 snare 1;
#X obj 231 411 osc~;
#X obj 330 218 t b b;
#X obj 315 467 *~;
#X obj 330 290 pack;
#X obj 330 268 f;
#X msg 330 313 0 \$1;
#X obj 330 246 del 2;
#X obj 375 243 nbx 5 14 50 8000 0 1 empty snare_amp_decay empty 0 -8
0 10 -262144 -1 -1 80 256;
#X text 376 226 amp decay;
#X obj 575 143 nbx 5 14 5 600 0 1 empty snare_noise_decay empty 0 -8
0 10 -262144 -1 -1 120 256;
#X obj 330 364 line~;
#X obj 330 404 *~;
#X obj 204 68 t b b;
#X obj 231 339 line~;
#X obj 172 212 nbx 5 14 -1e+37 1e+37 0 1 empty snare_fall_time empty
0 -8 0 10 -262144 -1 -1 100 256;
#X obj 166 149 nbx 5 14 -1e+37 1e+37 0 0 empty snare_end_pitch empty
0 -8 0 10 -262144 -1 -1 50 256;
#X obj 246 170 nbx 5 14 -1e+37 1e+37 0 1 empty snare_max_pitch empty
0 -8 0 10 -262144 -1 -1 300 256;
#X obj 151 234 pack;
#X msg 151 259 \$1 \$2;
#X text 245 151 max pitch;
#X obj 231 236 pack;
#X obj 270 299 nbx 5 14 1 15000 0 0 empty snare_fm_pitch empty 0 -8
0 10 -262144 -1 -1 300 256;
#X obj 330 36 bng 15 250 50 0 empty snare_bang empty 17 7 0 10 -262144
-1 -1;
#X msg 95 282 0 0;
#X obj 95 229 loadbang;
#X obj 95 258 del 2;
#X obj 231 195 f;
#X obj 151 171 f;
#X obj 151 108 del 1;
#X msg 231 261 \$1 0;
#X obj 270 324 osc~;
#X text 163 130 end pitch;
#X text 173 193 fall time;
#X obj 446 322 noise~;
#X text 574 125 noise decay;
#X obj 560 186 t b b;
#X obj 560 258 pack;
#X obj 560 236 f;
#X msg 560 281 0 \$1;
#X obj 560 322 line~;
#X obj 560 357 *~;
#X obj 446 401 *~;
#X obj 563 397 nbx 5 14 0 1 0 1 empty snare_noise_level empty 0 -8
0 10 -262144 -1 -1 0.3 256;
#X text 558 380 noise level;
#X floatatom 578 425 5 0 0 0 - - -, f 5;
#X obj 563 449 *;
#X obj 446 493 *~;
#X msg 606 281 1 0;
#X msg 377 313 1 1.5;
#X obj 315 494 hip~ 400;
#X obj 315 518 hip~ 400;
#X obj 379 468 nbx 5 14 0 5000 0 0 empty snare_hpf empty 0 -8 0 10
-262144 -1 -1 200 256;
#X text 378 450 HPF;
#X obj 446 351 lop~ 1000;
#X obj 497 324 nbx 5 14 0 10000 0 0 empty snare_lpf empty 0 -8 0 10
-262144 -1 -1 5000 256;
#X text 496 306 LPF;
#X text 269 281 FM pitch;
#X obj 231 376 +~;
#X obj 270 347 *~ 130;
#X obj 272 259 nbx 5 14 0 1000 0 1 empty snare_fm_depth empty 0 -8
0 10 -262144 -1 -1 50 256;
#X text 276 243 FM depth;
#X obj 371 589 outlet~;
#X connect 0 0 2 0;
#X connect 1 0 6 0;
#X connect 1 1 48 0;
#X connect 2 0 49 0;
#X connect 3 0 5 0;
#X connect 4 0 3 0;
#X connect 5 0 10 0;
#X connect 6 0 4 0;
#X connect 7 0 4 1;
#X connect 9 0 37 1;
#X connect 10 0 11 1;
#X connect 10 0 11 0;
#X connect 11 0 2 1;
#X connect 12 0 28 0;
#X connect 12 1 26 0;
#X connect 13 0 57 0;
#X connect 14 0 17 1;
#X connect 15 0 27 1;
#X connect 16 0 26 1;
#X connect 17 0 18 0;
#X connect 18 0 13 0;
#X connect 20 0 29 0;
#X connect 21 0 30 0;
#X connect 22 0 12 0;
#X connect 22 0 1 0;
#X connect 22 0 35 0;
#X connect 23 0 13 0;
#X connect 24 0 25 0;
#X connect 25 0 23 0;
#X connect 26 0 20 0;
#X connect 27 0 17 0;
#X connect 28 0 27 0;
#X connect 29 0 13 0;
#X connect 30 0 58 0;
#X connect 33 0 53 0;
#X connect 35 0 37 0;
#X connect 35 1 47 0;
#X connect 36 0 38 0;
#X connect 37 0 36 0;
#X connect 38 0 39 0;
#X connect 39 0 40 0;
#X connect 39 0 40 1;
#X connect 40 0 41 1;
#X connect 41 0 46 0;
#X connect 42 0 44 0;
#X connect 42 0 45 0;
#X connect 44 0 45 1;
#X connect 45 0 46 1;
#X connect 46 0 61 0;
#X connect 47 0 39 0;
#X connect 48 0 10 0;
#X connect 49 0 50 0;
#X connect 50 0 61 0;
#X connect 51 0 49 1;
#X connect 51 0 50 1;
#X connect 53 0 41 0;
#X connect 54 0 53 1;
#X connect 57 0 0 0;
#X connect 58 0 57 1;
#X connect 59 0 58 1;
#X restore 512 672 pd snare;
#X text 296 465 Tone Decay;
#X text 214 465 End Pitch;
#X text 57 465 Start Pitch;
#X text 136 465 Fall Time;
#X text 53 668 Noise Decay;
#X obj 154 536 vsl 15 128 0 0.6 0 1 snare_noise_level empty empty 0
-9 0 10 -262144 -1 -1 6350 1;
#X text 132 668 Noise Level;
#X obj 394 334 vsl 15 128 0 500 0 1 snare_hpf empty empty 0 -9 0 10
-262144 -1 -1 5080 1;
#X obj -3 533 vsl 15 128 1000 10000 0 1 snare_lpf empty empty 0 -9
0 10 -262144 -1 -1 5644 1;
#X text 380 466 Tone HPF;
#X text -18 665 Noise LPF;
#X text -98 462 FM Pitch;
#X obj -6 332 vsl 15 128 0 300 0 1 snare_fm_depth empty empty 0 -9
0 10 -262144 -1 -1 2117 1;
#X text -26 464 FM Depth;
#X obj 474 253 r \$0-trigger;
#X text 123 197 taken from https://forum.pdpatchrepo.info/topic/9511/looking-for-good-drum-synths/11
;
#X msg -40 279 300;
#X msg -2 279 50;
#X msg 85 278 300;
#X msg 162 295 100;
#X msg 226 281 50;
#X msg 317 277 80;
#X msg 395 279 200;
#X msg -4 498 5000;
#X msg 73 503 120;
#X msg 159 496 0.3;
#X obj 503 724 dac~;
#X obj -87 194 bang;
#X connect 0 0 1 0;
#X connect 2 0 15 0;
#X connect 3 0 9 0;
#X connect 4 0 17 0;
#X connect 5 0 16 0;
#X connect 6 0 16 0;
#X connect 7 0 8 0;
#X connect 8 0 1 0;
#X connect 10 0 9 0;
#X connect 11 0 17 0;
#X connect 12 0 18 0;
#X connect 13 0 18 0;
#X connect 14 0 15 0;
#X connect 27 0 54 0;
#X connect 27 0 54 1;
#X connect 42 0 20 0;
#X connect 42 0 55 0;
#X connect 44 0 26 0;
#X connect 45 0 40 0;
#X connect 46 0 24 0;
#X connect 47 0 21 0;
#X connect 48 0 22 0;
#X connect 49 0 25 0;
#X connect 50 0 35 0;
#X connect 51 0 36 0;
#X connect 52 0 23 0;
#X connect 53 0 33 0;
#X connect 55 0 44 0;
#X connect 55 0 45 0;
#X connect 55 0 46 0;
#X connect 55 0 47 0;
#X connect 55 0 48 0;
#X connect 55 0 49 0;
#X connect 55 0 50 0;
#X connect 55 0 51 0;
#X connect 55 0 52 0;
#X connect 55 0 53 0;
