#N canvas 437 78 1441 766 10;
#X obj 681 589 bng 25 250 50 0 empty empty empty 17 7 0 10 -262144
-1 -1;
#X obj 713 659 s \$0-trigger;
#X obj 681 117 hsl 128 15 0 1 0 0 empty empty Gain -2 -8 0 10 -262144
-1 -1 9900 1;
#X obj 683 209 hsl 128 15 0 1 0 0 empty empty Indice -2 -8 0 10 -262144
-1 -1 0 1;
#X obj 681 314 hsl 128 15 0 1 0 0 empty empty Attack -2 -8 0 10 -262144
-1 -1 0 1;
#X obj 684 499 hsl 128 15 0 1 0 0 empty empty exp -2 -8 0 10 -262144
-1 -1 0 1;
#X obj 688 525 r Channel-E;
#X obj 715 589 r Channel-Push;
#X obj 715 617 sel 1;
#X obj 681 270 s \$0-indice;
#X obj 695 234 r Channel-B;
#X obj 691 336 r Channel-C;
#X obj 689 431 r Channel-D;
#X obj 682 408 hsl 128 15 0 1 0 0 empty empty Mrelease -2 -8 0 10 -262144
-1 -1 7100 1;
#X obj 692 142 r Channel-A;
#X obj 682 171 s \$0-gain;
#X obj 682 553 s \$0-exp;
#X obj 682 370 s \$0-Attack;
#X obj 682 459 s \$0-Release;
#X obj -119 312 cnv 15 700 400 empty empty empty 20 12 0 14 -191407
-66577 0;
#X obj 474 337 bng 80 250 50 0 snare_bang empty SNARE 7 37 0 22 -258113
-1 -1;
#X obj 155 333 vsl 15 128 2 200 0 1 snare_fall_time empty empty 0 -9
0 10 -262144 -1 -1 6286 1;
#X obj 233 333 vsl 15 128 35 150 0 1 snare_end_pitch empty empty 0
-9 0 10 -262144 -1 -1 1657 1;
#X obj 75 536 vsl 15 128 5 200 0 1 snare_noise_decay empty empty 0
-9 0 10 -262144 -1 -1 7490 1;
#X obj 77 333 vsl 15 128 40 400 0 1 snare_max_pitch empty empty 0 -9
0 10 -262144 -1 -1 9172 1;
#X obj 315 333 vsl 15 128 5 200 0 1 snare_amp_decay empty empty 0 -9
0 10 -262144 -1 -1 4885 1;
#X obj -78 330 vsl 15 128 1 800 0 1 snare_fm_pitch empty empty 0 -9
0 10 -262144 -1 -1 4753 1;
#X text 296 465 Tone Decay;
#X text 214 465 End Pitch;
#X text 57 465 Start Pitch;
#X text 136 465 Fall Time;
#X text 53 668 Noise Decay;
#X obj 154 536 vsl 15 128 0 0.6 0 1 snare_noise_level empty empty 0
-9 0 10 -262144 -1 -1 6350 1;
#X text 132 668 Noise Level;
#X obj 394 334 vsl 15 128 0 500 0 1 snare_hpf empty empty 0 -9 0 10
-262144 -1 -1 5080 1;
#X obj -3 533 vsl 15 128 1000 10000 0 1 snare_lpf empty empty 0 -9
0 10 -262144 -1 -1 5644 1;
#X text 380 466 Tone HPF;
#X text -18 665 Noise LPF;
#X text -98 462 FM Pitch;
#X obj -6 332 vsl 15 128 0 300 0 1 snare_fm_depth empty empty 0 -9
0 10 -262144 -1 -1 2117 1;
#X text -26 464 FM Depth;
#X obj 474 253 r \$0-trigger;
#X text 123 197 taken from https://forum.pdpatchrepo.info/topic/9511/looking-for-good-drum-synths/11
;
#X msg -40 279 300;
#X msg -2 279 50;
#X msg 85 278 300;
#X msg 162 295 100;
#X msg 226 281 50;
#X msg 317 277 80;
#X msg 395 279 200;
#X msg -4 498 5000;
#X msg 73 503 120;
#X msg 159 496 0.3;
#X obj 503 724 dac~;
#X obj -87 194 bang;
#X obj 512 670 snare;
#X connect 0 0 1 0;
#X connect 2 0 15 0;
#X connect 3 0 9 0;
#X connect 4 0 17 0;
#X connect 5 0 16 0;
#X connect 6 0 16 0;
#X connect 7 0 8 0;
#X connect 8 0 1 0;
#X connect 10 0 9 0;
#X connect 11 0 17 0;
#X connect 12 0 18 0;
#X connect 13 0 18 0;
#X connect 14 0 15 0;
#X connect 41 0 20 0;
#X connect 41 0 54 0;
#X connect 43 0 26 0;
#X connect 44 0 39 0;
#X connect 45 0 24 0;
#X connect 46 0 21 0;
#X connect 47 0 22 0;
#X connect 48 0 25 0;
#X connect 49 0 34 0;
#X connect 50 0 35 0;
#X connect 51 0 23 0;
#X connect 52 0 32 0;
#X connect 54 0 43 0;
#X connect 54 0 44 0;
#X connect 54 0 45 0;
#X connect 54 0 46 0;
#X connect 54 0 47 0;
#X connect 54 0 48 0;
#X connect 54 0 49 0;
#X connect 54 0 50 0;
#X connect 54 0 51 0;
#X connect 54 0 52 0;
#X connect 55 0 53 0;
#X connect 55 0 53 1;
