#N canvas 206 221 1920 1021 10;
#N canvas 0 50 612 483 equal_power_crossfade 0;
#X obj 33 48 inlet~;
#X obj 244 58 inlet;
#X obj 33 332 outlet~;
#X obj 319 54 loadbang;
#X msg 319 74 0.5;
#X obj 49 194 expr cos($f1 * 3.14159 / 2);
#X obj 244 194 expr sin($f1 * 3.14159 / 2);
#X obj 244 134 clip 0 1;
#N canvas 0 50 450 300 pan_core 0;
#X obj 21 106 inlet~;
#X obj 226 126 inlet;
#X obj 80 453 *~;
#X obj 144 497 outlet~;
#X obj 210 452 *~;
#X obj 226 428 line~;
#X obj 96 428 line~;
#X obj 96 127 inlet;
#X obj 179 104 inlet~;
#X text 244 544 comment;
#X obj 96 389 pack f 5;
#X obj 226 389 pack f 5;
#X text 223 540 Hans-Christoph Steiner \, 2004;
#X text 223 526 Adapted from [pan_core~];
#X connect 0 0 2 0;
#X connect 1 0 11 0;
#X connect 2 0 3 0;
#X connect 4 0 3 0;
#X connect 5 0 4 1;
#X connect 6 0 2 1;
#X connect 7 0 10 0;
#X connect 8 0 4 0;
#X connect 10 0 6 0;
#X connect 11 0 5 0;
#X restore 39 266 pd pan_core;
#X text 256 437 Adapted from [equal_power_pan~] \, Hans-Christoph Steiner
\, 2004;
#X text 411 449 comment;
#X obj 128 46 inlet~;
#X connect 0 0 8 0;
#X connect 1 0 7 0;
#X connect 3 0 4 0;
#X connect 4 0 7 0;
#X connect 5 0 8 1;
#X connect 6 0 8 3;
#X connect 7 0 5 0;
#X connect 7 0 6 0;
#X connect 8 0 2 0;
#X connect 11 0 8 2;
#X restore -29 877 pd equal_power_crossfade;
#X obj 500 29 hsl 67 15 0 1 0 0 empty empty empty -2 -8 0 10 -262144
-1 -1 3300 1;
#X obj 454 246 t b f;
#X obj 454 224 - 1;
#X floatatom 455 312 5 0 0 0 - - -, f 5;
#X obj 454 202 * 2;
#X msg 455 268 10;
#X obj 455 290 pow;
#X obj 588 29 hsl 67 15 0 1 0 0 empty empty empty -2 -8 0 10 -262144
-1 -1 3300 1;
#X obj 542 247 t b f;
#X obj 542 225 - 1;
#X obj 542 203 * 2;
#X msg 543 269 10;
#X obj 543 291 pow;
#X msg 254 494 0;
#X obj 236 697 phasor~ 0;
#X obj 153 168 hsl 128 15 0 145440 0 0 \$0-start-s \$0-start start
2 8 0 10 -262144 -258113 -1 10400 1;
#X obj 153 185 hsl 128 15 0 145440 0 0 \$0-stop-s \$0-stop end 2 8
0 10 -262144 -258113 -1 500 1;
#X obj 237 736 *~ 1;
#X obj 840 738 table \$0-sample 4.41e+06;
#X obj 145 771 +~ 0;
#X text 184 772 offset;
#X obj 176 614 t b f;
#X msg 292 295 0;
#X obj 329 725 fexpr~ $x[0] < $x[-1];
#X obj 329 765 threshold~ 0.5 1 0.1 1;
#X obj 153 136 hsl 128 15 0.1 10 1 0 \$0-speed-s empty speed(fw-only)
2 8 0 10 -262144 -258113 -1 459 1;
#X obj 153 151 hsl 128 15 0.1 10 1 0 \$0-pitch-s empty pitch(fw-only)
2 8 0 10 -262144 -258113 -1 3298 1;
#X obj 92 496 r \$0-start-s;
#X obj 92 521 t b f f;
#X obj 5 614 r \$0-stop-s;
#X obj 330 559 r \$0-speed-s;
#N canvas 254 93 717 606 recording 0;
#X msg 164 110 stop;
#X obj 97 80 sel start stop;
#X obj 222 172 tabwrite~ \$0-sample;
#X obj 168 265 f;
#X msg 410 158 \; \$1-sample const 0;
#X obj 410 134 \$0;
#X obj 97 113 t b b b b;
#X obj 97 30 inlet;
#X obj 221 30 inlet~;
#X obj 201 242 samplerate~;
#N canvas 370 460 450 300 counter 0;
#X obj 63 22 inlet;
#X obj 115 24 inlet;
#X obj 63 140 outlet;
#X msg 115 69 0;
#X obj 63 67 metro 1;
#X obj 100 110 + 1;
#X obj 63 109 f;
#X connect 0 0 4 0;
#X connect 1 0 3 0;
#X connect 3 0 6 0;
#X connect 4 0 6 0;
#X connect 5 0 6 1;
#X connect 6 0 5 0;
#X connect 6 0 2 0;
#X restore 97 197 pd counter;
#X obj 168 323 outlet;
#X obj 201 271 / 1000;
#X obj 168 293 * 4.41;
#X obj 164 170 t a b b;
#X connect 0 0 2 0;
#X connect 0 0 14 0;
#X connect 1 0 6 0;
#X connect 1 1 0 0;
#X connect 3 0 13 0;
#X connect 5 0 4 0;
#X connect 6 0 10 0;
#X connect 6 1 10 1;
#X connect 6 2 2 0;
#X connect 6 3 5 0;
#X connect 7 0 1 0;
#X connect 8 0 2 0;
#X connect 9 0 12 0;
#X connect 10 0 3 1;
#X connect 12 0 13 1;
#X connect 13 0 11 0;
#X connect 14 0 10 0;
#X connect 14 1 3 0;
#X connect 14 2 9 0;
#X restore -18 531 pd recording;
#N canvas 87 111 448 424 phasor-freq-calc 0;
#X obj 42 37 inlet;
#X obj 86 36 inlet;
#X obj 137 35 inlet;
#X obj 42 336 outlet;
#X obj 107 334 outlet;
#X obj 187 35 inlet;
#X obj 234 36 inlet;
#X obj 42 161 t b f;
#X obj 42 214 /;
#X obj 42 244 f;
#X obj 42 104 -;
#X obj 42 75 f;
#X obj 42 132 t f f;
#X obj 42 270 spigot;
#X obj 42 298 * 1;
#X obj 42 187 samplerate~;
#X connect 0 0 11 0;
#X connect 1 0 10 1;
#X connect 2 0 9 0;
#X connect 5 0 13 1;
#X connect 6 0 14 1;
#X connect 7 0 15 0;
#X connect 7 1 8 1;
#X connect 8 0 9 0;
#X connect 9 0 13 0;
#X connect 10 0 12 0;
#X connect 11 0 10 0;
#X connect 12 0 7 0;
#X connect 12 1 4 0;
#X connect 13 0 14 0;
#X connect 14 0 3 0;
#X connect 15 0 8 0;
#X restore 92 663 pd phasor-freq-calc;
#X obj 291 266 r \$0-reset-s;
#X obj 310 814 s \$0-reset;
#X msg 227 493 0;
#X msg 174 494 1;
#X obj 840 778 table \$0-hanning 256;
#N canvas 44 51 443 256 write-hanning 0;
#X msg 142 80 0;
#X obj 36 129 osc~;
#X obj 36 81 samplerate~;
#X obj 36 152 *~ -0.5;
#X obj 36 175 +~ 0.5;
#X obj 28 58 bng 15 250 50 0 empty empty empty 0 -6 0 8 -262144 -1
-1;
#X obj 28 26 loadbang;
#X obj 36 105 / 256;
#X obj 28 200 tabwrite~ \$0-hanning;
#X connect 0 0 1 1;
#X connect 1 0 3 0;
#X connect 2 0 7 0;
#X connect 3 0 4 0;
#X connect 4 0 8 0;
#X connect 5 0 2 0;
#X connect 5 0 0 0;
#X connect 5 0 8 0;
#X connect 6 0 5 0;
#X connect 7 0 1 0;
#X restore 839 805 pd write-hanning;
#N canvas 713 138 526 599 read-table 0;
#X obj 89 83 / 256;
#X obj 89 56 * 44100;
#X obj 15 30 inlet~;
#X obj 89 28 inlet;
#X obj 233 429 outlet~;
#X obj 18 258 tabread4~ \$0-sample;
#X obj 89 117 phasor~;
#X obj 16 196 samphold~;
#X obj 98 198 *~ 256;
#X obj 17 232 +~;
#X obj 43 288 *~;
#X obj 149 260 tabread4~ \$0-hanning;
#X obj 374 152 +~ 0.5;
#X obj 374 181 wrap~;
#X obj 304 273 tabread4~ \$0-sample;
#X obj 302 211 samphold~;
#X obj 384 213 *~ 256;
#X obj 303 247 +~;
#X obj 329 303 *~;
#X obj 435 275 tabread4~ \$0-hanning;
#X obj 234 395 +~;
#X obj 128 -4 loadbang;
#X obj 128 22 samplerate~;
#X connect 0 0 6 0;
#X connect 1 0 0 0;
#X connect 2 0 7 0;
#X connect 2 0 15 0;
#X connect 3 0 1 0;
#X connect 5 0 10 0;
#X connect 6 0 7 1;
#X connect 6 0 8 0;
#X connect 6 0 12 0;
#X connect 7 0 9 0;
#X connect 8 0 9 1;
#X connect 8 0 11 0;
#X connect 9 0 5 0;
#X connect 10 0 20 0;
#X connect 11 0 10 1;
#X connect 12 0 13 0;
#X connect 13 0 16 0;
#X connect 13 0 15 1;
#X connect 14 0 18 0;
#X connect 15 0 17 0;
#X connect 16 0 17 1;
#X connect 16 0 19 0;
#X connect 17 0 14 0;
#X connect 18 0 20 1;
#X connect 19 0 18 1;
#X connect 20 0 4 0;
#X connect 21 0 22 0;
#X connect 22 0 1 1;
#X restore 144 822 pd read-table;
#X obj 219 796 r \$0-pitch-s;
#X obj 143 887 *~ 0;
#X obj 125 453 t b b b b;
#X msg 164 856 1;
#X msg 206 856 0;
#X obj 153 102 hsl 90 15 0 1 0 0 empty \$0-pos position 2 7 0 10 -228856
-1 -1 5595 1;
#X obj 74 800 s \$0-pos;
#X obj 74 770 snapshot~;
#X obj 74 734 metro 10;
#X obj 74 703 loadbang;
#X obj 227 465 t b b b b;
#X obj 48 473 soundfiler;
#N canvas 364 326 450 300 set_length 0;
#X obj 91 24 inlet;
#X obj 186 142 s \$0-stop;
#X obj 91 150 s \$0-start;
#X msg 91 111 0;
#X msg 186 90 range 0 \$1;
#X msg 106 88 range 0 \$1;
#X obj 151 226 s \$0-speed;
#X msg 151 193 1;
#X obj 91 57 t b f f f b b;
#X obj 285 117 s \$0-pitch;
#X msg 285 88 1;
#X obj 305 234 outlet;
#X connect 0 0 8 0;
#X connect 3 0 2 0;
#X connect 4 0 1 0;
#X connect 5 0 2 0;
#X connect 7 0 6 0;
#X connect 8 0 3 0;
#X connect 8 1 5 0;
#X connect 8 1 11 0;
#X connect 8 2 1 0;
#X connect 8 3 4 0;
#X connect 8 4 7 0;
#X connect 8 5 10 0;
#X connect 10 0 9 0;
#X restore -26 584 pd set_length;
#X obj 18 231 route rec open play;
#X msg 48 448 read \$1 \$2;
#X obj -20 334 symbol;
#X obj -20 356 t s b;
#X obj 7 381 symbol \$0-sample;
#X obj -20 406 pack s s;
#X msg 615 377 -1;
#X msg 652 376 1;
#X obj 174 298 bng 15 250 50 0 empty empty FW 17 7 0 10 -262144 -1
-1;
#X obj 342 45 bng 15 250 50 0 empty empty rev 17 7 0 10 -262144 -1
-1;
#X floatatom 224 201 9 0 0 0 samplen - -, f 9;
#X obj 450 575 s \$0-sample-length;
#X obj 745 380 r \$0-sample-length;
#X obj 618 614 phasor~;
#X obj 617 683 *~;
#X obj 632 636 r \$0-sample-length;
#X obj 632 659 sig~;
#X obj 618 535 sig~;
#X obj 617 584 *~ 1;
#X msg 745 403 44100 \$1;
#X obj 745 426 /;
#X obj 619 724 tabread4~ \$0-sample;
#X msg 690 377 0;
#X obj 313 76 bng 15 250 50 0 empty empty stp 0 8 0 10 -262144 -1 -1
;
#X obj 746 450 v phasorfreq;
#X floatatom 617 510 5 0 0 0 - - -, f 5;
#X msg 616 458 bang;
#X obj 617 488 v phasorfreq;
#N canvas 3 57 1265 686 rec_play_switch 0;
#X msg 27 217 rec start;
#X msg 95 220 rec stop;
#X msg 163 222 play start;
#X msg 257 222 play stop;
#X obj 101 5 inlet;
#X obj 143 6 inlet;
#X obj 124 330 outlet;
#X msg 130 60 1;
#X msg 163 60 0;
#X obj 103 34 route bang 1 0;
#N canvas 474 92 450 300 switch-bang 0;
#X obj 102 54 inlet;
#X obj 102 189 outlet;
#X obj 148 190 outlet;
#X obj 102 102 tgl 30 0 empty empty empty 0 -6 0 10 -258113 -1 -1 0
1;
#X obj 102 157 sel 1 0;
#X connect 0 0 3 0;
#X connect 3 0 4 0;
#X connect 4 0 1 0;
#X connect 4 1 2 0;
#X coords 0 -1 1 1 34 34 2 100 100;
#X restore 208 103 pd switch-bang;
#N canvas 474 95 450 300 switch-bang 0;
#X obj 102 54 inlet;
#X obj 102 189 outlet;
#X obj 148 190 outlet;
#X obj 102 102 tgl 30 0 empty empty REC 0 15 0 15 -258113 -1 -1 0 1
;
#X obj 102 157 sel 1 0;
#X connect 0 0 3 0;
#X connect 3 0 4 0;
#X connect 4 0 1 0;
#X connect 4 1 2 0;
#X coords 0 -1 1 1 34 34 2 100 100;
#X restore 104 103 pd switch-bang;
#X connect 0 0 6 0;
#X connect 1 0 6 0;
#X connect 2 0 6 0;
#X connect 3 0 6 0;
#X connect 4 0 9 0;
#X connect 5 0 10 0;
#X connect 7 0 11 0;
#X connect 8 0 11 0;
#X connect 9 0 11 0;
#X connect 9 1 7 0;
#X connect 9 2 8 0;
#X connect 9 3 6 0;
#X connect 10 0 2 0;
#X connect 10 1 3 0;
#X connect 11 0 0 0;
#X connect 11 1 1 0;
#X coords 0 -1 1 1 40 40 2 100 100;
#X restore 103 104 pd rec_play_switch;
#X obj 205 120 tgl 15 0 empty empty st|bw 17 7 0 10 -262144 -1 -1 0
1;
#X obj 151 120 tgl 15 0 empty empty st|fw 17 7 0 10 -262144 -1 -1 1
1;
#X obj 212 284 sel 0 1;
#X obj 309 16 sel 0 1;
#X msg 171 326 play start;
#X msg 175 358 play stop;
#X obj 623 899 s~ \$0-LOOPSOUT;
#X obj 42 836 r~ \$0-LOOPSOUT;
#X obj 125 427 sel start stop;
#X obj 46 325 symbol;
#X obj 107 329 symbol;
#X floatatom 543 313 5 0 0 0 - - -, f 5;
#X obj 884 -55 loadbang;
#X msg 884 -33 0.5;
#X obj 102 65 sel 0 1;
#X obj 1039 900 outlet;
#X obj 106 150 vsl 15 60 0 1 0 0 empty crossfade dry|wet 0 12 0 10
-262144 -1 -1 2950 1;
#X obj 682 29 *;
#X obj 772 30 *;
#X obj 119 19 tgl 15 0 empty empty empty 17 7 0 10 -262144 -1 -1 0
1;
#X obj 118 40 change;
#X obj -29 899 dac~;
#X obj -32 78 adc~;
#X text 813 221 based on MMP plugins https://forum.pdpatchrepo.info/topic/11290/mobmuplat-ready-effects-collection-i-e-30-vanilla-compliant-mmp-effects-w-gui
;
#X obj 282 -137 hsl 128 15 0 1 0 0 empty empty pitch -2 -8 0 10 -262144
-1 -1 4200 1;
#X obj 426 -137 hsl 128 15 0 1 0 0 empty empty beginpos -2 -8 0 10
-262144 -1 -1 0 1;
#X obj 570 -137 hsl 128 15 0 1 0 0 empty empty endpos -2 -8 0 10 -262144
-1 -1 0 1;
#X obj 576 -116 r Channel-D;
#X obj 433 -116 r Channel-C;
#X obj 292 -116 r Channel-B;
#X obj 137 -137 hsl 128 15 0 1 0 0 empty empty speed -2 -8 0 10 -262144
-1 -1 1500 1;
#X obj 144 -116 r Channel-A;
#X obj 740 -118 r Channel-Push;
#X obj 735 -141 bng 15 250 50 0 empty empty empty 17 7 0 10 -262144
-1 -1;
#X obj 135 -90 * 1;
#X obj 285 -84 * 1;
#X obj 429 -93 * 1;
#X obj 572 -90 * 1;
#X text 752 -142 record;
#X connect 0 0 104 0;
#X connect 1 0 5 0;
#X connect 2 0 6 0;
#X connect 2 1 7 1;
#X connect 3 0 2 0;
#X connect 4 0 26 0;
#X connect 5 0 3 0;
#X connect 6 0 7 0;
#X connect 7 0 4 0;
#X connect 8 0 11 0;
#X connect 9 0 12 0;
#X connect 9 1 13 1;
#X connect 10 0 9 0;
#X connect 11 0 10 0;
#X connect 12 0 13 0;
#X connect 13 0 94 0;
#X connect 14 0 15 0;
#X connect 15 0 18 0;
#X connect 15 0 24 0;
#X connect 15 0 48 0;
#X connect 18 0 20 0;
#X connect 20 0 40 0;
#X connect 22 0 33 2;
#X connect 22 1 33 4;
#X connect 23 0 15 1;
#X connect 24 0 25 0;
#X connect 25 0 35 0;
#X connect 28 0 29 0;
#X connect 29 0 33 0;
#X connect 29 1 33 1;
#X connect 29 2 20 1;
#X connect 30 0 33 0;
#X connect 31 0 22 0;
#X connect 32 0 53 0;
#X connect 33 0 15 0;
#X connect 33 1 18 1;
#X connect 34 0 23 0;
#X connect 36 0 33 3;
#X connect 37 0 33 3;
#X connect 40 0 42 0;
#X connect 41 0 40 1;
#X connect 42 0 89 0;
#X connect 43 0 33 0;
#X connect 43 1 37 0;
#X connect 43 2 23 0;
#X connect 43 3 44 0;
#X connect 44 0 42 1;
#X connect 45 0 42 1;
#X connect 48 0 47 0;
#X connect 49 0 48 0;
#X connect 50 0 49 0;
#X connect 51 0 36 0;
#X connect 51 1 14 0;
#X connect 51 2 45 0;
#X connect 51 3 23 0;
#X connect 52 0 53 0;
#X connect 53 0 64 0;
#X connect 54 0 92 0;
#X connect 54 1 56 0;
#X connect 54 2 93 0;
#X connect 55 0 52 0;
#X connect 56 0 57 0;
#X connect 57 0 59 0;
#X connect 57 1 58 0;
#X connect 58 0 59 1;
#X connect 59 0 55 0;
#X connect 60 0 72 1;
#X connect 60 0 80 0;
#X connect 61 0 72 1;
#X connect 61 0 80 0;
#X connect 62 0 87 0;
#X connect 63 0 60 0;
#X connect 64 0 65 0;
#X connect 64 0 100 1;
#X connect 64 0 101 1;
#X connect 66 0 73 0;
#X connect 67 0 68 0;
#X connect 68 0 75 0;
#X connect 69 0 70 0;
#X connect 70 0 68 1;
#X connect 71 0 72 0;
#X connect 72 0 67 0;
#X connect 73 0 74 0;
#X connect 74 0 78 0;
#X connect 75 0 89 0;
#X connect 76 0 72 1;
#X connect 76 0 80 0;
#X connect 77 0 76 0;
#X connect 79 0 71 0;
#X connect 80 0 81 0;
#X connect 81 0 79 0;
#X connect 82 0 54 0;
#X connect 83 0 86 0;
#X connect 84 0 85 0;
#X connect 85 0 88 0;
#X connect 85 1 62 0;
#X connect 86 0 77 0;
#X connect 86 1 63 0;
#X connect 87 0 54 0;
#X connect 88 0 54 0;
#X connect 90 0 0 1;
#X connect 91 0 43 0;
#X connect 91 1 51 0;
#X connect 92 0 32 0;
#X connect 92 0 98 0;
#X connect 93 0 91 0;
#X connect 94 0 27 0;
#X connect 95 0 96 0;
#X connect 96 0 1 0;
#X connect 96 0 8 0;
#X connect 96 0 99 0;
#X connect 97 0 82 0;
#X connect 97 1 82 0;
#X connect 99 0 0 2;
#X connect 100 0 16 0;
#X connect 101 0 17 0;
#X connect 102 0 103 0;
#X connect 102 0 86 0;
#X connect 103 0 97 0;
#X connect 105 0 0 0;
#X connect 105 0 32 1;
#X connect 107 0 118 0;
#X connect 108 0 119 0;
#X connect 109 0 120 0;
#X connect 110 0 120 0;
#X connect 111 0 119 0;
#X connect 112 0 118 0;
#X connect 113 0 117 0;
#X connect 114 0 117 0;
#X connect 115 0 102 0;
#X connect 116 0 102 0;
#X connect 117 0 26 0;
#X connect 118 0 27 0;
#X connect 119 0 16 0;
#X connect 120 0 17 0;
