#N canvas 390 166 498 404 10;
#X obj 106 145 vsl 15 128 0 500 0 0 empty empty empty 0 -9 0 10 -262144
-1 -1 7100 1;
#X obj 143 145 vsl 15 100 0 1000 0 0 empty empty empty 0 -9 0 10 -262144
-1 -1 2900 1;
#X obj 178 145 vsl 15 128 0 500 0 0 empty empty empty 0 -9 0 10 -262144
-1 -1 7800 1;
#X obj 214 146 vsl 15 100 0 2000 0 0 empty empty empty 0 -9 0 10 -262144
-1 -1 4400 1;
#X obj 83 374 vline~;
#X obj 79 244 bng 15 250 50 0 empty empty empty 17 7 0 10 -262144 -1
-1;
#X obj 250 145 vsl 15 100 0 2000 0 0 empty empty empty 0 -9 0 10 -262144
-1 -1 300 1;
#X obj 85 294 pack f f f f f f;
#X msg 83 325 1 \$2 \, \$4 \$3 \$2 \, 0 \$5 \$6;
#X floatatom 248 123 5 0 0 0 - - -, f 5;
#X floatatom 106 123 5 0 0 0 - - -, f 5;
#X floatatom 142 123 5 0 0 0 - - -, f 5;
#X floatatom 178 123 5 0 0 0 - - -, f 5;
#X floatatom 213 123 5 0 0 0 - - -, f 5;
#X obj 1 42 inlet;
#X obj 59 406 outlet~;
#X obj 45 44 inlet;
#X obj 173 49 inlet;
#X obj 131 49 inlet;
#X obj 211 47 inlet;
#X obj 89 47 inlet;
#X connect 0 0 7 1;
#X connect 0 0 10 0;
#X connect 1 0 7 2;
#X connect 1 0 11 0;
#X connect 2 0 7 3;
#X connect 2 0 12 0;
#X connect 3 0 7 4;
#X connect 3 0 13 0;
#X connect 4 0 15 0;
#X connect 5 0 7 0;
#X connect 6 0 7 5;
#X connect 6 0 9 0;
#X connect 7 0 8 0;
#X connect 8 0 4 0;
#X connect 14 0 5 0;
#X connect 16 0 0 0;
#X connect 17 0 3 0;
#X connect 18 0 2 0;
#X connect 19 0 6 0;
#X connect 20 0 1 0;
#X coords 0 -1 1 1 185 180 1 100 100;
