#N canvas 2211 404 322 395 10;
#X obj 75 128 inlet;
#X obj 191 53 \$1;
#X floatatom 76 152 5 0 0 0 - - -, f 5;
#X obj 200 -24 bng 15 250 50 0 empty empty empty 17 7 0 10 -262144
-1 -1;
#X obj 78 371 outlet;
#X obj 229 76 \$2, f 4;
#X obj 229 100 / 60;
#X obj 234 122 /;
#X msg 226 53 1000;
#X floatatom 132 152 5 0 0 0 - - -, f 5;
#X obj 224 -22 loadbang;
#X obj 231 6 t b b b;
#X obj 78 224 metro 200;
#X obj 77 247 f 0;
#X obj 128 260 + 1;
#X obj 52 275 sel 8;
#X floatatom 99 339 5 0 0 0 - - -, f 5;
#X obj 55 339 tgl 15 0 empty empty empty 17 7 0 10 -262144 -1 -1 1
1;
#X msg 47 248 1;
#X obj 131 126 inlet;
#X obj 76 337 bng 20 250 50 0 empty empty empty 17 7 0 10 -4034 -1
-1;
#X obj 25 128 inlet;
#X connect 0 0 2 0;
#X connect 1 0 2 0;
#X connect 2 0 15 1;
#X connect 3 0 12 0;
#X connect 3 0 11 0;
#X connect 5 0 6 0;
#X connect 6 0 7 1;
#X connect 7 0 9 0;
#X connect 8 0 7 0;
#X connect 9 0 12 1;
#X connect 10 0 11 0;
#X connect 10 0 17 0;
#X connect 11 0 8 0;
#X connect 11 1 5 0;
#X connect 11 2 8 0;
#X connect 11 2 1 0;
#X connect 12 0 13 0;
#X connect 13 0 14 0;
#X connect 13 0 15 0;
#X connect 13 0 16 0;
#X connect 13 0 20 0;
#X connect 14 0 13 1;
#X connect 15 0 18 0;
#X connect 16 0 4 0;
#X connect 17 0 12 0;
#X connect 18 0 13 1;
#X connect 19 0 9 0;
#X connect 21 0 17 0;
#X coords 0 -1 1 1 85 50 1 50 310;
