#N canvas 69 23 1265 803 10;
#X obj 747 841 dac~;
#X obj 214 48 hsl 100 15 0 1 0 0 empty empty Parameter_B -2 -8 0 10
-262144 -1 -1 100 1;
#X obj 338 48 hsl 100 15 0 1 0 0 empty empty Parameter_C -2 -8 0 10
-262144 -1 -1 4300 1;
#X obj 454 48 hsl 100 15 0 1 0 0 empty empty Parameter_D -2 -8 0 10
-262144 -1 -1 9900 1;
#X obj 460 69 r Channel-D;
#X obj 345 69 r Channel-C;
#X obj 224 69 r Channel-B;
#X obj 92 44 hsl 100 15 0 1 0 0 empty empty Parameter_A -2 -8 0 10
-262144 -1 -1 400 1;
#X obj 102 70 r Channel-A;
#X obj 20 49 adc~;
#X obj 210 116 + 0;
#X obj 91 116 + 0;
#X obj 449 115 + 0;
#X obj 94 201 hsl 100 15 0 1 0 0 empty empty Parameter_E_(Exp) -2 -8
0 10 -262144 -1 -1 1800 1;
#X obj 91 247 * 1;
#X obj 89 268 + 0;
#X obj 212 258 * 1;
#X obj 210 279 + 0;
#X obj 221 233 r Channel-Push;
#X obj 218 210 tgl 15 0 empty empty Channel-Push 17 7 0 10 -262144
-1 -1 0 1;
#X obj 211 190 bng 15 250 50 0 empty empty empty 17 7 0 10 -262144
-1 -1;
#X text 27 9 Improved OWL Puredata Template;
#X obj 456 244 s Channel-Push;
#X obj 466 219 tgl 15 0 empty empty Channel-Push 17 7 0 10 -262144
-1 -1 0 1;
#X obj 459 199 bng 15 250 50 0 empty empty empty 17 7 0 10 -262144
-1 -1;
#X obj 101 223 r Channel-E;
#X obj 92 95 * 128;
#X obj 90 143 mtof;
#X floatatom 112 172 5 0 0 0 - - -, f 5;
#X obj 37 37;
#X obj 717 124 kaos.count 8 120;
#X obj 709 88 tgl 15 0 empty empty empty 17 7 0 10 -262144 -1 -1 1
1;
#X floatatom 296 364 5 0 0 0 - - -, f 5;
#X obj 296 393 sig~;
#X text 330 364 Hz;
#X text 329 394 (frequency input needs to be at signal rate);
#X floatatom 387 364 5 0 0 0 - - -, f 5;
#X text 427 362 phase reset;
#X obj 296 426 hv.osc saw;
#X obj 286 326 * 30;
#X floatatom 164 362 5 0 0 0 - - -, f 5;
#X obj 164 391 sig~;
#X text 198 362 Hz;
#X floatatom 220 364 5 0 0 0 - - -, f 5;
#X obj 154 324 * 30;
#X obj 164 424 hv.osc square;
#X obj 746 657 *~;
#X obj 722 212 bng 15 250 50 0 empty empty empty 17 7 0 10 -262144
-1 -1;
#X floatatom 37 37 5 0 0 0 - - -, f 5;
#X obj 718 256 kaos.adsr;
#X obj 211 95 * 128;
#X obj 614 718 osc~;
#X obj 127 496 +~;
#X obj 185 576 *~;
#X floatatom 257 512 5 0 0 0 - - -, f 5;
#X obj 171 606 +~;
#X obj 184 539 osc~;
#X floatatom 185 520 5 0 0 0 - - -, f 5;
#X obj 341 570 random 120;
#X obj 336 542 bng 15 250 50 0 empty empty empty 17 7 0 10 -262144
-1 -1;
#X msg 906 154 342 979 370 181 222;
#X obj 906 189 unpack f f f f f;
#X msg 887 127 500 150 279 342 282;
#X text 872 50 some presets;
#X msg 862 103 377 494 200 121 383;
#X obj 1063 145 random 500;
#X obj 1138 145 random 500;
#X obj 1210 146 random 500;
#X obj 1285 146 random 500;
#X obj 1357 145 random 500;
#X obj 1066 105 bng 15 250 50 0 empty empty empty 17 7 0 10 -262144
-1 -1;
#X obj 335 94 * 110;
#X msg 838 78 366 877 164 1028 80;
#X obj 334 115 + 5000;
#X obj 451 94 * 1000;
#X connect 1 0 50 0;
#X connect 2 0 71 0;
#X connect 3 0 74 0;
#X connect 4 0 74 0;
#X connect 5 0 71 0;
#X connect 6 0 50 0;
#X connect 7 0 26 0;
#X connect 8 0 26 0;
#X connect 11 0 27 0;
#X connect 12 0 54 0;
#X connect 13 0 14 0;
#X connect 14 0 15 0;
#X connect 16 0 17 0;
#X connect 18 0 16 0;
#X connect 19 0 16 0;
#X connect 20 0 16 0;
#X connect 23 0 22 0;
#X connect 24 0 22 0;
#X connect 25 0 14 0;
#X connect 26 0 11 0;
#X connect 26 0 44 0;
#X connect 27 0 28 0;
#X connect 30 0 59 0;
#X connect 30 0 47 0;
#X connect 31 0 30 0;
#X connect 32 0 33 0;
#X connect 33 0 38 0;
#X connect 36 0 38 1;
#X connect 38 0 52 1;
#X connect 39 0 32 0;
#X connect 40 0 41 0;
#X connect 40 0 52 0;
#X connect 41 0 45 0;
#X connect 43 0 45 1;
#X connect 44 0 40 0;
#X connect 45 0 46 0;
#X connect 46 0 0 0;
#X connect 46 0 0 1;
#X connect 47 0 49 0;
#X connect 49 0 46 1;
#X connect 50 0 10 0;
#X connect 50 0 39 0;
#X connect 51 0 46 0;
#X connect 52 0 55 0;
#X connect 53 0 55 1;
#X connect 54 0 53 1;
#X connect 55 0 51 0;
#X connect 56 0 53 0;
#X connect 57 0 56 0;
#X connect 58 0 57 0;
#X connect 59 0 58 0;
#X connect 60 0 61 0;
#X connect 61 0 49 1;
#X connect 61 1 49 2;
#X connect 61 2 49 3;
#X connect 61 3 49 4;
#X connect 61 4 49 5;
#X connect 62 0 61 0;
#X connect 64 0 61 0;
#X connect 65 0 49 1;
#X connect 66 0 49 2;
#X connect 67 0 49 3;
#X connect 68 0 49 4;
#X connect 69 0 49 5;
#X connect 70 0 65 0;
#X connect 70 0 66 0;
#X connect 70 0 67 0;
#X connect 70 0 68 0;
#X connect 70 0 69 0;
#X connect 71 0 73 0;
#X connect 72 0 61 0;
#X connect 73 0 58 1;
#X connect 74 0 12 0;
#X coords 0 0 1 1 85 60 0;
