#N canvas 65 33 1265 803 10;
#X obj 231 731 dac~;
#X obj 214 48 hsl 100 15 0 1 0 0 empty empty Parameter_B -2 -8 0 10
-262144 -1 -1 0 1;
#X obj 338 48 hsl 100 15 0 1 0 0 empty empty Parameter_C -2 -8 0 10
-262144 -1 -1 0 1;
#X obj 454 48 hsl 100 15 0 1 0 0 empty empty Parameter_D -2 -8 0 10
-262144 -1 -1 900 1;
#X obj 460 69 r Channel-D;
#X obj 345 69 r Channel-C;
#X obj 224 69 r Channel-B;
#X obj 92 44 hsl 100 15 0 1 0 0 empty empty Parameter_A -2 -8 0 10
-262144 -1 -1 0 1;
#X obj 102 70 r Channel-A;
#X obj 20 49 adc~;
#X obj 210 116 + 0;
#X obj 91 116 + 0;
#X obj 211 95 * 1;
#X obj 335 94 * 1;
#X obj 334 115 + 0;
#X obj 451 94 * 1;
#X obj 449 115 + 0;
#X obj 94 201 hsl 100 15 0 1 0 0 empty empty Parameter_E_(Exp) -2 -8
0 10 -262144 -1 -1 0 1;
#X obj 91 247 * 1;
#X obj 89 268 + 0;
#X obj 212 258 * 1;
#X obj 210 279 + 0;
#X obj 221 233 r Channel-Push;
#X obj 218 210 tgl 15 0 empty empty Channel-Push 17 7 0 10 -262144
-1 -1 0 1;
#X obj 211 190 bng 15 250 50 0 empty empty empty 17 7 0 10 -262144
-1 -1;
#X text 27 9 Improved OWL Puredata Template;
#X obj 456 244 s Channel-Push;
#X obj 466 219 tgl 15 0 empty empty Channel-Push 17 7 0 10 -262144
-1 -1 0 1;
#X obj 459 199 bng 15 250 50 0 empty empty empty 17 7 0 10 -262144
-1 -1;
#X obj 101 223 r Channel-E;
#X obj 92 95 * 128;
#X obj 90 143 mtof;
#X obj 54 328 sig~;
#X obj 153 422 *~;
#X obj 151 455 osc~;
#X obj 145 490 *~;
#X obj 91 534 +~;
#X msg 225 455 2000;
#X obj 209 586 snapshot~;
#X floatatom 207 632 5 0 0 0 - - -, f 5;
#X floatatom 112 172 5 0 0 0 - - -, f 5;
#X obj 224 530 bng 15 250 50 0 empty empty empty 17 7 0 10 -262144
-1 -1;
#X obj 362 553 sig~;
#X text 445 552 q;
#X floatatom 362 532 5 0 0 0 - - -, f 5;
#X floatatom 409 553 5 0 0 0 - - -, f 5;
#X obj 345 602 env~ 8192;
#X floatatom 345 624 5 0 0 0 - - -, f 5;
#X obj 345 580 vcf~ 1;
#X text 394 579 optional argument to initialize q;
#X obj 37 37;
#X obj 415 466 phasor~;
#X obj 713 213 kaos.count 8 120;
#X obj 705 177 tgl 15 0 empty empty empty 17 7 0 10 -262144 -1 -1 0
1;
#X msg 709 361;
#X obj 686 420 hv.osc saw;
#X floatatom 835 283 5 0 0 0 - - -, f 5;
#X obj 835 312 sig~;
#X text 869 283 Hz;
#X text 868 313 (frequency input needs to be at signal rate);
#X floatatom 926 283 5 0 0 0 - - -, f 5;
#X text 966 281 phase reset;
#X obj 835 345 hv.osc saw;
#X obj 825 245 * 30;
#X floatatom 854 493 5 0 0 0 - - -, f 5;
#X obj 854 522 sig~;
#X text 888 493 Hz;
#X text 887 523 (frequency input needs to be at signal rate);
#X floatatom 945 493 5 0 0 0 - - -, f 5;
#X text 985 491 phase reset;
#X obj 844 455 * 30;
#X obj 854 555 hv.osc square;
#X obj 746 657 *~;
#X obj 893 389 phasor~;
#X obj 1006 581 env~;
#X obj 1028 441 vline~;
#X floatatom 1082 481 5 0 0 0 - - -, f 5;
#X obj 1048 585 snapshot~;
#X floatatom 1048 608 5 0 0 0 - - -, f 5;
#X obj 1058 558 metro 100;
#X obj 1058 533 r start;
#X obj 1117 508 tgl 15 0 empty empty empty 17 7 0 10 -262144 -1 -1
1 1;
#X obj 857 589 bng 15 250 50 0 empty empty empty 17 7 0 10 -262144
-1 -1;
#X msg 1035 354 0 1000;
#X msg 1086 358 1 1000;
#X floatatom 37 37 5 0 0 0 - - -, f 5;
#X msg 1011 397 1 2000 0 \, 0.5 5000 2000 \, 0 12500 700;
#X obj 920 164;
#X obj 853 633 kaos.adsr;
#X connect 1 0 12 0;
#X connect 2 0 13 0;
#X connect 3 0 15 0;
#X connect 4 0 15 0;
#X connect 5 0 13 0;
#X connect 6 0 12 0;
#X connect 7 0 30 0;
#X connect 8 0 30 0;
#X connect 11 0 31 0;
#X connect 12 0 10 0;
#X connect 13 0 14 0;
#X connect 15 0 16 0;
#X connect 16 0 33 1;
#X connect 17 0 18 0;
#X connect 18 0 19 0;
#X connect 20 0 21 0;
#X connect 22 0 20 0;
#X connect 23 0 20 0;
#X connect 24 0 20 0;
#X connect 27 0 26 0;
#X connect 28 0 26 0;
#X connect 29 0 18 0;
#X connect 30 0 11 0;
#X connect 30 0 63 0;
#X connect 30 0 70 0;
#X connect 31 0 32 0;
#X connect 31 0 40 0;
#X connect 32 0 33 0;
#X connect 32 0 36 0;
#X connect 33 0 34 0;
#X connect 34 0 35 0;
#X connect 35 0 36 1;
#X connect 35 0 38 0;
#X connect 37 0 35 1;
#X connect 38 0 39 0;
#X connect 41 0 38 0;
#X connect 42 0 48 1;
#X connect 44 0 42 0;
#X connect 45 0 48 2;
#X connect 46 0 47 0;
#X connect 48 0 46 0;
#X connect 48 0 0 1;
#X connect 48 0 0 0;
#X connect 53 0 52 0;
#X connect 56 0 57 0;
#X connect 57 0 62 0;
#X connect 60 0 62 1;
#X connect 62 0 72 0;
#X connect 63 0 56 0;
#X connect 64 0 65 0;
#X connect 65 0 71 0;
#X connect 68 0 71 1;
#X connect 70 0 64 0;
#X connect 71 0 72 0;
#X connect 72 0 0 0;
#X connect 74 0 76 0;
#X connect 75 0 74 0;
#X connect 75 0 77 0;
#X connect 77 0 78 0;
#X connect 79 0 77 0;
#X connect 80 0 79 0;
#X connect 81 0 79 0;
#X connect 82 0 88 0;
#X connect 83 0 75 0;
#X connect 84 0 75 0;
#X connect 86 0 75 0;
#X connect 88 0 72 1;
#X coords 0 0 1 1 85 60 0;
