#N canvas 474 78 932 738 10;
#X obj 195 86 r \$0-trigger;
#X obj 195 368 clip~ 50 10000, f 18;
#X obj 195 440 osc~;
#X obj 195 485 *~;
#X obj 195 174 i;
#X obj 214 121 r \$0-decay;
#N canvas 319 296 450 300 lin2log 0;
#X obj 84 -4 t 2 f;
#X obj 84 -83 inlet;
#X obj 84 74 outlet;
#X obj 84 36 pow, f 5;
#X obj 84 -34 * 14.29;
#X connect 0 0 3 0;
#X connect 0 1 3 1;
#X connect 1 0 4 0;
#X connect 3 0 2 0;
#X connect 4 0 0 0;
#X restore 280 587 pd lin2log;
#X obj 280 565 r \$0-filter;
#X obj 506 136 r \$0-trigger;
#X msg 506 302 0.8 \, 0 \$1;
#X obj 195 547 *~;
#X obj 195 569 clip~ -1 1;
#X obj 193 652 dac~;
#X obj 653 556 bng 25 250 50 0 empty empty empty 17 7 0 10 -262144
-1 -1;
#X obj 653 626 s \$0-trigger;
#X obj 655 185 hsl 128 15 0 1 0 0 empty empty Filter -2 -8 0 10 -262144
-1 -1 4400 1;
#X obj 656 282 hsl 128 15 0 1 0 0 empty empty Decay -2 -8 0 10 -262144
-1 -1 6200 1;
#X obj 654 378 hsl 128 15 0 1 0 0 empty empty Release -2 -8 0 10 -262144
-1 -1 5800 1;
#X obj 660 399 r Channel-D;
#X obj 663 303 r Channel-C;
#X obj 665 206 r Channel-B;
#X obj 653 85 hsl 128 15 0 1 0 0 empty empty Tune -2 -8 0 10 -262144
-1 -1 7000 1;
#X obj 660 106 r Channel-A;
#X obj 654 471 hsl 128 15 0 1 0 0 empty empty Be careful! -2 -8 0 10
-262144 -1 -1 4000 1;
#X obj 660 492 r Channel-E;
#X obj 687 556 r Channel-Push;
#X obj 653 134 s \$0-resonance;
#X obj 655 235 s \$0-filter;
#X obj 656 331 s \$0-decay;
#X obj 654 427 s \$0-release;
#X obj 654 520 s \$0-gain;
#X obj 195 322 -~ 1200;
#X obj 195 301 *~ 32;
#X obj 195 280 abs~;
#X obj 195 259 *~ 70;
#X obj 280 169 r \$0-resonance;
#X obj 527 169 r \$0-release;
#X obj 527 191 * 2950;
#X obj 527 213 + 50;
#X obj 506 373 line~;
#X obj 280 462 r \$0-gain;
#X obj 280 484 * 19;
#X obj 280 506 + 1;
#X obj 195 218 line~;
#X msg 195 196 0 \, 1 \$1;
#X obj 195 240 -~ 1;
#X obj 214 142 * 100;
#X obj 687 584 sel 1;
#X text 503 57 Amplitude Control;
#X text 196 57 Frequency Control;
#X obj 506 267 i, f 4;
#X obj 195 612 lop~;
#X obj 281 318 mtof;
#X obj 281 297 +, f 5;
#X obj 280 191 * 36;
#X obj 403 162 > 0;
#X obj 403 184 sel 1;
#X obj 403 208 s \$0-trigger;
#X obj 280 235 t b f;
#X obj 281 267 i;
#X text 363 57 MIDI;
#X obj 280 213 + 12;
#N canvas 16 204 450 300 polySteal 0;
#X obj 124 19 inlet;
#X obj 225 22 inlet;
#X obj 136 226 outlet;
#X obj 283 227 outlet;
#X obj 210 121 > 0;
#X obj 210 143 sel 1;
#X obj 210 99 i;
#X obj 136 196 i;
#X obj 124 41 t b f;
#X obj 283 196 i;
#X connect 0 0 8 0;
#X connect 1 0 6 1;
#X connect 1 0 9 1;
#X connect 4 0 5 0;
#X connect 5 0 7 0;
#X connect 5 0 9 0;
#X connect 6 0 4 0;
#X connect 7 0 2 0;
#X connect 8 0 6 0;
#X connect 8 1 7 1;
#X connect 9 0 3 0;
#X restore 333 131 pd polySteal;
#X obj 333 96 notein;
#X text 15 6 adapted from https://hoxtonowl.com/patch-library/patch/Kick_Drum
;
#X msg 653 586;
#X obj 388 24 random 127;
#X obj 460 23 random 64;
#X obj 459 48 + 64;
#X obj 419 2 bng 15 250 50 0 empty empty empty 17 7 0 10 -262144 -1
-1;
#X connect 0 0 4 0;
#X connect 1 0 2 0;
#X connect 2 0 3 0;
#X connect 3 0 10 0;
#X connect 4 0 44 0;
#X connect 5 0 46 0;
#X connect 6 0 51 1;
#X connect 7 0 6 0;
#X connect 8 0 50 0;
#X connect 9 0 39 0;
#X connect 10 0 11 0;
#X connect 11 0 51 0;
#X connect 13 0 14 0;
#X connect 13 0 65 0;
#X connect 15 0 27 0;
#X connect 16 0 28 0;
#X connect 17 0 29 0;
#X connect 18 0 29 0;
#X connect 19 0 28 0;
#X connect 20 0 27 0;
#X connect 21 0 26 0;
#X connect 22 0 26 0;
#X connect 23 0 30 0;
#X connect 24 0 30 0;
#X connect 25 0 47 0;
#X connect 31 0 1 0;
#X connect 32 0 31 0;
#X connect 33 0 32 0;
#X connect 34 0 33 0;
#X connect 35 0 54 0;
#X connect 36 0 37 0;
#X connect 37 0 38 0;
#X connect 38 0 50 1;
#X connect 39 0 3 1;
#X connect 40 0 41 0;
#X connect 41 0 42 0;
#X connect 42 0 10 1;
#X connect 43 0 45 0;
#X connect 44 0 43 0;
#X connect 45 0 34 0;
#X connect 46 0 4 1;
#X connect 47 0 14 0;
#X connect 50 0 9 0;
#X connect 51 0 12 1;
#X connect 51 0 12 0;
#X connect 52 0 1 1;
#X connect 53 0 52 0;
#X connect 54 0 61 0;
#X connect 55 0 56 0;
#X connect 56 0 57 0;
#X connect 58 0 59 0;
#X connect 58 1 53 1;
#X connect 59 0 53 0;
#X connect 61 0 58 0;
#X connect 62 0 59 0;
#X connect 62 1 55 0;
#X connect 63 0 62 0;
#X connect 63 1 62 1;
#X connect 66 0 62 0;
#X connect 67 0 68 0;
#X connect 68 0 62 1;
#X connect 69 0 66 0;
#X connect 69 0 67 0;
