#N canvas 1905 283 1455 680 10;
#X obj 168 612 dac~;
#N canvas 0 22 737 591 snare 0;
#X obj 554 267 noise~;
#X obj 283 327 *~;
#X obj 284 353 *~ 0.5;
#X obj 311 86 inlet;
#X obj 356 428 *~ 0.5;
#X obj 372 195 i 40;
#X obj 482 65 inlet;
#X obj 481 120 + 20;
#X obj 353 531 outlet~;
#X obj 553 320 hip~ 440;
#X obj 309 306 line~;
#X msg 325 264 1;
#X obj 369 226 t f b;
#X msg 392 272 0 \$1;
#X obj 481 99 * 1000;
#X obj 311 141 t b;
#X obj 406 57 inlet;
#X obj 405 91 * 64;
#X obj 405 112 + 64;
#X obj 407 151 mtof;
#X connect 0 0 9 0;
#X connect 1 0 2 0;
#X connect 2 0 4 0;
#X connect 3 0 15 0;
#X connect 4 0 8 0;
#X connect 5 0 12 0;
#X connect 6 0 14 0;
#X connect 7 0 5 1;
#X connect 9 0 1 0;
#X connect 10 0 1 1;
#X connect 11 0 10 0;
#X connect 12 0 13 0;
#X connect 12 1 11 0;
#X connect 13 0 10 0;
#X connect 14 0 7 0;
#X connect 15 0 5 0;
#X connect 16 0 17 0;
#X connect 17 0 18 0;
#X connect 18 0 19 0;
#X connect 19 0 9 1;
#X restore 262 243 pd snare;
#N canvas 0 22 984 516 tom 0;
#X obj 613 304 osc~;
#X obj 846 115 + 20;
#X obj 846 71 * 1000;
#X obj 613 146 f;
#X obj 614 259 line~;
#X obj 746 69 * 200;
#X obj 607 382 *~ 0.5;
#X obj 609 59 inlet;
#X obj 744 35 inlet;
#X obj 848 37 inlet;
#X obj 611 432 outlet~;
#X obj 618 348 *~;
#X obj 779 275 i 40;
#X obj 744 421 line~;
#X msg 755 387 1;
#X obj 776 306 t f b;
#X msg 827 387 0 \$1;
#X msg 614 238 \$1 0;
#X obj 611 93 t b b b b;
#X obj 640 194 * 0.98;
#X msg 684 253 \$1 \$2;
#X obj 681 226 pack;
#X msg 727 213 0.5;
#X obj 746 113 + 100;
#X connect 0 0 11 0;
#X connect 1 0 12 1;
#X connect 1 0 21 1;
#X connect 2 0 1 0;
#X connect 3 0 17 0;
#X connect 3 0 19 0;
#X connect 4 0 0 0;
#X connect 5 0 23 0;
#X connect 6 0 10 0;
#X connect 7 0 18 0;
#X connect 8 0 5 0;
#X connect 9 0 2 0;
#X connect 11 0 6 0;
#X connect 12 0 15 0;
#X connect 13 0 11 1;
#X connect 14 0 13 0;
#X connect 15 0 16 0;
#X connect 15 1 14 0;
#X connect 16 0 13 0;
#X connect 17 0 4 0;
#X connect 18 0 3 0;
#X connect 18 2 22 0;
#X connect 18 3 12 0;
#X connect 19 0 21 0;
#X connect 20 0 4 0;
#X connect 21 0 20 0;
#X connect 22 0 0 1;
#X connect 23 0 3 1;
#X restore 492 268 pd tom;
#N canvas 0 22 737 591 hh 0;
#X obj 554 267 noise~;
#X obj 283 327 *~;
#X obj 284 353 *~ 0.5;
#X obj 311 86 inlet;
#X obj 356 428 *~ 0.5;
#X obj 372 195 i 40;
#X obj 482 65 inlet;
#X obj 481 120 + 20;
#X obj 353 531 outlet~;
#X obj 309 306 line~;
#X msg 325 264 1;
#X obj 369 226 t f b;
#X msg 392 272 0 \$1;
#X obj 481 99 * 1000;
#X obj 311 141 t b;
#X obj 406 57 inlet;
#X obj 407 151 mtof;
#X obj 405 112 + 100;
#X obj 553 320 hip~ 10000;
#X obj 402 84 * 28;
#X connect 0 0 18 0;
#X connect 1 0 2 0;
#X connect 2 0 4 0;
#X connect 3 0 14 0;
#X connect 4 0 8 0;
#X connect 5 0 11 0;
#X connect 6 0 13 0;
#X connect 7 0 5 1;
#X connect 9 0 1 1;
#X connect 10 0 9 0;
#X connect 11 0 12 0;
#X connect 11 1 10 0;
#X connect 12 0 9 0;
#X connect 13 0 7 0;
#X connect 14 0 5 0;
#X connect 15 0 19 0;
#X connect 16 0 18 1;
#X connect 17 0 16 0;
#X connect 18 0 1 0;
#X connect 19 0 17 0;
#X restore 1276 218 pd hh;
#N canvas 0 23 984 516 tom2 0;
#X obj 613 304 osc~;
#X obj 846 115 + 20;
#X obj 846 71 * 1000;
#X obj 613 146 f;
#X obj 614 259 line~;
#X obj 746 69 * 200;
#X obj 607 382 *~ 0.5;
#X obj 609 59 inlet;
#X obj 744 35 inlet;
#X obj 848 37 inlet;
#X obj 611 432 outlet~;
#X obj 618 348 *~;
#X obj 779 275 i 40;
#X obj 744 421 line~;
#X msg 755 387 1;
#X obj 776 306 t f b;
#X msg 827 387 0 \$1;
#X msg 614 238 \$1 0;
#X obj 611 93 t b b b b;
#X obj 640 194 * 0.98;
#X msg 684 253 \$1 \$2;
#X obj 681 226 pack;
#X msg 727 213 0.5;
#X obj 746 113 + 100;
#X connect 0 0 11 0;
#X connect 1 0 12 1;
#X connect 1 0 21 1;
#X connect 2 0 1 0;
#X connect 3 0 17 0;
#X connect 3 0 19 0;
#X connect 4 0 0 0;
#X connect 5 0 23 0;
#X connect 6 0 10 0;
#X connect 7 0 18 0;
#X connect 8 0 5 0;
#X connect 9 0 2 0;
#X connect 11 0 6 0;
#X connect 12 0 15 0;
#X connect 13 0 11 1;
#X connect 14 0 13 0;
#X connect 15 0 16 0;
#X connect 15 1 14 0;
#X connect 16 0 13 0;
#X connect 17 0 4 0;
#X connect 18 0 3 0;
#X connect 18 2 22 0;
#X connect 18 3 12 0;
#X connect 19 0 21 0;
#X connect 20 0 4 0;
#X connect 21 0 20 0;
#X connect 22 0 0 1;
#X connect 23 0 3 1;
#X restore 719 257 pd tom2;
#X obj 256 72 r Channel-B;
#X obj 270 92 hsl 128 15 0 1 0 0 empty empty empty -2 -8 0 10 -262144
-1 -1 5700 1;
#N canvas 2168 250 450 300 delta 0;
#X obj 67 68 inlet;
#X obj 66 92 t f b;
#X obj 96 145 f;
#X obj 72 145 f;
#X obj 94 118 f;
#X obj 72 167 -;
#X obj 72 192 spigot 1;
#X msg 168 121 0;
#X obj 217 27 loadbang;
#X obj 217 53 f \$1;
#X obj 215 78 sel 2;
#X obj 227 204 t f b;
#X obj 257 257 f;
#X obj 233 257 f;
#X obj 255 230 f;
#X msg 223 116 1;
#X obj 186 163 spigot 0;
#X obj 232 282 -;
#X obj 74 338 outlet;
#X connect 0 0 1 0;
#X connect 1 0 4 1;
#X connect 1 0 3 0;
#X connect 1 1 4 0;
#X connect 2 0 5 1;
#X connect 3 0 5 0;
#X connect 4 0 2 0;
#X connect 5 0 6 0;
#X connect 5 0 16 0;
#X connect 6 0 18 0;
#X connect 7 0 6 1;
#X connect 8 0 9 0;
#X connect 9 0 10 0;
#X connect 10 0 7 0;
#X connect 10 0 15 0;
#X connect 11 0 14 1;
#X connect 11 0 13 0;
#X connect 11 1 14 0;
#X connect 12 0 17 1;
#X connect 13 0 17 0;
#X connect 14 0 12 0;
#X connect 15 0 16 1;
#X connect 16 0 11 0;
#X connect 17 0 18 0;
#X restore 259 113 pd delta;
#X floatatom 261 136 5 0 0 0 - - -, f 5;
#X obj 261 185 change;
#X obj 261 211 sel 1;
#X obj 261 161 >= 0;
#X obj 502 91 hsl 128 15 0 1 0 0 empty empty empty -2 -8 0 10 -262144
-1 -1 0 1;
#N canvas 2168 250 450 300 delta 0;
#X obj 67 68 inlet;
#X obj 66 92 t f b;
#X obj 96 145 f;
#X obj 72 145 f;
#X obj 94 118 f;
#X obj 72 167 -;
#X obj 72 192 spigot 1;
#X msg 168 121 0;
#X obj 217 27 loadbang;
#X obj 217 53 f \$1;
#X obj 215 78 sel 2;
#X obj 227 204 t f b;
#X obj 257 257 f;
#X obj 233 257 f;
#X obj 255 230 f;
#X msg 223 116 1;
#X obj 186 163 spigot 0;
#X obj 232 282 -;
#X obj 74 338 outlet;
#X connect 0 0 1 0;
#X connect 1 0 4 1;
#X connect 1 0 3 0;
#X connect 1 1 4 0;
#X connect 2 0 5 1;
#X connect 3 0 5 0;
#X connect 4 0 2 0;
#X connect 5 0 6 0;
#X connect 5 0 16 0;
#X connect 6 0 18 0;
#X connect 7 0 6 1;
#X connect 8 0 9 0;
#X connect 9 0 10 0;
#X connect 10 0 7 0;
#X connect 10 0 15 0;
#X connect 11 0 14 1;
#X connect 11 0 13 0;
#X connect 11 1 14 0;
#X connect 12 0 17 1;
#X connect 13 0 17 0;
#X connect 14 0 12 0;
#X connect 15 0 16 1;
#X connect 16 0 11 0;
#X connect 17 0 18 0;
#X restore 491 112 pd delta;
#X floatatom 493 135 5 0 0 0 - - -, f 5;
#X obj 493 184 change;
#X obj 493 210 sel 1;
#X obj 493 160 >= 0;
#X obj 489 72 r Channel-C;
#X obj 61 93 hsl 128 15 0 1 0 0 empty empty empty -2 -8 0 10 -262144
-1 -1 0 1;
#N canvas 2168 250 450 300 delta 0;
#X obj 67 68 inlet;
#X obj 66 92 t f b;
#X obj 96 145 f;
#X obj 72 145 f;
#X obj 94 118 f;
#X obj 72 167 -;
#X obj 72 192 spigot 1;
#X msg 168 121 0;
#X obj 217 27 loadbang;
#X obj 217 53 f \$1;
#X obj 215 78 sel 2;
#X obj 227 204 t f b;
#X obj 257 257 f;
#X obj 233 257 f;
#X obj 255 230 f;
#X msg 223 116 1;
#X obj 186 163 spigot 0;
#X obj 232 282 -;
#X obj 74 338 outlet;
#X connect 0 0 1 0;
#X connect 1 0 4 1;
#X connect 1 0 3 0;
#X connect 1 1 4 0;
#X connect 2 0 5 1;
#X connect 3 0 5 0;
#X connect 4 0 2 0;
#X connect 5 0 6 0;
#X connect 5 0 16 0;
#X connect 6 0 18 0;
#X connect 7 0 6 1;
#X connect 8 0 9 0;
#X connect 9 0 10 0;
#X connect 10 0 7 0;
#X connect 10 0 15 0;
#X connect 11 0 14 1;
#X connect 11 0 13 0;
#X connect 11 1 14 0;
#X connect 12 0 17 1;
#X connect 13 0 17 0;
#X connect 14 0 12 0;
#X connect 15 0 16 1;
#X connect 16 0 11 0;
#X connect 17 0 18 0;
#X restore 50 114 pd delta;
#X floatatom 28 135 5 0 0 0 - - -, f 5;
#X obj 52 186 change;
#X obj 52 212 sel 1;
#X obj 52 162 >= 0;
#X obj 48 73 r Channel-A;
#X obj 790 76 hsl 128 15 0 1 0 0 empty empty empty -2 -8 0 10 -262144
-1 -1 0 1;
#N canvas 2168 250 450 300 delta 0;
#X obj 67 68 inlet;
#X obj 66 92 t f b;
#X obj 96 145 f;
#X obj 72 145 f;
#X obj 94 118 f;
#X obj 72 167 -;
#X obj 72 192 spigot 1;
#X msg 168 121 0;
#X obj 217 27 loadbang;
#X obj 217 53 f \$1;
#X obj 215 78 sel 2;
#X obj 227 204 t f b;
#X obj 257 257 f;
#X obj 233 257 f;
#X obj 255 230 f;
#X msg 223 116 1;
#X obj 186 163 spigot 0;
#X obj 232 282 -;
#X obj 74 338 outlet;
#X connect 0 0 1 0;
#X connect 1 0 4 1;
#X connect 1 0 3 0;
#X connect 1 1 4 0;
#X connect 2 0 5 1;
#X connect 3 0 5 0;
#X connect 4 0 2 0;
#X connect 5 0 6 0;
#X connect 5 0 16 0;
#X connect 6 0 18 0;
#X connect 7 0 6 1;
#X connect 8 0 9 0;
#X connect 9 0 10 0;
#X connect 10 0 7 0;
#X connect 10 0 15 0;
#X connect 11 0 14 1;
#X connect 11 0 13 0;
#X connect 11 1 14 0;
#X connect 12 0 17 1;
#X connect 13 0 17 0;
#X connect 14 0 12 0;
#X connect 15 0 16 1;
#X connect 16 0 11 0;
#X connect 17 0 18 0;
#X restore 713 116 pd delta;
#X floatatom 715 139 5 0 0 0 - - -, f 5;
#X obj 715 188 change;
#X obj 715 214 sel 1;
#X obj 715 164 >= 0;
#X obj 710 75 r Channel-D;
#X obj 1229 79 r Channel-Push;
#X msg 1229 135 1;
#X obj 1229 108 sel 1;
#X floatatom 134 171 5 0 1000 0 - - -, f 5;
#X obj 135 197 / 1000;
#X floatatom 92 171 5 0 1000 0 - - -, f 5;
#X obj 93 197 / 1000;
#X floatatom 344 185 5 0 1000 0 - - -, f 5;
#X obj 345 211 / 1000;
#X floatatom 302 185 5 0 1000 0 - - -, f 5;
#X obj 303 211 / 1000;
#X floatatom 576 141 5 0 1000 0 - - -, f 5;
#X obj 577 167 / 1000;
#X floatatom 534 141 5 0 1000 0 - - -, f 5;
#X obj 535 167 / 1000;
#X floatatom 817 193 5 0 1000 0 - - -, f 5;
#X obj 818 219 / 1000;
#X floatatom 781 194 5 0 1000 0 - - -, f 5;
#X obj 776 219 / 1000;
#X floatatom 1321 144 5 0 1000 0 - - -, f 5;
#X obj 1322 170 / 1000;
#X floatatom 1270 145 5 0 1000 0 - - -, f 5;
#X obj 1271 171 / 1000;
#X obj 97 145 f 1000;
#X obj 79 2 loadbang;
#X obj 309 161 f 181;
#X obj 334 143 f 161;
#X obj 544 117 f 225;
#X obj 592 116 f 280;
#X obj 774 172 f 365;
#X obj 824 165 f 246;
#N canvas 0 23 984 516 tom2 0;
#X obj 613 304 osc~;
#X obj 846 115 + 20;
#X obj 846 71 * 1000;
#X obj 613 146 f;
#X obj 614 259 line~;
#X obj 746 69 * 200;
#X obj 607 382 *~ 0.5;
#X obj 609 59 inlet;
#X obj 744 35 inlet;
#X obj 848 37 inlet;
#X obj 611 432 outlet~;
#X obj 618 348 *~;
#X obj 779 275 i 40;
#X obj 744 421 line~;
#X msg 755 387 1;
#X obj 776 306 t f b;
#X msg 827 387 0 \$1;
#X msg 614 238 \$1 0;
#X obj 611 93 t b b b b;
#X obj 640 194 * 0.98;
#X msg 684 253 \$1 \$2;
#X obj 681 226 pack;
#X msg 727 213 0.5;
#X obj 746 113 + 100;
#X connect 0 0 11 0;
#X connect 1 0 12 1;
#X connect 1 0 21 1;
#X connect 2 0 1 0;
#X connect 3 0 17 0;
#X connect 3 0 19 0;
#X connect 4 0 0 0;
#X connect 5 0 23 0;
#X connect 6 0 10 0;
#X connect 7 0 18 0;
#X connect 8 0 5 0;
#X connect 9 0 2 0;
#X connect 11 0 6 0;
#X connect 12 0 15 0;
#X connect 13 0 11 1;
#X connect 14 0 13 0;
#X connect 15 0 16 0;
#X connect 15 1 14 0;
#X connect 16 0 13 0;
#X connect 17 0 4 0;
#X connect 18 0 3 0;
#X connect 18 2 22 0;
#X connect 18 3 12 0;
#X connect 19 0 21 0;
#X connect 20 0 4 0;
#X connect 21 0 20 0;
#X connect 22 0 0 1;
#X connect 23 0 3 1;
#X restore 958 258 pd tom2;
#X obj 1042 81 hsl 128 15 0 1 0 0 empty empty empty -2 -8 0 10 -262144
-1 -1 0 1;
#N canvas 2168 250 450 300 delta 0;
#X obj 67 68 inlet;
#X obj 66 92 t f b;
#X obj 96 145 f;
#X obj 72 145 f;
#X obj 94 118 f;
#X obj 72 167 -;
#X obj 72 192 spigot 1;
#X msg 168 121 0;
#X obj 217 27 loadbang;
#X obj 217 53 f \$1;
#X obj 215 78 sel 2;
#X obj 227 204 t f b;
#X obj 257 257 f;
#X obj 233 257 f;
#X obj 255 230 f;
#X msg 223 116 1;
#X obj 186 163 spigot 0;
#X obj 232 282 -;
#X obj 74 338 outlet;
#X connect 0 0 1 0;
#X connect 1 0 4 1;
#X connect 1 0 3 0;
#X connect 1 1 4 0;
#X connect 2 0 5 1;
#X connect 3 0 5 0;
#X connect 4 0 2 0;
#X connect 5 0 6 0;
#X connect 5 0 16 0;
#X connect 6 0 18 0;
#X connect 7 0 6 1;
#X connect 8 0 9 0;
#X connect 9 0 10 0;
#X connect 10 0 7 0;
#X connect 10 0 15 0;
#X connect 11 0 14 1;
#X connect 11 0 13 0;
#X connect 11 1 14 0;
#X connect 12 0 17 1;
#X connect 13 0 17 0;
#X connect 14 0 12 0;
#X connect 15 0 16 1;
#X connect 16 0 11 0;
#X connect 17 0 18 0;
#X restore 952 117 pd delta;
#X floatatom 954 140 5 0 0 0 - - -, f 5;
#X obj 954 189 change;
#X obj 954 215 sel 1;
#X obj 954 165 >= 0;
#X floatatom 1084 195 5 0 1000 0 - - -, f 5;
#X obj 1076 225 / 1000;
#X floatatom 1020 195 5 0 1000 0 - - -, f 5;
#X obj 1015 220 / 1000;
#X obj 1013 173 f 365;
#X obj 1075 167 f 246;
#X obj 949 76 r Channel-E;
#X obj 493 570 ctlin 61 12;
#X obj 494 596 * 8;
#X obj 90 237 ctlout 61;
#X obj 239 431 ctlout 62;
#X obj 389 376 ctlout 63;
#X obj 529 373 ctlout 64;
#X obj 641 372 ctlout 65;
#X obj 781 369 ctlout 66;
#N canvas 253 80 785 755 akick2 0;
#X obj 378 305 line~;
#X msg 339 272 0 \$1;
#X obj 141 565 *~;
#X obj 351 345 *~;
#X obj 117 430 *~;
#X obj 132 529 osc~;
#X obj 102 487 +~;
#X msg 176 493 1;
#X obj -64 806 outlet~;
#X obj 345 69 inlet;
#X obj 106 157 hsl 128 8 0 127 0 1 empty empty pam 134 5 0 8 -262144
-1 -1 4900 1;
#X obj 38 216 mtof;
#X obj 106 137 hsl 128 8 0 127 0 1 empty empty p 134 4 0 8 -262144
-1 -1 3900 1;
#X obj -1 216 mtof;
#X obj 106 114 hsl 128 8 10 800 0 1 empty empty dec 134 5 0 8 -262144
-1 -1 8800 1;
#X obj 305 202 +;
#X msg 292 138 0;
#X text 390 67 <-trigger/level in;
#X obj 339 239 float;
#X msg 388 243 \$1;
#X obj 376 130 t b f;
#X obj 106 170 hsl 128 8 1 5 0 1 empty empty dz 133 4 0 8 -262144 -1
-1 11700 1;
#X obj 106 180 hsl 128 8 0.1 0.8 0 1 empty empty chr 133 4 0 8 -262144
-1 -1 1900 1;
#X obj -64 781 /~;
#X obj -24 707 abs~;
#X obj 33 731 +~;
#X obj -57 675 *~;
#X text -139 719 distortion;
#X obj 341 381 *~;
#X obj 329 406 lop~ 400;
#X obj 106 147 hsl 128 8 10 800 0 1 empty empty pdc 134 5 0 8 -262144
-1 -1 3700 1;
#X obj 192 324 line~;
#X msg 180 296 0 \$1;
#X obj 177 232 +;
#X obj 180 263 float;
#X obj 186 349 *~;
#X obj 178 375 *~;
#X text 388 273 amp env;
#X msg 234 296 1;
#X text 225 273 pitch env;
#X obj 106 124 hsl 128 8 1 5 0 1 empty empty shp 133 4 0 8 -262144
-1 -1 4200 1;
#X obj 322 527 /~;
#X obj 313 465 *~;
#X text 364 518 env shape;
#X obj 367 490 +~ 1;
#X connect 0 0 3 1;
#X connect 0 0 3 0;
#X connect 1 0 0 0;
#X connect 2 0 26 0;
#X connect 3 0 28 0;
#X connect 3 0 28 1;
#X connect 4 0 6 1;
#X connect 5 0 2 0;
#X connect 6 0 5 0;
#X connect 7 0 5 1;
#X connect 9 0 16 0;
#X connect 9 0 20 0;
#X connect 10 0 11 0;
#X connect 11 0 4 0;
#X connect 12 0 13 0;
#X connect 13 0 6 0;
#X connect 14 0 15 1;
#X connect 15 0 18 0;
#X connect 16 0 15 0;
#X connect 16 0 33 0;
#X connect 18 0 1 0;
#X connect 19 0 0 0;
#X connect 20 0 18 0;
#X connect 20 0 7 0;
#X connect 20 0 34 0;
#X connect 20 1 19 0;
#X connect 20 1 38 0;
#X connect 21 0 26 1;
#X connect 22 0 25 1;
#X connect 23 0 8 0;
#X connect 24 0 25 0;
#X connect 25 0 23 1;
#X connect 26 0 23 0;
#X connect 26 0 24 0;
#X connect 28 0 29 0;
#X connect 29 0 42 0;
#X connect 30 0 33 1;
#X connect 31 0 35 0;
#X connect 31 0 35 1;
#X connect 32 0 31 0;
#X connect 33 0 34 0;
#X connect 34 0 32 0;
#X connect 35 0 36 0;
#X connect 35 0 36 1;
#X connect 36 0 4 1;
#X connect 38 0 31 0;
#X connect 40 0 42 1;
#X connect 41 0 2 1;
#X connect 42 0 41 0;
#X connect 42 0 44 0;
#X connect 44 0 41 1;
#X coords 0 -1 1 1 160 90 1 100 100;
#X restore 45 311 pd akick2;
#X msg 41 292 0.5;
#X msg 495 304 0.8;
#X connect 1 0 0 0;
#X connect 3 0 0 0;
#X connect 4 0 0 0;
#X connect 5 0 7 0;
#X connect 5 0 81 0;
#X connect 6 0 7 0;
#X connect 7 0 8 0;
#X connect 8 0 11 0;
#X connect 9 0 10 0;
#X connect 10 0 1 0;
#X connect 11 0 9 0;
#X connect 12 0 13 0;
#X connect 13 0 14 0;
#X connect 14 0 17 0;
#X connect 15 0 16 0;
#X connect 16 0 2 0;
#X connect 16 0 88 0;
#X connect 17 0 15 0;
#X connect 18 0 13 0;
#X connect 18 0 82 0;
#X connect 19 0 20 0;
#X connect 20 0 21 0;
#X connect 21 0 24 0;
#X connect 22 0 23 0;
#X connect 23 0 87 0;
#X connect 24 0 22 0;
#X connect 25 0 20 0;
#X connect 25 0 80 0;
#X connect 26 0 27 0;
#X connect 27 0 28 0;
#X connect 28 0 31 0;
#X connect 29 0 30 0;
#X connect 30 0 4 0;
#X connect 31 0 29 0;
#X connect 32 0 27 0;
#X connect 32 0 83 0;
#X connect 33 0 35 0;
#X connect 33 0 85 0;
#X connect 34 0 3 0;
#X connect 35 0 34 0;
#X connect 36 0 37 0;
#X connect 38 0 39 0;
#X connect 40 0 41 0;
#X connect 41 0 1 2;
#X connect 42 0 43 0;
#X connect 43 0 1 1;
#X connect 44 0 45 0;
#X connect 45 0 2 2;
#X connect 46 0 47 0;
#X connect 47 0 2 1;
#X connect 48 0 49 0;
#X connect 49 0 4 2;
#X connect 50 0 51 0;
#X connect 51 0 4 1;
#X connect 52 0 53 0;
#X connect 53 0 3 2;
#X connect 54 0 55 0;
#X connect 55 0 3 1;
#X connect 56 0 39 0;
#X connect 56 0 37 0;
#X connect 57 0 56 0;
#X connect 57 0 59 0;
#X connect 57 0 58 0;
#X connect 57 0 61 0;
#X connect 57 0 60 0;
#X connect 57 0 62 0;
#X connect 57 0 63 0;
#X connect 58 0 43 0;
#X connect 59 0 43 0;
#X connect 60 0 47 0;
#X connect 61 0 45 0;
#X connect 62 0 51 0;
#X connect 63 0 49 0;
#X connect 65 0 66 0;
#X connect 66 0 67 0;
#X connect 67 0 70 0;
#X connect 68 0 69 0;
#X connect 69 0 64 0;
#X connect 70 0 68 0;
#X connect 71 0 72 0;
#X connect 72 0 64 2;
#X connect 73 0 74 0;
#X connect 74 0 64 1;
#X connect 75 0 74 0;
#X connect 76 0 72 0;
#X connect 77 0 66 0;
#X connect 77 0 84 0;
#X connect 78 0 79 0;
#X connect 86 0 0 0;
#X connect 87 0 86 0;
#X connect 88 0 86 0;
