#N canvas 2222 155 1058 546 10;
#X obj 37 196 r Channel-A;
#N canvas 736 229 450 300 cvtrig 1;
#X obj 123 105 sel 1;
#X obj 119 201 spigot;
#X obj 125 132 t b b;
#X msg 164 160 0;
#X obj 171 131 t b;
#X msg 203 163 1;
#X obj 126 71 > 0.9;
#X obj 129 45 inlet;
#X obj 116 235 outlet;
#X connect 0 0 2 0;
#X connect 0 1 4 0;
#X connect 1 0 8 0;
#X connect 2 0 3 0;
#X connect 2 1 1 0;
#X connect 3 0 1 1;
#X connect 4 0 5 0;
#X connect 5 0 1 1;
#X connect 6 0 0 0;
#X connect 7 0 6 0;
#X restore 37 222 pd cvtrig;
#X obj 32 335 noteout;
#X obj 51 243 bng 15 250 50 0 empty empty empty 17 7 0 10 -262144 -1
-1;
#X msg 27 278 1;
#X msg 63 273 100;
#X obj 52 160 loadbang;
#X obj 169 197 notein;
#X floatatom 173 240 5 0 0 0 - - -, f 5;
#X obj 169 342 noteout;
#X msg 180 287 127;
#X obj 105 342 ctlout;
#X msg 121 295 2;
#X connect 0 0 1 0;
#X connect 1 0 4 0;
#X connect 1 0 3 0;
#X connect 3 0 4 0;
#X connect 4 0 2 0;
#X connect 4 0 11 0;
#X connect 5 0 2 1;
#X connect 6 0 5 0;
#X connect 6 0 10 0;
#X connect 6 0 12 0;
#X connect 7 0 8 0;
#X connect 8 0 9 0;
#X connect 8 0 4 0;
#X connect 10 0 9 1;
#X connect 12 0 11 1;
