#N canvas 2086 83 1058 546 10;
#X obj 112 75 hsl 128 15 0 1 0 0 empty empty empty -2 -8 0 10 -262144
-1 -1 0 1;
#X obj 99 55 r Channel-A;
#N canvas 2432 206 450 300 cvtrigIn 0;
#N canvas 2168 250 450 300 delta 0;
#X obj 67 68 inlet;
#X obj 66 92 t f b;
#X obj 96 145 f;
#X obj 72 145 f;
#X obj 94 118 f;
#X obj 72 167 -;
#X obj 72 192 spigot 1;
#X msg 168 121 0;
#X obj 217 27 loadbang;
#X obj 217 53 f \$1;
#X obj 215 78 sel 2;
#X obj 227 204 t f b;
#X obj 257 257 f;
#X obj 233 257 f;
#X obj 255 230 f;
#X msg 223 116 1;
#X obj 186 163 spigot 0;
#X obj 232 282 -;
#X obj 74 338 outlet;
#X connect 0 0 1 0;
#X connect 1 0 4 1;
#X connect 1 0 3 0;
#X connect 1 1 4 0;
#X connect 2 0 5 1;
#X connect 3 0 5 0;
#X connect 4 0 2 0;
#X connect 5 0 6 0;
#X connect 5 0 16 0;
#X connect 6 0 18 0;
#X connect 7 0 6 1;
#X connect 8 0 9 0;
#X connect 9 0 10 0;
#X connect 10 0 7 0;
#X connect 10 0 15 0;
#X connect 11 0 14 1;
#X connect 11 0 13 0;
#X connect 11 1 14 0;
#X connect 12 0 17 1;
#X connect 13 0 17 0;
#X connect 14 0 12 0;
#X connect 15 0 16 1;
#X connect 16 0 11 0;
#X connect 17 0 18 0;
#X restore 101 96 pd delta;
#X floatatom 102 119 5 0 0 0 - - -, f 5;
#X obj 103 168 change;
#X obj 103 194 sel 1;
#X obj 103 144 >= 0;
#X obj 100 71 inlet;
#X obj 103 220 outlet;
#X connect 0 0 1 0;
#X connect 1 0 4 0;
#X connect 2 0 3 0;
#X connect 3 0 6 0;
#X connect 4 0 2 0;
#X connect 5 0 0 0;
#X restore 98 99 pd cvtrigIn;
#N canvas 0 23 984 516 kick 0;
#X obj 612 334 osc~;
#X obj 746 113 + 20;
#X obj 610 141 f;
#X obj 614 259 line~;
#X obj 611 62 inlet;
#X obj 747 39 inlet;
#X obj 601 516 outlet~;
#X msg 670 206 0.5;
#X obj 608 432 *~;
#X obj 716 386 line~;
#X msg 790 353 1;
#X msg 614 221 \$1 0;
#X obj 611 93 t b b b b;
#X obj 746 69 * 100;
#X obj 612 189 + 40;
#X msg 720 350 0 200;
#X obj 605 484 *~ 0.4;
#X connect 0 0 8 0;
#X connect 1 0 2 1;
#X connect 2 0 14 0;
#X connect 3 0 0 0;
#X connect 4 0 12 0;
#X connect 5 0 13 0;
#X connect 7 0 0 1;
#X connect 8 0 16 0;
#X connect 9 0 8 1;
#X connect 10 0 9 0;
#X connect 11 0 3 0;
#X connect 12 0 2 0;
#X connect 12 1 7 0;
#X connect 12 2 15 0;
#X connect 12 3 10 0;
#X connect 13 0 1 0;
#X connect 14 0 11 0;
#X connect 15 0 9 0;
#X connect 16 0 6 0;
#X restore 100 159 pd kick;
#X obj 99 217 dac~;
#X connect 0 0 2 0;
#X connect 1 0 2 0;
#X connect 2 0 3 0;
#X connect 3 0 4 0;
#X connect 3 0 4 1;
