#N canvas 2181 154 1058 546 10;
#X obj 37 196 r Channel-A;
#N canvas 172 280 984 516 kick 1;
#X obj 612 334 osc~;
#X obj 746 113 + 20;
#X obj 610 141 f;
#X obj 614 259 line~;
#X obj 611 62 inlet;
#X obj 747 39 inlet;
#X obj 601 516 outlet~;
#X msg 670 206 0.5;
#X obj 608 432 *~;
#X obj 716 386 line~;
#X msg 790 353 1;
#X msg 614 221 \$1 0;
#X obj 611 93 t b b b b;
#X obj 746 69 * 100;
#X obj 612 189 + 40;
#X msg 720 350 0 200;
#X obj 605 484 *~ 0.4;
#X connect 0 0 8 0;
#X connect 1 0 2 1;
#X connect 2 0 14 0;
#X connect 3 0 0 0;
#X connect 4 0 12 0;
#X connect 5 0 13 0;
#X connect 7 0 0 1;
#X connect 8 0 16 0;
#X connect 9 0 8 1;
#X connect 10 0 9 0;
#X connect 11 0 3 0;
#X connect 12 0 2 0;
#X connect 12 1 7 0;
#X connect 12 2 15 0;
#X connect 12 3 10 0;
#X connect 13 0 1 0;
#X connect 14 0 11 0;
#X connect 15 0 9 0;
#X connect 16 0 6 0;
#X restore 62 331 pd kick;
#X obj 61 389 dac~;
#N canvas 736 229 450 300 cvtrig 1;
#X obj 123 105 sel 1;
#X obj 119 201 spigot;
#X obj 125 132 t b b;
#X msg 164 160 0;
#X obj 171 131 t b;
#X msg 203 163 1;
#X obj 126 71 > 0.9;
#X obj 129 45 inlet;
#X obj 116 235 outlet;
#X connect 0 0 2 0;
#X connect 0 1 4 0;
#X connect 1 0 8 0;
#X connect 2 0 3 0;
#X connect 2 1 1 0;
#X connect 3 0 1 1;
#X connect 4 0 5 0;
#X connect 5 0 1 1;
#X connect 6 0 0 0;
#X connect 7 0 6 0;
#X restore 46 282 pd cvtrig;
#X connect 0 0 3 0;
#X connect 1 0 2 0;
#X connect 1 0 2 1;
#X connect 3 0 1 0;
