#N canvas 279 350 970 710 10;
#X obj 101 101 cnv 20 184 114 empty ColorForm OctHarm(puck) 2 12 0
14 -188398 -1 1.04858e+06;
#N canvas 3 54 1351 686 octave-harmonizer 0;
#X obj 690 93 fiddle~ 2048;
#X obj 758 116 unpack;
#X obj 758 140 moses 1;
#X obj 831 118 mtof;
#X text 784 324 on/off for original;
#X text 755 340 <--and processed sounds;
#X text 730 39 OCTAVE DOUBLING VIA VARIABLE COMB FILTER;
#X obj 884 167 samplerate~;
#X obj 831 166 t f b;
#X obj 710 316 +~;
#X obj 862 220 +;
#X obj 831 141 expr 500/$f1;
#X obj 862 272 line~;
#X obj 862 249 pack 0 20;
#X text 875 118 fundamental frequency;
#X text 943 141 1/2 period \, in msec;
#X text 918 211 estimate fiddle~ delay;
#X obj 884 193 expr 2048000/$f1;
#X text 920 226 as one window (in msec);
#X obj 29 124 fiddle~ 2048;
#X obj 30 155 unpack;
#X obj 12 231 osc~;
#X obj 30 179 moses 1;
#X obj 13 260 *~;
#X obj 57 207 mtof;
#X obj 57 230 *;
#X msg 106 185 0.5;
#X floatatom 106 214 3 0 0 0 - - -, f 3;
#X msg 144 185 15;
#X obj 11 294 *~ 2;
#X obj 106 160 loadbang;
#N canvas 300 205 758 306 delay 0;
#X obj 15 222 outlet~;
#X obj 14 21 inlet~;
#X obj 15 102 loadbang;
#X obj 15 152 expr 1000*1024/$f1;
#X obj 15 128 samplerate~;
#X text 208 47 write to delay line which has enough memory to hold
40 msec;
#X text 125 128 get sample rate at load time;
#X text 185 152 divide 1024 by sample rate to give time in seconds
\; multiply by 1000 to convert to milliseconds.;
#X text 168 197 read from the delay line at the calculater delay;
#X text 317 268 1024-sample delay;
#X obj 14 49 delwrite~ \$0-E03-del 40;
#X obj 15 195 delread~ \$0-E03-del;
#X connect 1 0 10 0;
#X connect 2 0 4 0;
#X connect 3 0 11 0;
#X connect 4 0 3 0;
#X connect 11 0 0 0;
#X restore 469 130 pd delay;
#X text 48 98 OCTAVE DIVIDING VIA RING MODULATION;
#X text 177 185 <-- choose an effect;
#X text 198 321 on/off for original;
#X text 169 337 <--and processed sounds;
#X obj 24 3 inlet~;
#X obj 713 392 throw~ \$0-octaverThrow;
#X obj 471 373 throw~ \$0-octaverThrow;
#X obj 23 385 throw~ \$0-octaverThrow;
#X obj 471 497 hip~ 5;
#X obj 472 536 outlet~;
#X obj 473 423 catch~ \$0-octaverThrow;
#X obj 516 3 inlet;
#X obj 516 25 route 0 1 2;
#X obj 470 322 *~;
#X obj 486 297 line~;
#X msg 490 269 \$1 20;
#X obj 28 351 *~;
#X obj 122 348 line~;
#X msg 130 313 \$1 20;
#X obj 715 361 *~;
#X obj 1039 302 line~;
#X msg 1047 267 \$1 20;
#X obj 473 445 /~ 3;
#X text 71 58 lower;
#X text 475 97 raw;
#X text 977 76 higher;
#X obj 733 292 vd~ \$0-G06-del;
#X obj 711 244 delread~ \$0-G06-del;
#X obj 691 68 delwrite~ \$0-G06-del 100;
#X connect 0 2 1 0;
#X connect 1 0 2 0;
#X connect 2 1 3 0;
#X connect 3 0 11 0;
#X connect 7 0 17 0;
#X connect 8 0 10 0;
#X connect 8 1 7 0;
#X connect 9 0 51 0;
#X connect 10 0 13 0;
#X connect 11 0 8 0;
#X connect 12 0 58 0;
#X connect 13 0 12 0;
#X connect 17 0 10 1;
#X connect 17 0 59 0;
#X connect 19 2 20 0;
#X connect 20 0 22 0;
#X connect 21 0 23 1;
#X connect 22 1 24 0;
#X connect 23 0 29 0;
#X connect 24 0 25 0;
#X connect 25 0 21 0;
#X connect 26 0 27 0;
#X connect 27 0 25 1;
#X connect 28 0 27 0;
#X connect 29 0 48 0;
#X connect 30 0 26 0;
#X connect 31 0 23 0;
#X connect 31 0 45 0;
#X connect 36 0 31 0;
#X connect 36 0 19 0;
#X connect 36 0 0 0;
#X connect 36 0 60 0;
#X connect 40 0 41 0;
#X connect 42 0 54 0;
#X connect 43 0 44 0;
#X connect 44 0 47 0;
#X connect 44 1 50 0;
#X connect 44 2 53 0;
#X connect 45 0 38 0;
#X connect 46 0 45 1;
#X connect 47 0 46 0;
#X connect 48 0 39 0;
#X connect 49 0 48 1;
#X connect 50 0 49 0;
#X connect 51 0 37 0;
#X connect 52 0 51 1;
#X connect 53 0 52 0;
#X connect 54 0 40 0;
#X connect 58 0 9 1;
#X connect 59 0 9 0;
#X restore 56 277 pd octave-harmonizer;
#X text 161 82 19 2 2013;
#X obj 107 11 loadbang;
#X obj 207 119 vsl 15 90 0 1 0 0 empty empty raw 0 -9 0 10 -262144
-1 -1 4500 1;
#X obj 234 115 vsl 15 90 0 1 0 0 empty empty hi 0 -9 0 10 -262144 -1
-1 8900 1;
#X obj 174 115 vsl 15 90 0 1 0 0 empty empty low 0 -9 0 10 -262144
-1 -1 8900 1;
#X msg 174 234 0 \$1;
#X msg 210 234 1 \$1;
#X msg 246 234 2 \$1;
#X msg 153 37 0.5;
#X obj 56 389 *~;
#X obj 122 348 line~;
#X msg 130 313 \$1 20;
#X obj 263 115 vsl 15 90 0 1 0 0 empty empty gn 0 -9 0 10 -262144 -1
-1 7275 1;
#X msg 108 36 0.75;
#X obj 55 71 adc~;
#X obj 55 433 dac~;
#X obj 280 -68 hsl 128 15 0 1 0 0 empty empty delay -2 -8 0 10 -262144
-1 -1 0 1;
#X obj 424 -68 hsl 128 15 0 1 0 0 empty empty depth -2 -8 0 10 -262144
-1 -1 0 1;
#X obj 568 -68 hsl 128 15 0 1 0 0 empty empty Feedback -2 -8 0 10 -262144
-1 -1 0 1;
#X obj 574 -47 r Channel-D;
#X obj 431 -47 r Channel-C;
#X obj 290 -47 r Channel-B;
#X obj 135 -68 hsl 128 15 0 1 0 0 empty empty freq -2 -8 0 10 -262144
-1 -1 0 1;
#X obj 142 -47 r Channel-A;
#X obj 714 -68 hsl 128 15 0 1 0 0 empty empty phase -2 -8 0 10 -262144
-1 -1 0 1;
#X obj 720 -47 r Channel-E;
#X obj 866 -48 r Channel-Push;
#X obj 861 -71 bng 15 250 50 0 empty empty empty 17 7 0 10 -262144
-1 -1;
#X obj 714 -18 * 100;
#X text 878 -72 tone;
#X obj 860 -19 random 100;
#X text 475 65 based on MMP plugins https://forum.pdpatchrepo.info/topic/11290/mobmuplat-ready-effects-collection-i-e-30-vanilla-compliant-mmp-effects-w-gui
;
#X obj 132 -21 * 1;
#X obj 283 -14 * 1;
#X obj 427 -24 * 1;
#X obj 557 1 * 1;
#X connect 1 0 11 0;
#X connect 3 0 10 0;
#X connect 3 0 15 0;
#X connect 4 0 8 0;
#X connect 5 0 9 0;
#X connect 6 0 7 0;
#X connect 7 0 1 1;
#X connect 8 0 1 1;
#X connect 9 0 1 1;
#X connect 10 0 6 0;
#X connect 10 0 4 0;
#X connect 10 0 5 0;
#X connect 11 0 17 0;
#X connect 12 0 11 1;
#X connect 13 0 12 0;
#X connect 14 0 13 0;
#X connect 15 0 14 0;
#X connect 16 0 1 0;
#X connect 18 0 35 0;
#X connect 19 0 36 0;
#X connect 20 0 37 0;
#X connect 21 0 37 0;
#X connect 22 0 36 0;
#X connect 23 0 35 0;
#X connect 24 0 34 0;
#X connect 25 0 34 0;
#X connect 26 0 30 0;
#X connect 27 0 30 0;
#X connect 28 0 32 0;
#X connect 29 0 32 0;
#X connect 34 0 6 0;
#X connect 35 0 4 0;
#X connect 36 0 5 0;
#X connect 37 0 14 0;
