#N canvas 455 249 1042 820 10;
#X obj 159 507 *~;
#X obj 159 569 *~;
#X obj 156 625 dac~;
#X obj 250 521 r \$0-gain;
#X obj 368 172 r \$0-trigger;
#X msg 368 338 0.8 \, 0 \$1;
#X obj 389 249 + 50;
#X obj 368 409 line~;
#X obj 368 303 i, f 4;
#X obj 389 205 r \$0-Mrelease;
#X obj 681 589 bng 25 250 50 0 empty empty empty 17 7 0 10 -262144
-1 -1;
#X obj 681 659 s \$0-trigger;
#X obj 681 117 hsl 128 15 0 1 0 0 empty empty Fmod -2 -8 0 10 -262144
-1 -1 0 1;
#X obj 683 209 hsl 128 15 0 1 0 0 empty empty Indice -2 -8 0 10 -262144
-1 -1 0 1;
#X obj 681 314 hsl 128 15 0 1 0 0 empty empty Crelease -2 -8 0 10 -262144
-1 -1 0 1;
#X obj 683 501 hsl 128 15 0 1 0 0 empty empty Gain -2 -8 0 10 -262144
-1 -1 0 1;
#X obj 688 525 r Channel-E;
#X obj 715 589 r Channel-Push;
#X obj 682 553 s \$0-gain;
#X obj 715 617 sel 1;
#X obj 681 270 s \$0-indice;
#X obj 682 171 s \$0-fmod;
#X obj 685 364 s \$0-Crelease;
#X obj 682 459 s \$0-Mrelease;
#X obj 692 142 r Channel-A;
#X obj 695 234 r Channel-B;
#X obj 691 336 r Channel-C;
#X obj 689 431 r Channel-D;
#X obj 682 408 hsl 128 15 0 1 0 0 empty empty Mrelease -2 -8 0 10 -262144
-1 -1 5700 1;
#X obj 422 417 snapshot~;
#X floatatom 422 440 0 0 0 0 - - -;
#X obj 432 390 metro 100;
#X obj 437 357 tgl 15 0 empty empty empty 17 7 0 10 -262144 -1 -1 1
1;
#X obj 389 227 * 250;
#X obj 158 339 adc~;
#X connect 0 0 1 0;
#X connect 1 0 2 0;
#X connect 1 0 2 1;
#X connect 3 0 1 1;
#X connect 4 0 8 0;
#X connect 5 0 7 0;
#X connect 6 0 8 1;
#X connect 7 0 0 1;
#X connect 7 0 29 0;
#X connect 8 0 5 0;
#X connect 9 0 33 0;
#X connect 10 0 11 0;
#X connect 12 0 21 0;
#X connect 13 0 20 0;
#X connect 14 0 22 0;
#X connect 15 0 18 0;
#X connect 16 0 18 0;
#X connect 17 0 19 0;
#X connect 19 0 11 0;
#X connect 24 0 21 0;
#X connect 25 0 20 0;
#X connect 26 0 22 0;
#X connect 27 0 23 0;
#X connect 28 0 23 0;
#X connect 29 0 30 0;
#X connect 31 0 29 0;
#X connect 32 0 31 0;
#X connect 33 0 6 0;
#X connect 34 0 0 0;
#X connect 34 1 0 0;
