#N canvas 722 108 935 773 10;
#X obj 681 589 bng 25 250 50 0 empty empty empty 17 7 0 10 -262144
-1 -1;
#X obj 681 659 s \$0-trigger;
#X obj 681 117 hsl 128 15 0 1 0 0 empty empty Gain -2 -8 0 10 -262144
-1 -1 6200 1;
#X obj 683 209 hsl 128 15 0 1 0 0 empty empty Indice -2 -8 0 10 -262144
-1 -1 6500 1;
#X obj 681 314 hsl 128 15 0 1 0 0 empty empty Attack -2 -8 0 10 -262144
-1 -1 5100 1;
#X obj 684 499 hsl 128 15 0 1 0 0 empty empty exp -2 -8 0 10 -262144
-1 -1 12700 1;
#X obj 688 525 r Channel-E;
#X obj 715 589 r Channel-Push;
#X obj 715 617 sel 1;
#X obj 681 270 s \$0-indice;
#X obj 695 234 r Channel-B;
#X obj 691 336 r Channel-C;
#X obj 689 431 r Channel-D;
#X obj 682 408 hsl 128 15 0 1 0 0 empty empty Mrelease -2 -8 0 10 -262144
-1 -1 6300 1;
#X obj 692 142 r Channel-A;
#X obj 682 171 s \$0-gain;
#X obj 682 553 s \$0-exp;
#X obj 682 370 s \$0-Attack;
#X obj 682 459 s \$0-Release;
#X connect 0 0 1 0;
#X connect 2 0 15 0;
#X connect 3 0 9 0;
#X connect 4 0 17 0;
#X connect 5 0 16 0;
#X connect 6 0 16 0;
#X connect 7 0 8 0;
#X connect 8 0 1 0;
#X connect 10 0 9 0;
#X connect 11 0 17 0;
#X connect 12 0 18 0;
#X connect 13 0 18 0;
#X connect 14 0 15 0;
