#N canvas 722 108 935 773 10;
#X obj 681 589 bng 25 250 50 0 empty empty empty 17 7 0 10 -262144
-1 -1;
#X obj 681 659 s \$0-trigger;
#X obj 681 117 hsl 128 15 0 1 0 0 empty empty Gain -2 -8 0 10 -262144
-1 -1 0 1;
#X obj 683 209 hsl 128 15 0 1 0 0 empty empty Indice -2 -8 0 10 -262144
-1 -1 0 1;
#X obj 681 314 hsl 128 15 0 1 0 0 empty empty Attack -2 -8 0 10 -262144
-1 -1 0 1;
#X obj 684 499 hsl 128 15 0 1 0 0 empty empty exp -2 -8 0 10 -262144
-1 -1 0 1;
#X obj 688 525 r Channel-E;
#X obj 715 589 r Channel-Push;
#X obj 715 617 sel 1;
#X obj 681 270 s \$0-indice;
#X obj 695 234 r Channel-B;
#X obj 691 336 r Channel-C;
#X obj 689 431 r Channel-D;
#X obj 682 408 hsl 128 15 0 1 0 0 empty empty Mrelease -2 -8 0 10 -262144
-1 -1 0 1;
#X obj 692 142 r Channel-A;
#X obj 682 171 s \$0-gain;
#X obj 682 553 s \$0-exp;
#X obj 159 507 *~;
#X obj 159 569 *~;
#X obj 156 625 dac~;
#X obj 250 521 r \$0-gain;
#X obj 262 106 r \$0-trigger;
#X obj 158 339 adc~;
#X obj 313 256 * 500;
#X obj 281 375 hv.vline;
#X obj 290 210 + 5;
#X obj 367 455 env~;
#X obj 367 476 dbtorms;
#X floatatom 367 499 5 0 0 0 - - -, f 5;
#X msg 278 331 0.8 \$1 \, 0 \$2 \$3;
#X obj 405 229 + 1;
#X obj 682 370 s \$0-Attack;
#X obj 290 151 r \$0-Attack;
#X obj 289 182 * 500;
#X obj 314 233 r \$0-Release;
#X obj 682 459 s \$0-Release;
#X obj 280 295 pack f f f;
#X obj 275 254 f, f 4;
#X connect 0 0 1 0;
#X connect 2 0 15 0;
#X connect 3 0 9 0;
#X connect 4 0 31 0;
#X connect 5 0 16 0;
#X connect 6 0 16 0;
#X connect 7 0 8 0;
#X connect 8 0 1 0;
#X connect 10 0 9 0;
#X connect 11 0 31 0;
#X connect 12 0 35 0;
#X connect 13 0 35 0;
#X connect 14 0 15 0;
#X connect 17 0 18 0;
#X connect 18 0 19 0;
#X connect 18 0 19 1;
#X connect 20 0 18 1;
#X connect 21 0 37 0;
#X connect 22 0 17 0;
#X connect 22 1 17 0;
#X connect 23 0 36 1;
#X connect 24 0 17 1;
#X connect 24 0 26 0;
#X connect 25 0 30 0;
#X connect 25 0 37 1;
#X connect 26 0 27 0;
#X connect 27 0 28 0;
#X connect 29 0 24 0;
#X connect 30 0 36 2;
#X connect 32 0 33 0;
#X connect 33 0 25 0;
#X connect 34 0 23 0;
#X connect 36 0 29 0;
#X connect 37 0 36 0;
