#N canvas 175 27 1002 837 10;
#X obj 285 44 hsl 128 15 0 1 0 0 empty empty Parameter_B -2 -8 0 10
-262144 -1 -1 0 1;
#X obj 429 44 hsl 128 15 0 1 0 0 empty empty Parameter_C -2 -8 0 10
-262144 -1 -1 0 1;
#X obj 573 44 hsl 128 15 0 1 0 0 empty empty Parameter_D -2 -8 0 10
-262144 -1 -1 0 1;
#X obj 579 65 r Channel-D;
#X obj 436 65 r Channel-C;
#X obj 295 65 r Channel-B;
#X obj 140 44 hsl 128 15 0 1 0 0 empty empty Parameter_A -2 -8 0 10
-262144 -1 -1 0 1;
#X obj 147 65 r Channel-A;
#X text 72 4 OWL Puredata Template;
#X obj 719 44 hsl 128 15 0 1 0 0 empty empty Parameter_E -2 -8 0 10
-262144 -1 -1 0 1;
#X obj 714 111 + 0;
#X obj 725 65 r Channel-E;
#X obj 512 771 dac~;
#X obj 326 568 phasor~;
#X obj 328 614 *~ 2;
#X obj 330 647 -~ 1;
#X obj 330 282 hsl 128 15 0 1000 0 0 empty empty empty -2 -8 0 10 -262144
-1 -1 0 1;
#X obj 507 546 phasor~;
#X obj 509 592 *~ 2;
#X obj 511 625 -~ 1;
#X obj 644 599 phasor~;
#X obj 646 645 *~ 2;
#X obj 648 678 -~ 1;
#X obj 753 621 phasor~;
#X obj 755 667 *~ 2;
#X obj 757 700 -~ 1;
#X floatatom 428 526 5 0 0 0 - - -, f 5;
#X floatatom 579 569 5 0 0 0 - - -, f 5;
#X floatatom 699 572 5 0 0 0 - - -, f 5;
#X obj 510 510 +, f 4;
#X obj 617 532 +, f 4;
#X obj 733 528 +, f 4;
#X obj 732 296 vsl 15 128 -100 100 0 0 empty empty empty 0 -9 0 10
-262144 -1 -1 6350 1;
#X obj 563 445 t b f;
#X obj 647 463 t b f;
#X obj 728 481 t b f;
#X floatatom 278 440 5 0 0 0 - - -, f 5;
#X obj 757 295 vsl 15 128 -100 100 0 0 empty empty empty 0 -9 0 10
-262144 -1 -1 6350 1;
#X obj 783 294 vsl 15 128 -100 100 0 0 empty empty empty 0 -9 0 10
-262144 -1 -1 6350 1;
#X floatatom 381 400 5 0 0 0 - - -, f 5;
#X obj 460 379 +, f 4;
#X obj 516 319 t b f;
#X obj 597 266 hsl 64 15 -10 10 0 0 empty empty empty -2 -8 0 10 -262144
-1 -1 0 1;
#X obj 532 274 / 1;
#X obj 662 226 loadbang;
#X msg 701 246 0;
#X obj 716 91 * 1000;
#X obj 591 135 - 100;
#X obj 584 105 * 200;
#X obj 425 111 - 100;
#X obj 280 112 - 100;
#X obj 282 91 * 200;
#X obj 425 91 * 200;
#X obj 137 91 * 20;
#X obj 136 112 - 10;
#X obj 508 735 *~ 0.75;
#X connect 0 0 51 0;
#X connect 1 0 52 0;
#X connect 2 0 48 0;
#X connect 3 0 48 0;
#X connect 4 0 52 0;
#X connect 5 0 51 0;
#X connect 6 0 53 0;
#X connect 7 0 53 0;
#X connect 9 0 46 0;
#X connect 10 0 16 0;
#X connect 11 0 46 0;
#X connect 13 0 14 0;
#X connect 14 0 15 0;
#X connect 15 0 55 0;
#X connect 16 0 13 0;
#X connect 16 0 36 0;
#X connect 16 0 40 0;
#X connect 17 0 18 0;
#X connect 18 0 19 0;
#X connect 19 0 55 0;
#X connect 20 0 21 0;
#X connect 21 0 22 0;
#X connect 22 0 55 0;
#X connect 23 0 24 0;
#X connect 24 0 25 0;
#X connect 25 0 55 0;
#X connect 29 0 17 0;
#X connect 29 0 26 0;
#X connect 30 0 20 0;
#X connect 30 0 27 0;
#X connect 31 0 23 0;
#X connect 31 0 28 0;
#X connect 32 0 33 0;
#X connect 33 0 29 0;
#X connect 33 1 29 1;
#X connect 34 0 30 0;
#X connect 34 1 30 1;
#X connect 35 0 31 0;
#X connect 35 1 31 1;
#X connect 37 0 34 0;
#X connect 38 0 35 0;
#X connect 40 0 39 0;
#X connect 40 0 29 0;
#X connect 40 0 30 0;
#X connect 40 0 31 0;
#X connect 41 0 40 0;
#X connect 41 1 40 1;
#X connect 42 0 43 0;
#X connect 43 0 41 0;
#X connect 44 0 45 0;
#X connect 45 0 32 0;
#X connect 45 0 37 0;
#X connect 45 0 38 0;
#X connect 45 0 42 0;
#X connect 46 0 10 0;
#X connect 47 0 38 0;
#X connect 48 0 47 0;
#X connect 49 0 37 0;
#X connect 50 0 32 0;
#X connect 51 0 50 0;
#X connect 52 0 49 0;
#X connect 53 0 54 0;
#X connect 54 0 42 0;
#X connect 55 0 12 0;
#X connect 55 0 12 1;
