#N canvas 187 176 1265 803 10;
#X obj 69 649 dac~;
#X obj 209 73 hsl 100 15 0 1 0 0 empty empty Parameter_B -2 -8 0 10
-262144 -1 -1 4600 1;
#X obj 323 97 hsl 100 15 0 1 0 0 empty empty Parameter_C -2 -8 0 10
-262144 -1 -1 0 1;
#X obj 438 125 hsl 100 15 0 1 0 0 empty empty Parameter_D -2 -8 0 10
-262144 -1 -1 2600 1;
#X obj 444 146 r Channel-D;
#X obj 330 118 r Channel-C;
#X obj 219 94 r Channel-B;
#X obj 89 49 hsl 100 15 0 1 0 0 empty empty Parameter_A -2 -8 0 10
-262144 -1 -1 0 1;
#X obj 102 70 r Channel-A;
#X obj 20 49 adc~;
#X obj 205 141 + 0;
#X obj 91 116 + 0;
#X obj 206 120 * 1;
#X obj 320 143 * 1;
#X obj 319 164 + 0;
#X obj 435 171 * 1;
#X obj 433 192 + 0;
#X obj 94 201 hsl 100 15 0 1 0 0 empty empty Parameter_E_(Exp) -2 -8
0 10 -262144 -1 -1 0 1;
#X obj 91 247 * 1;
#X obj 89 268 + 0;
#X obj 227 289 * 1;
#X obj 225 310 + 0;
#X obj 236 264 r Channel-Push;
#X obj 233 241 tgl 15 0 empty empty Channel-Push 17 7 0 10 -262144
-1 -1 0 1;
#X obj 226 221 bng 15 250 50 0 empty empty empty 17 7 0 10 -262144
-1 -1;
#X text 27 9 Improved OWL Puredata Template;
#X obj 359 286 s Channel-Push;
#X obj 369 261 tgl 15 0 empty empty Channel-Push 17 7 0 10 -262144
-1 -1 0 1;
#X obj 362 241 bng 15 250 50 0 empty empty empty 17 7 0 10 -262144
-1 -1;
#X obj 101 223 r Channel-E;
#X obj 92 95 * 128;
#X obj 90 143 mtof;
#X obj 54 328 sig~;
#X obj 153 422 *~;
#X obj 151 455 osc~;
#X obj 145 490 *~;
#X obj 91 534 +~;
#X msg 225 455 2000;
#X obj 209 586 snapshot~;
#X floatatom 207 632 5 0 0 0 - - -;
#X floatatom 112 172 5 0 0 0 - - -;
#X obj 224 530 bng 15 250 50 0 empty empty empty 17 7 0 10 -262144
-1 -1;
#X obj 362 553 sig~;
#X text 445 552 q;
#X floatatom 362 532 5 0 0 0 - - -;
#X floatatom 409 553 5 0 0 0 - - -;
#X obj 345 602 env~ 8192;
#X floatatom 345 624 5 0 0 0 - - -;
#X obj 345 580 vcf~ 1;
#X text 394 579 optional argument to initialize q;
#X obj 37 37;
#X obj 415 466 phasor~;
#X connect 1 0 12 0;
#X connect 2 0 13 0;
#X connect 3 0 15 0;
#X connect 4 0 15 0;
#X connect 5 0 13 0;
#X connect 6 0 12 0;
#X connect 7 0 30 0;
#X connect 8 0 30 0;
#X connect 11 0 31 0;
#X connect 12 0 10 0;
#X connect 13 0 14 0;
#X connect 15 0 16 0;
#X connect 16 0 33 1;
#X connect 17 0 18 0;
#X connect 18 0 19 0;
#X connect 20 0 21 0;
#X connect 22 0 20 0;
#X connect 23 0 20 0;
#X connect 24 0 20 0;
#X connect 27 0 26 0;
#X connect 28 0 26 0;
#X connect 29 0 18 0;
#X connect 30 0 11 0;
#X connect 31 0 32 0;
#X connect 31 0 40 0;
#X connect 32 0 33 0;
#X connect 32 0 36 0;
#X connect 33 0 34 0;
#X connect 34 0 35 0;
#X connect 35 0 36 1;
#X connect 35 0 38 0;
#X connect 37 0 35 1;
#X connect 38 0 39 0;
#X connect 41 0 38 0;
#X connect 42 0 48 1;
#X connect 44 0 42 0;
#X connect 45 0 48 2;
#X connect 46 0 47 0;
#X connect 48 0 46 0;
#X connect 48 0 0 1;
#X connect 48 0 0 0;
#X coords 0 0 1 1 85 60 0;
