#N canvas 1771 411 733 809 10;
#X obj 94 12 inlet;
#X obj 67 446 outlet;
#X text 131 14 binary (1 or 0);
#X text 116 448 trinary (2 \, 1 or 0);
#X obj 98 81 - 10;
#X obj 104 40 r rate;
#X obj 94 141 f 1;
#X floatatom 51 171 5 0 0 0 - - -, f 5;
#X floatatom 96 173 5 0 0 0 - - -, f 5;
#X obj 74 204 ==;
#X obj 19 204 <;
#X obj 132 204 >;
#X obj 20 259 f 0;
#X obj 78 261 f 1;
#X obj 133 260 f 2;
#X floatatom 186 99 5 0 0 0 - - -, f 5;
#X obj 20 281 bng 15 250 50 0 empty empty empty 0 -6 0 10 -262144 -1
-1;
#X obj 78 282 bng 15 250 50 0 empty empty empty 0 -6 0 10 -262144 -1
-1;
#X obj 133 283 bng 15 250 50 0 empty empty empty 0 -6 0 10 -262144
-1 -1;
#X obj 8 233 select 1;
#X obj 63 233 select 1;
#X obj 118 232 select 1;
#X floatatom 105 61 5 0 0 0 - - -, f 5;
#X obj 42 119 pipe 10;
#X obj -3 383 noteout \$1;
#X obj 88 382 noteout \$1;
#X obj 185 392 noteout \$1;
#X obj 78 353 makenote 127 50;
#X obj 176 353 makenote 127 50;
#X obj -21 353 makenote 127 50;
#X msg 175 326 44;
#X msg -13 328 47;
#X msg 78 328 49;
#X connect 0 0 6 0;
#X connect 0 0 15 0;
#X connect 0 0 23 0;
#X connect 4 0 23 1;
#X connect 5 0 22 0;
#X connect 6 0 8 0;
#X connect 7 0 10 0;
#X connect 7 0 9 0;
#X connect 7 0 11 0;
#X connect 8 0 10 1;
#X connect 8 0 9 1;
#X connect 8 0 11 1;
#X connect 9 0 20 0;
#X connect 10 0 19 0;
#X connect 11 0 21 0;
#X connect 12 0 16 0;
#X connect 13 0 17 0;
#X connect 14 0 18 0;
#X connect 16 0 31 0;
#X connect 17 0 32 0;
#X connect 18 0 30 0;
#X connect 19 0 12 0;
#X connect 20 0 13 0;
#X connect 21 0 14 0;
#X connect 22 0 4 0;
#X connect 23 0 7 0;
#X connect 27 0 25 0;
#X connect 27 1 25 1;
#X connect 28 0 26 0;
#X connect 28 1 26 1;
#X connect 29 0 24 0;
#X connect 29 1 24 1;
#X connect 30 0 28 0;
#X connect 31 0 29 0;
#X connect 32 0 27 0;
